STARTFONT 2.1
COMMENT
COMMENT Converted from OpenType font "Q:\font stuff\winfont\Wytherness.ttf" by "otf2bdf 3.0".
COMMENT
FONT -FreeType-Wytherness-Medium-R-Normal--132-1320-72-72-P-318-ISO10646-1
SIZE 132 72 72
FONTBOUNDINGBOX 133 133 -4 -27
STARTPROPERTIES 19
FOUNDRY "FreeType"
FAMILY_NAME "Wytherness"
WEIGHT_NAME "Medium"
SLANT "R"
SETWIDTH_NAME "Normal"
ADD_STYLE_NAME ""
PIXEL_SIZE 132
POINT_SIZE 1320
RESOLUTION_X 72
RESOLUTION_Y 72
SPACING "P"
AVERAGE_WIDTH 318
CHARSET_REGISTRY "ISO10646"
CHARSET_ENCODING "1"
FONT_ASCENT 105
FONT_DESCENT 27
COPYRIGHT "Copyright (c) Graham Meade, 2003. All rights reserved."
_OTF_FONTFILE "Q:\font stuff\winfont\Wytherness.ttf"
_OTF_PSNAME "Wytherness"
ENDPROPERTIES
CHARS 219
STARTCHAR 0020
ENCODING 32
SWIDTH 280 0
DWIDTH 37 0
BBX 0 0 0 0
BITMAP
ENDCHAR
STARTCHAR 0021
ENCODING 33
SWIDTH 143 0
DWIDTH 19 0
BBX 5 86 7 0
BITMAP
F8
F8
F8
F8
F8
F8
F8
F8
F8
F8
F8
F8
F8
F8
F8
F8
F8
F8
F8
F8
F8
F8
F8
F8
F8
F8
F8
F8
F8
F8
F8
F8
F8
F8
F8
F8
F8
F8
F8
F8
F8
F8
F8
F8
F8
F8
F8
F8
F8
F8
F8
F8
F8
F8
F8
F8
F8
F8
F8
F8
F8
F8
F8
00
00
00
00
00
00
00
00
00
00
00
00
00
00
00
F8
F8
F8
F8
F8
F8
F8
F8
ENDCHAR
STARTCHAR 0022
ENCODING 34
SWIDTH 242 0
DWIDTH 32 0
BBX 18 18 7 68
BITMAP
F807C0
F807C0
F807C0
F807C0
F807C0
F807C0
F807C0
F807C0
F807C0
F807C0
F807C0
F807C0
F807C0
F807C0
F807C0
F807C0
F807C0
F807C0
ENDCHAR
STARTCHAR 0023
ENCODING 35
SWIDTH 424 0
DWIDTH 56 0
BBX 42 41 7 18
BITMAP
000F0007C000
000F0007C000
000F0007C000
001F0007C000
001F000FC000
001F000F8000
001F000F8000
001F000F8000
001F000F8000
7FFFFFFFFFC0
7FFFFFFFFFC0
7FFFFFFFFFC0
7FFFFFFFFFC0
003E000F8000
003E000F8000
003E000F8000
003E000F8000
003E000F8000
003E000F8000
003E000F8000
003E000F8000
003E000F8000
003C001F8000
007C001F0000
007C001F0000
007C001F0000
007C001F0000
007C001F0000
FFFFFFFFFF80
FFFFFFFFFF80
FFFFFFFFFF80
FFFFFFFFFF80
007C001F0000
007C001F0000
007C001F0000
007C001F0000
0078001F0000
0078001F0000
00F8003E0000
00F8003E0000
00F8003E0000
ENDCHAR
STARTCHAR 0024
ENCODING 36
SWIDTH 348 0
DWIDTH 46 0
BBX 32 86 7 0
BITMAP
0003E000
0003E000
0003E000
0003E000
0003E000
001FFC00
007FFF00
01FFFFC0
03FFFFE0
0FFFFFF0
1FE3E3F8
3F83E0FC
7F03E07E
FE03E03F
FC03E01E
F803E000
F803E000
F803E000
F803E000
F803E000
F803E000
F803E000
F803E000
F803E000
F803E000
F803E000
F803E000
F803E000
F803E000
F803E000
F803E000
FC03E000
7E03E000
3F03E000
3FC3E000
0FF3E000
07FFE000
03FFFC00
00FFFF00
003FFFC0
0007FFE0
0003EFF8
0003E3FC
0003E0FC
0003E07E
0003E03F
0003E01F
0003E01F
0003E01F
0003E01F
0003E01F
0003E01F
0003E01F
0003E01F
0003E01F
0003E01F
0003E01F
0003E01F
0003E01F
0003E01F
0003E01F
0003E01F
0003E01F
0003E01F
0003E01F
0003E01F
0003E01F
0003E01F
0003E01F
0003E01F
0003E01F
1803E01F
FC03E03F
7E03E07E
3F83E0FC
1FC3E3FC
0FFBEFF8
07FFFFE0
01FFFFC0
00FFFF00
001FFC00
0003E000
0003E000
0003E000
0003E000
0003E000
ENDCHAR
STARTCHAR 0025
ENCODING 37
SWIDTH 621 0
DWIDTH 82 0
BBX 68 86 7 -1
BITMAP
00FC00000003C00000
03FF00000007C00000
07FF80000007800000
0FFFC0000007800000
0FC3E000000F800000
1F81F000000F000000
3F01F800000F000000
7E00FC00000F000000
7C007C00001E000000
FC003E00001E000000
F8003E00001E000000
F8003E00003E000000
F8003E00003C000000
F8003E00003C000000
F8003E00007C000000
F8003E000078000000
F8003E000078000000
F8003E0000F8000000
F8003E0000F0000000
F8003E0000F0000000
F8003E0001F0000000
F8003E0001E0000000
F8003E0001E0000000
F8003E0001E0000000
F8003E0003C0000000
F8003E0003C0000000
F8003E0003C0000000
F8003E0007C0000000
F8003E000780000000
F8003E000780000000
F8003E000F80000000
F8003E000F00000000
F8003E000F00000000
F8003E001F00000000
F8003E001E00000000
F8003E001E00000000
FC007E003E00000000
7E00FC003C00000000
3F00F8003C00000000
1F81F8003C00000000
1FC3F0007800000000
0FFFE000780007F000
07FFC00078001FFC00
03FF8000F0003FFE00
00FE0000F0007FFF00
00000000F0007E3F80
00000001F000FC0F80
00000001E001F807C0
00000001E003F007E0
00000003E007E003F0
00000003C007C001F0
00000003C007C001F0
00000007C007C001F0
000000078007C001F0
000000078007C001F0
0000000F8007C001F0
0000000F0007C001F0
0000000F0007C001F0
0000000F0007C001F0
0000001E0007C001F0
0000001E0007C001F0
0000001E0007C001F0
0000003E0007C001F0
0000003C0007C001F0
0000003C0007C001F0
0000007C0007C001F0
000000780007C001F0
000000780007C001F0
000000F80007C001F0
000000F00007C001F0
000000F00007C001F0
000001F00007C001F0
000001E00007C001F0
000001E00007C001F0
000001E00007C001F0
000003C00007C001F0
000003C00007C001F0
000003C00007E003F0
000007800003F007E0
000007800001F807C0
000007800000FC0F80
00000F8000007E1F80
00000F0000003FFF00
00000F0000003FFE00
00001F0000001FFC00
00001E00000007F000
ENDCHAR
STARTCHAR 0026
ENCODING 38
SWIDTH 348 0
DWIDTH 46 0
BBX 32 90 7 -4
BITMAP
000FF000
003FFE00
00FFFF80
03FFFFC0
07F81FF0
0FE003F8
1F8001FC
3F00007E
7E00003E
FC00001F
F800001F
F800001F
F800001F
F800001F
F800001F
F800001F
F800001F
F800001F
F800001F
F800001F
F800001F
F800001F
F800001F
F800001F
F800001F
F800001F
FC00001F
FE00003F
7F00007F
3F8000FE
3FC003FC
0FF80FF8
07FFFFF0
03FFFFE0
00FFFF80
01FFFE00
07FFE000
0FFC0000
1FE00000
3F800000
7F000000
FE000000
FC000000
F8000000
F8000000
F8000000
F800F000
F800FE00
F800FF80
F800FFC0
F8001FF0
F80003F8
F80001FC
F800007E
F800003F
F800001F
F800001F
F800001F
F800001F
F800001F
F800001F
F800001F
F800001F
F800001F
F800001F
F800001F
F800001F
F800001F
F800001F
F800001F
F800001F
F800001F
F800001F
F800001F
F800001F
F800001F
FC00003F
7E00007F
7F0000FF
3FC001FF
1FE007FF
0FFFFFFF
03FFFFFF
01FFFF9F
007FFE1F
000FF01F
0000001F
0000001F
0000001F
0000001F
ENDCHAR
STARTCHAR 0027
ENCODING 39
SWIDTH 143 0
DWIDTH 19 0
BBX 5 18 7 68
BITMAP
F8
F8
F8
F8
F8
F8
F8
F8
F8
F8
F8
F8
F8
F8
F8
F8
F8
F8
ENDCHAR
STARTCHAR 0028
ENCODING 40
SWIDTH 227 0
DWIDTH 30 0
BBX 16 112 7 -13
BITMAP
000F
007F
01FF
03FF
0FF8
1FC0
3F80
7F00
FC00
FC00
F800
F800
F800
F800
F800
F800
F800
F800
F800
F800
F800
F800
F800
F800
F800
F800
F800
F800
F800
F800
F800
F800
F800
F800
F800
F800
F800
F800
F800
F800
F800
F800
F800
F800
F800
F800
F800
F800
F800
F800
F800
F800
F800
F800
F800
F800
F800
F800
F800
F800
F800
F800
F800
F800
F800
F800
F800
F800
F800
F800
F800
F800
F800
F800
F800
F800
F800
F800
F800
F800
F800
F800
F800
F800
F800
F800
F800
F800
F800
F800
F800
F800
F800
F800
F800
F800
F800
F800
F800
F800
F800
F800
FC00
FC00
7E00
3F80
1FC0
0FF8
07FF
01FF
007F
000F
ENDCHAR
STARTCHAR 0029
ENCODING 41
SWIDTH 227 0
DWIDTH 30 0
BBX 16 112 7 -13
BITMAP
F000
FE00
FF80
FFC0
1FF0
03F8
01FC
007E
003F
001F
001F
001F
001F
001F
001F
001F
001F
001F
001F
001F
001F
001F
001F
001F
001F
001F
001F
001F
001F
001F
001F
001F
001F
001F
001F
001F
001F
001F
001F
001F
001F
001F
001F
001F
001F
001F
001F
001F
001F
001F
001F
001F
001F
001F
001F
001F
001F
001F
001F
001F
001F
001F
001F
001F
001F
001F
001F
001F
001F
001F
001F
001F
001F
001F
001F
001F
001F
001F
001F
001F
001F
001F
001F
001F
001F
001F
001F
001F
001F
001F
001F
001F
001F
001F
001F
001F
001F
001F
001F
001F
001F
001F
001F
003F
007E
01FC
03F8
1FF0
FFE0
FF80
FE00
F000
ENDCHAR
STARTCHAR 002A
ENCODING 42
SWIDTH 333 0
DWIDTH 44 0
BBX 29 32 7 54
BITMAP
0007C000
0007C000
0007C000
0007C000
0007C000
0007C000
0007C000
2007C010
7807C078
7E07C1F8
7F87C7F8
3FC7CFF0
0FF7FFC0
03FFFF00
00FFFC00
007FF800
001FE000
007FF800
01FFFC00
03FFFF00
0FF7FFC0
3FC7CFF0
FF87C7F8
7E07C1F8
3807C070
2007C010
0007C000
0007C000
0007C000
0007C000
0007C000
0007C000
ENDCHAR
STARTCHAR 002B
ENCODING 43
SWIDTH 416 0
DWIDTH 55 0
BBX 41 41 7 18
BITMAP
00003E000000
00003E000000
00003E000000
00003E000000
00003E000000
00003E000000
00003E000000
00003E000000
00003E000000
00003E000000
00003E000000
00003E000000
00003E000000
00003E000000
00003E000000
00003E000000
00003E000000
00003E000000
00003E000000
FFFFFFFFFF80
FFFFFFFFFF80
FFFFFFFFFF80
FFFFFFFFFF80
00003E000000
00003E000000
00003E000000
00003E000000
00003E000000
00003E000000
00003E000000
00003E000000
00003E000000
00003E000000
00003E000000
00003E000000
00003E000000
00003E000000
00003E000000
00003E000000
00003E000000
00003E000000
ENDCHAR
STARTCHAR 002C
ENCODING 44
SWIDTH 174 0
DWIDTH 23 0
BBX 8 18 8 -10
BITMAP
0F
0F
1F
1E
1E
1E
3E
3C
3C
3C
7C
78
78
78
F8
F0
F0
F0
ENDCHAR
STARTCHAR 002D
ENCODING 45
SWIDTH 416 0
DWIDTH 55 0
BBX 41 5 7 36
BITMAP
FFFFFFFFFF80
FFFFFFFFFF80
FFFFFFFFFF80
FFFFFFFFFF80
FFFFFFFFFF80
ENDCHAR
STARTCHAR 002E
ENCODING 46
SWIDTH 143 0
DWIDTH 19 0
BBX 5 9 7 0
BITMAP
F8
F8
F8
F8
F8
F8
F8
F8
F8
ENDCHAR
STARTCHAR 002F
ENCODING 47
SWIDTH 348 0
DWIDTH 46 0
BBX 31 86 8 -1
BITMAP
0000003E
0000003C
0000003C
0000007C
00000078
00000078
00000078
000000F0
000000F0
000000F0
000001F0
000001E0
000001E0
000003E0
000003C0
000003C0
000007C0
00000780
00000780
00000F80
00000F00
00000F00
00000F00
00001E00
00001E00
00001E00
00003C00
00003C00
00003C00
00007C00
00007800
00007800
0000F800
0000F000
0000F000
0001F000
0001E000
0001E000
0003E000
0003C000
0003C000
0003C000
00078000
00078000
00078000
000F8000
000F0000
000F0000
001F0000
001E0000
001E0000
003E0000
003C0000
003C0000
007C0000
00780000
00780000
00F80000
00F00000
00F00000
00F00000
01E00000
01E00000
01E00000
03E00000
03C00000
03C00000
07C00000
07800000
07800000
0F800000
0F000000
0F000000
1F000000
1E000000
1E000000
1E000000
3C000000
3C000000
3C000000
78000000
78000000
78000000
F8000000
F0000000
F0000000
ENDCHAR
STARTCHAR 0030
ENCODING 48
SWIDTH 348 0
DWIDTH 46 0
BBX 32 86 7 0
BITMAP
000FF000
007FFE00
00FFFF80
03FFFFC0
07F81FE0
0FC003F8
1F8001FC
3F00007C
7E00003E
FC00001F
F800001F
F800001F
F800001F
F800001F
F800001F
F800001F
F800001F
F800001F
F800001F
F800001F
F800001F
F800001F
F800001F
F800001F
F800001F
F800001F
F800001F
F800001F
F800001F
F800001F
F800001F
F800001F
F800001F
F800001F
F800001F
F800001F
F807C01F
F807C01F
F807C01F
F807C01F
F807C01F
F807C01F
F807C01F
F807C01F
F807C01F
F800001F
F800001F
F800001F
F800001F
F800001F
F800001F
F800001F
F800001F
F800001F
F800001F
F800001F
F800001F
F800001F
F800001F
F800001F
F800001F
F800001F
F800001F
F800001F
F800001F
F800001F
F800001F
F800001F
F800001F
F800001F
F800001F
F800001F
F800001F
F800001F
F800001F
F800001F
FC00001F
7C00003F
7F00007E
3F8001FC
1FC003F8
0FF81FF0
03FFFFC0
01FFFF80
007FFE00
000FF000
ENDCHAR
STARTCHAR 0031
ENCODING 49
SWIDTH 348 0
DWIDTH 46 0
BBX 30 86 8 0
BITMAP
0007C000
0007C000
0007C000
0007C000
0007C000
0007C000
0007C000
0007C000
0007C000
0007C000
0007C000
0007C000
0007C000
0007C000
0007C000
0007C000
0007C000
0007C000
0007C000
0007C000
0007C000
0007C000
0007C000
0007C000
0007C000
0007C000
0007C000
0007C000
0007C000
0007C000
0007C000
0007C000
0007C000
0007C000
0007C000
0007C000
0007C000
0007C000
0007C000
0007C000
0007C000
0007C000
0007C000
0007C000
0007C000
0007C000
0007C000
0007C000
0007C000
0007C000
0007C000
0007C000
0007C000
0007C000
0007C000
0007C000
0007C000
0007C000
0007C000
0007C000
0007C000
0007C000
0007C000
0007C000
0007C000
0007C000
0007C000
0007C000
0007C000
0007C000
0007C000
0007C000
0007C000
0007C000
0007C000
0007C000
F807C03C
FC07C07C
7E07C0F8
3F87C3F0
1FE7CFE0
0FFFFFC0
07FFFF80
03FFFF00
00FFFC00
001FE000
ENDCHAR
STARTCHAR 0032
ENCODING 50
SWIDTH 348 0
DWIDTH 46 0
BBX 32 86 7 0
BITMAP
000FF000
007FFE00
00FFFF80
03FFFFC0
07F81FE0
0FE003F8
1F8001FC
3F00007C
7E00003E
FC00001F
F800001F
F800001F
F800001F
F800001F
F800001F
0000001F
0000001F
0000001F
0000001F
0000001F
0000001F
0000001F
0000001F
0000001F
0000001F
0000001F
0000001F
0000001F
0000001F
0000001F
0000001F
0000003F
0000007F
000001FE
000003F8
00001FF0
000FFFE0
007FFF80
01FFFE00
03FFF000
07F80000
0FC00000
1F800000
3F000000
7E000000
FC000000
F8000000
F8000000
F8000000
F8000000
F8000000
F8000000
F8000000
F8000000
F8000000
F8000000
F8000000
F8000000
F8000000
F8000000
F8000000
F8000000
F8000000
F8000000
F8000000
F8000000
F8000000
F8000000
F8000000
F8000000
F8000000
F8000000
F8000000
F8000000
F8000000
F8000000
FC00001E
7E00003F
7F00007E
3F8001FC
1FE003F8
0FF80FF0
03FFFFC0
01FFFF80
007FFE00
000FF000
ENDCHAR
STARTCHAR 0033
ENCODING 51
SWIDTH 348 0
DWIDTH 46 0
BBX 32 86 7 0
BITMAP
000FF000
007FFE00
00FFFF80
03FFFFC0
07F81FE0
0FE003F8
1F8001FC
3F00007C
7E00003E
FC00001F
F800001F
F800001F
F800001F
F800001F
F800001F
0000001F
0000001F
0000001F
0000001F
0000001F
0000001F
0000001F
0000001F
0000001F
0000001F
0000001F
0000001F
0000001F
0000001F
0000001F
0000001F
0000003F
0000007F
000001FE
000003FC
00001FF8
0000FFE0
0000FFC0
0000FF00
0000FFC0
00001FE0
000003F0
000001F8
0000007C
0000003E
0000001F
0000001F
0000001F
0000001F
0000001F
0000001F
0000001F
0000001F
0000001F
0000001F
0000001F
0000001F
0000001F
0000001F
0000001F
0000001F
0000001F
0000001F
0000001F
0000001F
0000001F
0000001F
0000001F
0000001F
0000001F
0000001F
F800001F
F800001F
F800001F
F800001F
F800001F
FC00001F
7E00003F
7F00007E
3F8001FC
1FE003F8
0FF81FF0
03FFFFC0
01FFFF80
007FFE00
000FF000
ENDCHAR
STARTCHAR 0034
ENCODING 52
SWIDTH 348 0
DWIDTH 46 0
BBX 31 86 7 1
BITMAP
0003C000
00078000
00078000
00078000
000F8000
000F0000
000F0000
000F0000
001F0000
001E0000
001E0000
001E0000
003C0000
003C0000
003C0000
007C0000
00780000
00780000
00780000
00F80000
00F00000
00F00000
00F00000
01F03E00
01E03E00
01E03E00
03E03E00
03C03E00
03C03E00
03C03E00
07C03E00
07803E00
07803E00
07803E00
0F803E00
0F003E00
0F003E00
1F003E00
1E003E00
1E003E00
1E003E00
3E003E00
3C003E00
3C003E00
3C003E00
7C003E00
78003E00
78003E00
78003E00
F8003E00
F8003E00
F8003E00
F8003E00
F8003E00
F8003E00
F8003E00
F8003E00
FC003E00
FE003E1E
7E003E3E
7F003EFC
3FC03FF8
1FE03FF0
0FF83FE0
03FFFFC0
01FFFF80
007FFE00
000FFE00
00003E00
00003E00
00003E00
00003E00
00003E00
00003E00
00003E00
00003E00
00003E00
00003E00
00003E00
00003E00
00003E00
00003E00
00003E00
00003E00
00003E00
00003E00
ENDCHAR
STARTCHAR 0035
ENCODING 53
SWIDTH 348 0
DWIDTH 46 0
BBX 32 86 7 0
BITMAP
000FF000
007FFE00
00FFFF80
03FFFFC0
07F81FE0
0FC007F8
1F8001FC
3F0000FC
7E00007E
FC00003F
F8000010
F8000000
F8000000
F8000000
F8000000
F8000000
F8000000
F8000000
F8000000
F8000000
F8000000
F8000000
F8000000
F8000000
F8000000
F8000000
F8000000
F8000000
F8000000
F8000000
F8000000
F8000000
F8000000
F8000000
F8000000
F8000000
F807F000
F83FFE00
F8FFFF80
F9FFFFC0
FBF81FE0
FFE003F8
FF8001FC
FF00007C
FE00003E
FC00001F
F800001F
0000001F
0000001F
0000001F
0000001F
0000001F
0000001F
0000001F
0000001F
0000001F
0000001F
0000001F
0000001F
0000001F
0000001F
0000001F
0000001F
0000001F
0000001F
0000001F
0000001F
0000001F
0000001F
0000001F
0000001F
F800001F
F800001F
F800001F
F800001F
F800001F
FC00001F
7E00003F
7F00007E
3F8001FC
1FE003F8
0FF81FF0
03FFFFC0
01FFFF80
007FFE00
000FF000
ENDCHAR
STARTCHAR 0036
ENCODING 54
SWIDTH 348 0
DWIDTH 46 0
BBX 32 86 7 0
BITMAP
000F0000
007F0000
01FF0000
03FF0000
07F80000
0FC00000
1F800000
3F000000
7C000000
FC000000
F8000000
F8000000
F8000000
F8000000
F8000000
F8000000
F8000000
F8000000
F8000000
F8000000
F8000000
F8000000
F8000000
F8000000
F8000000
F8000000
F8000000
F8000000
F8000000
F8000000
F8000000
F8000000
F8000000
F8000000
F8000000
F8000000
F80FF000
F87FFE00
F9FFFF80
FBFFFFC0
FFFFFFE0
FFF81FF8
FFC003FC
FF8001FC
FF00007E
FC00003F
F800001F
F800001F
F800001F
F800001F
F800001F
F800001F
F800001F
F800001F
F800001F
F800001F
F800001F
F800001F
F800001F
F800001F
F800001F
F800001F
F800001F
F800001F
F800001F
F800001F
F800001F
F800001F
F800001F
F800001F
F800001F
F800001F
F800001F
F800001F
F800001F
F800001F
FC00001F
7C00003F
7F00007E
3F8001FC
1FC003F8
0FF81FF0
03FFFFC0
01FFFF80
007FFE00
000FF000
ENDCHAR
STARTCHAR 0037
ENCODING 55
SWIDTH 348 0
DWIDTH 46 0
BBX 32 86 7 -1
BITMAP
000FF000
003FFE00
00FFFF80
03FFFFC0
07F81FE0
0FE007F0
1F8003F8
3F0001FC
7E0000FE
FC00007F
0800003F
0000001F
0000001F
0000001F
0000001F
0000001F
0000001F
0000001F
0000001F
0000001F
0000001F
0000001F
0000001E
0000001E
0000001E
0000001E
0000003C
0000003C
0000003C
0000003C
0000003C
00000078
00000078
00000078
00000078
000000F8
000000F0
000000F0
000000F0
000000F0
000001F0
000001E0
000001E0
000001E0
000001E0
000003E0
000003C0
000003C0
000003C0
000003C0
000007C0
00000780
00000780
00000780
00000780
00000F80
00000F00
00000F00
00000F00
00000F00
00001E00
00001E00
00001E00
00001E00
00001E00
00003C00
00003C00
00003C00
00003C00
00007C00
00007800
00007800
00007800
00007800
0000F800
0000F000
0000F000
0000F000
0000F000
0001F000
0001E000
0001E000
0001E000
0001E000
0003E000
0003C000
ENDCHAR
STARTCHAR 0038
ENCODING 56
SWIDTH 348 0
DWIDTH 46 0
BBX 32 86 7 0
BITMAP
000FF000
007FFE00
00FFFF80
03FFFFC0
07F81FE0
0FC003F8
1F8001FC
3F00007C
7E00003E
FC00001F
F800001F
F800001F
F800001F
F800001F
F800001F
F800001F
F800001F
F800001F
F800001F
F800001F
F800001F
F800001F
F800001F
F800001F
F800001F
F800001F
F800001F
F800001F
F800001F
F800001F
F800001F
FC00003F
7E00007F
3F8001FE
1FC003FC
0FF81FF8
07FFFFE0
03FFFFC0
00FFFF00
01FFFFC0
07F81FE0
0FC003F0
1F8001F8
3F00007C
7E00003E
FC00001F
F800001F
F800001F
F800001F
F800001F
F800001F
F800001F
F800001F
F800001F
F800001F
F800001F
F800001F
F800001F
F800001F
F800001F
F800001F
F800001F
F800001F
F800001F
F800001F
F800001F
F800001F
F800001F
F800001F
F800001F
F800001F
F800001F
F800001F
F800001F
F800001F
F800001F
FC00001F
7E00003F
7F00007E
3F8001FC
1FE003F8
0FF81FF0
03FFFFC0
01FFFF80
007FFE00
000FF000
ENDCHAR
STARTCHAR 0039
ENCODING 57
SWIDTH 348 0
DWIDTH 46 0
BBX 32 86 7 0
BITMAP
000FF000
007FFE00
00FFFF80
03FFFFC0
07F81FE0
0FE003F8
1F8001FC
3F00007C
7E00003E
FC00001F
F800001F
F800001F
F800001F
F800001F
F800001F
F800001F
F800001F
F800001F
F800001F
F800001F
F800001F
F800001F
F800001F
F800001F
F800001F
F800001F
F800001F
F800001F
F800001F
F800001F
F800001F
F800001F
F800001F
F800001F
F800001F
F800001F
F800001F
F800001F
F800001F
F800001F
FC00003F
7E00007F
7F0000FF
3FC001FF
1FF007FF
0FFFFFFF
03FFFFDF
01FFFF9F
007FFE1F
000FF01F
0000001F
0000001F
0000001F
0000001F
0000001F
0000001F
0000001F
0000001F
0000001F
0000001F
0000001F
0000001F
0000001F
0000001F
0000001F
0000001F
0000001F
0000001F
0000001F
0000001F
0000001F
0000001F
0000001F
0000001F
0000001F
0000001F
0000001F
0000003F
0000007E
000001FC
000003F8
00001FF0
0000FFC0
0000FF80
0000FE00
0000F000
ENDCHAR
STARTCHAR 003A
ENCODING 58
SWIDTH 143 0
DWIDTH 19 0
BBX 5 45 7 0
BITMAP
F8
F8
F8
F8
F8
F8
F8
F8
00
00
00
00
00
00
00
00
00
00
00
00
00
00
00
00
00
00
00
00
00
00
00
00
00
00
00
00
00
F8
F8
F8
F8
F8
F8
F8
F8
ENDCHAR
STARTCHAR 003B
ENCODING 59
SWIDTH 174 0
DWIDTH 23 0
BBX 9 54 7 -9
BITMAP
0F80
0F80
0F80
0F80
0F80
0F80
0F80
0F80
0000
0000
0000
0000
0000
0000
0000
0000
0000
0000
0000
0000
0000
0000
0000
0000
0000
0000
0000
0000
0000
0000
0000
0000
0000
0000
0000
0000
0780
0780
0F00
0F00
0F00
1F00
1E00
1E00
1E00
3C00
3C00
3C00
7C00
7800
7800
7800
F800
F000
ENDCHAR
STARTCHAR 003C
ENCODING 60
SWIDTH 416 0
DWIDTH 55 0
BBX 41 31 7 23
BITMAP
000000000180
000000000F80
000000007F80
00000003FF80
0000001FFF00
000000FFF800
000007FFC000
00003FFE0000
0001FFF00000
000FFF800000
007FFC000000
03FFE0000000
1FFF00000000
FFF800000000
FFC000000000
FC0000000000
FF8000000000
FFF000000000
3FFE00000000
07FFC0000000
00FFF8000000
001FFF000000
0001FFF00000
00003FFE0000
000007FFC000
000000FFF800
0000001FFF00
00000003FF80
000000007F80
000000000F80
000000000180
ENDCHAR
STARTCHAR 003D
ENCODING 61
SWIDTH 416 0
DWIDTH 55 0
BBX 41 23 7 27
BITMAP
FFFFFFFFFF80
FFFFFFFFFF80
FFFFFFFFFF80
FFFFFFFFFF80
000000000000
000000000000
000000000000
000000000000
000000000000
000000000000
000000000000
000000000000
000000000000
000000000000
000000000000
000000000000
000000000000
000000000000
000000000000
FFFFFFFFFF80
FFFFFFFFFF80
FFFFFFFFFF80
FFFFFFFFFF80
ENDCHAR
STARTCHAR 003E
ENCODING 62
SWIDTH 416 0
DWIDTH 55 0
BBX 41 31 7 23
BITMAP
C00000000000
F80000000000
FF0000000000
FFE000000000
7FFC00000000
0FFF80000000
01FFF0000000
003FFE000000
0007FFC00000
0000FFF80000
00001FFF0000
000001FFE000
0000003FFC00
00000007FF80
00000000FF80
000000001F80
00000000FF80
00000007FF80
0000003FFE00
000001FFF000
00000FFF8000
00007FFC0000
0003FFE00000
001FFF000000
00FFF8000000
0FFF80000000
7FFC00000000
7FE000000000
7F0000000000
780000000000
400000000000
ENDCHAR
STARTCHAR 003F
ENCODING 63
SWIDTH 348 0
DWIDTH 46 0
BBX 32 86 7 0
BITMAP
000FF000
003FFE00
00FFFF80
03FFFFC0
07F81FF0
0FE003F8
1F8001FC
3F00007E
7E00003E
FC00001F
0800001F
0000001F
0000001F
0000001F
0000001F
0000001F
0000001F
0000001F
0000001F
0000001F
0000001F
0000001F
0000001F
0000001F
0000001F
0000001F
0000001F
0000001F
0000001F
0000001F
0000001F
0000003F
000000FF
000001FE
000007FC
00001FF8
0003FFE0
0003FFC0
0003FF00
0003FC00
0003E000
0003E000
0003E000
0003E000
0003E000
0003E000
0003E000
0003E000
0003E000
0003E000
0003E000
0003E000
0003E000
0003E000
0003E000
0003E000
0003E000
0003E000
0003E000
0003E000
0003E000
0003E000
0003E000
00000000
00000000
00000000
00000000
00000000
00000000
00000000
00000000
00000000
00000000
00000000
00000000
00000000
00000000
00000000
0003E000
0003E000
0003E000
0003E000
0003E000
0003E000
0003E000
0003E000
ENDCHAR
STARTCHAR 0040
ENCODING 64
SWIDTH 484 0
DWIDTH 64 0
BBX 50 74 7 4
BITMAP
000FFFF8000000
007FFFFF000000
01FFFFFFC00000
03FFFFFFE00000
0FF8000FF80000
1FE00001FC0000
3F800000FE0000
7F0000003F0000
7E0000001F8000
FC0000000F8000
F80000000F8000
F80000000F8000
F80000000F8000
F80000000F8000
F80000000F8000
F80000000F8000
F80000000F8000
F80000000F8000
F80000000F8000
F80007F80F8000
F8003FFF0F8000
F800FFFFCF8000
F801FFFFEF8000
F803FFFFFF8000
F807F807FF8000
F80FE001FF8000
F81FC000FF8000
F83F00003F8000
F87E00001F8000
F87C00000F8000
F87C00000F8000
F87C00000F8000
F87C00000F8000
F87C00000F8000
F87C00000F8000
F87C00000F8000
F87C00000F8000
F87C00000F8000
F87C00000F8000
F87C00000F8000
F87C00000F8000
F87C00000F8000
F87C00000F8000
F87C00000F8000
F87C00000F8000
F87E00000F8000
F87E00001F87C0
F83F80003F87C0
F81FC000FF87C0
F80FF001FF87C0
F807FC0FFF87C0
F803FFFFEF87C0
F800FFFFCF87C0
F8003FFF0F87C0
F80007F80F87C0
F80000000007C0
F80000000007C0
F80000000007C0
F80000000007C0
F80000000007C0
F80000000007C0
F80000000007C0
F80000000007C0
F80000000007C0
FC000000000FC0
7E000000000F80
3F000000003F80
1F800000007F00
0FE0000000FE00
07F8000007FC00
03FFFFFFFFF000
01FFFFFFFFE000
007FFFFFFF8000
000FFFFFFC0000
ENDCHAR
STARTCHAR 0041
ENCODING 65
SWIDTH 348 0
DWIDTH 46 0
BBX 32 86 7 0
BITMAP
000FF000
007FFE00
01FFFF80
03FFFFC0
07F81FE0
0FC003F8
1F8001FC
3F00007E
7C00003E
F800001F
F800001F
F800001F
F800001F
F800001F
F800001F
F800001F
F800001F
F800001F
F800001F
F800001F
F800001F
F800001F
F800001F
F800001F
F800001F
F800001F
F800001F
F800001F
F800001F
F800001F
F800001F
F800001F
F800001F
F800001F
F800001F
F800001F
FFFFFFFF
FFFFFFFF
FFFFFFFF
FFFFFFFF
F800001F
F800001F
F800001F
F800001F
F800001F
F800001F
F800001F
F800001F
F800001F
F800001F
F800001F
F800001F
F800001F
F800001F
F800001F
F800001F
F800001F
F800001F
F800001F
F800001F
F800001F
F800001F
F800001F
F800001F
F800001F
F800001F
F800001F
F800001F
F800001F
F800001F
F800001F
F800001F
F800001F
F800001F
F800001F
F800001F
F800001F
F800001F
F800001F
F800001F
F800001F
F800001F
F800001F
F800001F
F800001F
F800001F
ENDCHAR
STARTCHAR 0042
ENCODING 66
SWIDTH 348 0
DWIDTH 46 0
BBX 32 86 7 0
BITMAP
FFFFF000
FFFFFE00
FFFFFF80
FFFFFFC0
F8001FF0
F80003F8
F80001FC
F800007E
F800003E
F800001F
F800001F
F800001F
F800001F
F800001F
F800001F
F800001F
F800001F
F800001F
F800001F
F800001F
F800001F
F800001F
F800001F
F800001F
F800001F
F800001F
F800001F
F800001F
F800001F
F800001F
F800001F
F800003F
F800007F
F80001FC
F80003F8
F8001FF0
FFFFFFE0
FFFFFF80
FFFFFE00
FFFFFF80
F8001FC0
F80003F0
F80001F8
F800007C
F800003E
F800001F
F800001F
F800001F
F800001F
F800001F
F800001F
F800001F
F800001F
F800001F
F800001F
F800001F
F800001F
F800001F
F800001F
F800001F
F800001F
F800001F
F800001F
F800001F
F800001F
F800001F
F800001F
F800001F
F800001F
F800001F
F800001F
F800001F
F800001F
F800001F
F800001F
F800001F
F800001F
F800003F
F800007E
F80001FC
F80003F8
F8001FF0
FFFFFFC0
FFFFFF80
FFFFFE00
FFFFF000
ENDCHAR
STARTCHAR 0043
ENCODING 67
SWIDTH 348 0
DWIDTH 46 0
BBX 32 86 7 0
BITMAP
000FF000
007FFC00
01FFFF00
03FFFFC0
07F81FE0
0FE003F0
1F8001F8
3F0000FC
7E00007E
FC00003F
F8000010
F8000000
F8000000
F8000000
F8000000
F8000000
F8000000
F8000000
F8000000
F8000000
F8000000
F8000000
F8000000
F8000000
F8000000
F8000000
F8000000
F8000000
F8000000
F8000000
F8000000
F8000000
F8000000
F8000000
F8000000
F8000000
F8000000
F8000000
F8000000
F8000000
F8000000
F8000000
F8000000
F8000000
F8000000
F8000000
F8000000
F8000000
F8000000
F8000000
F8000000
F8000000
F8000000
F8000000
F8000000
F8000000
F8000000
F8000000
F8000000
F8000000
F8000000
F8000000
F8000000
F8000000
F8000000
F8000000
F8000000
F8000000
F8000000
F8000000
F8000000
F8000000
F8000000
F8000000
F8000000
F8000000
FC00003E
7E00007E
7F0000FC
3F8001F8
1FC003F0
0FF81FE0
03FFFFC0
01FFFF00
007FFE00
000FF000
ENDCHAR
STARTCHAR 0044
ENCODING 68
SWIDTH 348 0
DWIDTH 46 0
BBX 32 86 7 0
BITMAP
FFFFF000
FFFFFE00
FFFFFF80
FFFFFFC0
F8001FF0
F80003F8
F80001FC
F800007E
F800003E
F800001F
F800001F
F800001F
F800001F
F800001F
F800001F
F800001F
F800001F
F800001F
F800001F
F800001F
F800001F
F800001F
F800001F
F800001F
F800001F
F800001F
F800001F
F800001F
F800001F
F800001F
F800001F
F800001F
F800001F
F800001F
F800001F
F800001F
F800001F
F800001F
F800001F
F800001F
F800001F
F800001F
F800001F
F800001F
F800001F
F800001F
F800001F
F800001F
F800001F
F800001F
F800001F
F800001F
F800001F
F800001F
F800001F
F800001F
F800001F
F800001F
F800001F
F800001F
F800001F
F800001F
F800001F
F800001F
F800001F
F800001F
F800001F
F800001F
F800001F
F800001F
F800001F
F800001F
F800001F
F800001F
F800001F
F800001F
F800001F
F800003F
F800007E
F80001FC
F80003F8
F8001FF0
FFFFFFC0
FFFFFF80
FFFFFE00
FFFFF000
ENDCHAR
STARTCHAR 0045
ENCODING 69
SWIDTH 340 0
DWIDTH 45 0
BBX 32 86 7 0
BITMAP
000FF000
007FFC00
01FFFF00
03FFFFC0
07F81FE0
0FC003F0
1F8001F8
3F0000FC
7C00007E
F800003F
F8000010
F8000000
F8000000
F8000000
F8000000
F8000000
F8000000
F8000000
F8000000
F8000000
F8000000
F8000000
F8000000
F8000000
F8000000
F8000000
F8000000
F8000000
F8000000
F8000000
F8000000
F8000000
F8000000
F8000000
F8000000
F8000000
FFFFFE00
FFFFFE00
FFFFFE00
FFFFFE00
F8000000
F8000000
F8000000
F8000000
F8000000
F8000000
F8000000
F8000000
F8000000
F8000000
F8000000
F8000000
F8000000
F8000000
F8000000
F8000000
F8000000
F8000000
F8000000
F8000000
F8000000
F8000000
F8000000
F8000000
F8000000
F8000000
F8000000
F8000000
F8000000
F8000000
F8000000
F8000000
F8000000
F8000000
F8000000
F8000000
FC00003E
7E00007E
7F0000FC
3F8001F8
1FE003F0
0FF81FE0
03FFFFC0
01FFFF00
007FFE00
000FF000
ENDCHAR
STARTCHAR 0046
ENCODING 70
SWIDTH 310 0
DWIDTH 41 0
BBX 32 86 7 0
BITMAP
000FF000
007FFC00
01FFFF00
03FFFFC0
07F81FE0
0FC003F0
1F8001F8
3F0000FC
7C00007E
F800003F
F8000010
F8000000
F8000000
F8000000
F8000000
F8000000
F8000000
F8000000
F8000000
F8000000
F8000000
F8000000
F8000000
F8000000
F8000000
F8000000
F8000000
F8000000
F8000000
F8000000
F8000000
F8000000
F8000000
F8000000
F8000000
F8000000
FFFFFE00
FFFFFE00
FFFFFE00
FFFFFE00
F8000000
F8000000
F8000000
F8000000
F8000000
F8000000
F8000000
F8000000
F8000000
F8000000
F8000000
F8000000
F8000000
F8000000
F8000000
F8000000
F8000000
F8000000
F8000000
F8000000
F8000000
F8000000
F8000000
F8000000
F8000000
F8000000
F8000000
F8000000
F8000000
F8000000
F8000000
F8000000
F8000000
F8000000
F8000000
F8000000
F8000000
F8000000
F8000000
F8000000
F8000000
F8000000
F8000000
F8000000
F8000000
F8000000
ENDCHAR
STARTCHAR 0047
ENCODING 71
SWIDTH 348 0
DWIDTH 46 0
BBX 32 86 7 0
BITMAP
000FF000
007FFE00
01FFFF80
03FFFFC0
07F81FE0
0FE003F8
1F8001FC
3F00007E
7E00003E
FC00001F
F8000010
F8000000
F8000000
F8000000
F8000000
F8000000
F8000000
F8000000
F8000000
F8000000
F8000000
F8000000
F8000000
F8000000
F8000000
F8000000
F8000000
F8000000
F8000000
F8000000
F8000000
F8000000
F8000000
F8000000
F8000000
F8000000
F803FFFF
F803FFFF
F803FFFF
F803FFFF
F800001F
F800001F
F800001F
F800001F
F800001F
F800001F
F800001F
F800001F
F800001F
F800001F
F800001F
F800001F
F800001F
F800001F
F800001F
F800001F
F800001F
F800001F
F800001F
F800001F
F800001F
F800001F
F800001F
F800001F
F800001F
F800001F
F800001F
F800001F
F800001F
F800001F
F800001F
F800001F
F800001F
F800001F
F800001F
F800001F
FC00001F
7E00003F
7F00007E
3F8001FC
1FC003F8
07F81FF0
03FFFFC0
01FFFF80
007FFE00
000FF000
ENDCHAR
STARTCHAR 0048
ENCODING 72
SWIDTH 348 0
DWIDTH 46 0
BBX 32 86 7 0
BITMAP
F800001F
F800001F
F800001F
F800001F
F800001F
F800001F
F800001F
F800001F
F800001F
F800001F
F800001F
F800001F
F800001F
F800001F
F800001F
F800001F
F800001F
F800001F
F800001F
F800001F
F800001F
F800001F
F800001F
F800001F
F800001F
F800001F
F800001F
F800001F
F800001F
F800001F
F800001F
F800001F
F800001F
F800001F
F800001F
F800001F
FFFFFFFF
FFFFFFFF
FFFFFFFF
FFFFFFFF
F800001F
F800001F
F800001F
F800001F
F800001F
F800001F
F800001F
F800001F
F800001F
F800001F
F800001F
F800001F
F800001F
F800001F
F800001F
F800001F
F800001F
F800001F
F800001F
F800001F
F800001F
F800001F
F800001F
F800001F
F800001F
F800001F
F800001F
F800001F
F800001F
F800001F
F800001F
F800001F
F800001F
F800001F
F800001F
F800001F
F800001F
F800001F
F800001F
F800001F
F800001F
F800001F
F800001F
F800001F
F800001F
F800001F
ENDCHAR
STARTCHAR 0049
ENCODING 73
SWIDTH 143 0
DWIDTH 19 0
BBX 5 86 7 0
BITMAP
F8
F8
F8
F8
F8
F8
F8
F8
F8
F8
F8
F8
F8
F8
F8
F8
F8
F8
F8
F8
F8
F8
F8
F8
F8
F8
F8
F8
F8
F8
F8
F8
F8
F8
F8
F8
F8
F8
F8
F8
F8
F8
F8
F8
F8
F8
F8
F8
F8
F8
F8
F8
F8
F8
F8
F8
F8
F8
F8
F8
F8
F8
F8
F8
F8
F8
F8
F8
F8
F8
F8
F8
F8
F8
F8
F8
F8
F8
F8
F8
F8
F8
F8
F8
F8
F8
ENDCHAR
STARTCHAR 004A
ENCODING 74
SWIDTH 348 0
DWIDTH 46 0
BBX 31 86 8 0
BITMAP
0000003E
0000003E
0000003E
0000003E
0000003E
0000003E
0000003E
0000003E
0000003E
0000003E
0000003E
0000003E
0000003E
0000003E
0000003E
0000003E
0000003E
0000003E
0000003E
0000003E
0000003E
0000003E
0000003E
0000003E
0000003E
0000003E
0000003E
0000003E
0000003E
0000003E
0000003E
0000003E
0000003E
0000003E
0000003E
0000003E
0000003E
0000003E
0000003E
0000003E
0000003E
0000003E
0000003E
0000003E
0000003E
0000003E
0000003E
0000003E
0000003E
0000003E
0000003E
0000003E
0000003E
0000003E
0000003E
0000003E
0000003E
0000003E
0000003E
0000003E
0000003E
0000003E
0000003E
0000003E
0000003E
0000003E
0000003E
0000003E
0000003E
0000003E
0000003E
0000003E
0000003E
0000003E
0000003E
1000003E
F800003E
FC00007E
7E0000FC
3F0003F8
1F8007F0
0FF03FE0
07FFFF80
01FFFF00
00FFFC00
001FE000
ENDCHAR
STARTCHAR 004B
ENCODING 75
SWIDTH 348 0
DWIDTH 46 0
BBX 32 86 7 0
BITMAP
F800001F
F800001F
F800001F
F800001F
F800001F
F800001F
F800001F
F800001F
F800001F
F800001F
F800001F
F800001F
F800001F
F800001F
F800001F
F800001F
F800001F
F800001F
F800001F
F800001F
F800001F
F800001F
F800001F
F800001F
F800001F
F800001F
F800001F
F800001F
F800001F
F800001F
F800001F
F800003F
F800007F
F80001FC
F80003F8
F8001FF0
F801FFE0
F80FFF80
F87FFE00
F9FFFF80
FBFFFFC0
FFF00FF0
FFC003F8
FF8001FC
FE00007E
FC00003F
F800001F
F800001F
F800001F
F800001F
F800001F
F800001F
F800001F
F800001F
F800001F
F800001F
F800001F
F800001F
F800001F
F800001F
F800001F
F800001F
F800001F
F800001F
F800001F
F800001F
F800001F
F800001F
F800001F
F800001F
F800001F
F800001F
F800001F
F800001F
F800001F
F800001F
F800001F
F800001F
F800001F
F800001F
F800001F
F800001F
F800001F
F800001F
F800001F
F800001F
ENDCHAR
STARTCHAR 004C
ENCODING 76
SWIDTH 340 0
DWIDTH 45 0
BBX 32 86 7 0
BITMAP
F8000000
F8000000
F8000000
F8000000
F8000000
F8000000
F8000000
F8000000
F8000000
F8000000
F8000000
F8000000
F8000000
F8000000
F8000000
F8000000
F8000000
F8000000
F8000000
F8000000
F8000000
F8000000
F8000000
F8000000
F8000000
F8000000
F8000000
F8000000
F8000000
F8000000
F8000000
F8000000
F8000000
F8000000
F8000000
F8000000
F8000000
F8000000
F8000000
F8000000
F8000000
F8000000
F8000000
F8000000
F8000000
F8000000
F8000000
F8000000
F8000000
F8000000
F8000000
F8000000
F8000000
F8000000
F8000000
F8000000
F8000000
F8000000
F8000000
F8000000
F8000000
F8000000
F8000000
F8000000
F8000000
F8000000
F8000000
F8000000
F8000000
F8000000
F8000000
F8000000
F8000000
F8000000
F8000000
F8000000
FC000000
7E000000
7F000000
3F800000
1FC00000
0FF80000
03FFFFFF
01FFFFFF
007FFFFF
000FFFFF
ENDCHAR
STARTCHAR 004D
ENCODING 77
SWIDTH 553 0
DWIDTH 73 0
BBX 59 86 7 0
BITMAP
000FF00000FE0000
007FFC0007FFC000
01FFFF001FFFF000
03FFFFC07FFFF800
07F81FE0FF03FE00
0FC003F1F8007F00
1F8001FBF0003F80
3F00007FE0000FC0
7E00003F800007C0
FC00001F000003E0
F800001F000003E0
F800001F000003E0
F800001F000003E0
F800001F000003E0
F800001F000003E0
F800001F000003E0
F800001F000003E0
F800001F000003E0
F800001F000003E0
F800001F000003E0
F800001F000003E0
F800001F000003E0
F800001F000003E0
F800001F000003E0
F800001F000003E0
F800001F000003E0
F800001F000003E0
F800001F000003E0
F800001F000003E0
F800001F000003E0
F800001F000003E0
F800001F000003E0
F800001F000003E0
F800001F000003E0
F800001F000003E0
F800001F000003E0
F800001F000003E0
F800001F000003E0
F800001F000003E0
F800001F000003E0
F800001F000003E0
F800001F000003E0
F800001F000003E0
F800001F000003E0
F800001F000003E0
F800001F000003E0
F800001F000003E0
F800001F000003E0
F800001F000003E0
F800001F000003E0
F800001F000003E0
F800001F000003E0
F800001F000003E0
F800001F000003E0
F800001F000003E0
F800001F000003E0
F800001F000003E0
F800001F000003E0
F800001F000003E0
F800001F000003E0
F800001F000003E0
F800001F000003E0
F800001F000003E0
F800001F000003E0
F800001F000003E0
F800001F000003E0
F800001F000003E0
F800001F000003E0
F800001F000003E0
F800001F000003E0
F800001F000003E0
F800001F000003E0
F800001F000003E0
F800001F000003E0
F800001F000003E0
F800001F000003E0
F800001F000003E0
F800001F000003E0
F800001F000003E0
F800001F000003E0
F800001F000003E0
F800001F000003E0
F800001F000003E0
F800001F000003E0
F800001F000003E0
F800001F000003E0
ENDCHAR
STARTCHAR 004E
ENCODING 78
SWIDTH 348 0
DWIDTH 46 0
BBX 32 86 7 0
BITMAP
000FF000
007FFE00
01FFFF80
03FFFFC0
07F81FE0
0FC003F8
1F8001FC
3F00007E
7C00003E
F800001F
F800001F
F800001F
F800001F
F800001F
F800001F
F800001F
F800001F
F800001F
F800001F
F800001F
F800001F
F800001F
F800001F
F800001F
F800001F
F800001F
F800001F
F800001F
F800001F
F800001F
F800001F
F800001F
F800001F
F800001F
F800001F
F800001F
F800001F
F800001F
F800001F
F800001F
F800001F
F800001F
F800001F
F800001F
F800001F
F800001F
F800001F
F800001F
F800001F
F800001F
F800001F
F800001F
F800001F
F800001F
F800001F
F800001F
F800001F
F800001F
F800001F
F800001F
F800001F
F800001F
F800001F
F800001F
F800001F
F800001F
F800001F
F800001F
F800001F
F800001F
F800001F
F800001F
F800001F
F800001F
F800001F
F800001F
F800001F
F800001F
F800001F
F800001F
F800001F
F800001F
F800001F
F800001F
F800001F
F800001F
ENDCHAR
STARTCHAR 004F
ENCODING 79
SWIDTH 348 0
DWIDTH 46 0
BBX 32 86 7 0
BITMAP
000FF000
007FFE00
01FFFF80
03FFFFC0
07F81FE0
0FC003F8
1F8001FC
3F00007E
7C00003E
FC00001F
F800001F
F800001F
F800001F
F800001F
F800001F
F800001F
F800001F
F800001F
F800001F
F800001F
F800001F
F800001F
F800001F
F800001F
F800001F
F800001F
F800001F
F800001F
F800001F
F800001F
F800001F
F800001F
F800001F
F800001F
F800001F
F800001F
F800001F
F800001F
F800001F
F800001F
F800001F
F800001F
F800001F
F800001F
F800001F
F800001F
F800001F
F800001F
F800001F
F800001F
F800001F
F800001F
F800001F
F800001F
F800001F
F800001F
F800001F
F800001F
F800001F
F800001F
F800001F
F800001F
F800001F
F800001F
F800001F
F800001F
F800001F
F800001F
F800001F
F800001F
F800001F
F800001F
F800001F
F800001F
F800001F
F800001F
FC00001F
7E00003F
7F00007E
3F8001FC
1FC003F8
07F81FF0
03FFFFC0
01FFFF80
007FFE00
000FF000
ENDCHAR
STARTCHAR 0050
ENCODING 80
SWIDTH 348 0
DWIDTH 46 0
BBX 32 86 7 0
BITMAP
FFFFF000
FFFFFE00
FFFFFF80
FFFFFFC0
F8001FF0
F80003F8
F80001FC
F800007E
F800003E
F800001F
F800001F
F800001F
F800001F
F800001F
F800001F
F800001F
F800001F
F800001F
F800001F
F800001F
F800001F
F800001F
F800001F
F800001F
F800001F
F800001F
F800001F
F800001F
F800001F
F800001F
F800001F
F800003F
F800007F
F80001FE
F80003F8
F8001FF0
FFFFFFE0
FFFFFF80
FFFFFE00
FFFFF800
F8000000
F8000000
F8000000
F8000000
F8000000
F8000000
F8000000
F8000000
F8000000
F8000000
F8000000
F8000000
F8000000
F8000000
F8000000
F8000000
F8000000
F8000000
F8000000
F8000000
F8000000
F8000000
F8000000
F8000000
F8000000
F8000000
F8000000
F8000000
F8000000
F8000000
F8000000
F8000000
F8000000
F8000000
F8000000
F8000000
F8000000
F8000000
F8000000
F8000000
F8000000
F8000000
F8000000
F8000000
F8000000
F8000000
ENDCHAR
STARTCHAR 0051
ENCODING 81
SWIDTH 348 0
DWIDTH 46 0
BBX 44 94 7 -8
BITMAP
000FF0000000
003FFE000000
00FFFF800000
03FFFFC00000
07F81FF00000
0FC003F80000
1F8001FC0000
3F00007E0000
7C00003E0000
F800001F0000
F800001F0000
F800001F0000
F800001F0000
F800001F0000
F800001F0000
F800001F0000
F800001F0000
F800001F0000
F800001F0000
F800001F0000
F800001F0000
F800001F0000
F800001F0000
F800001F0000
F800001F0000
F800001F0000
F800001F0000
F800001F0000
F800001F0000
F800001F0000
F800001F0000
F800001F0000
F800001F0000
F800001F0000
F800001F0000
F800001F0000
F800001F0000
F800001F0000
F800001F0000
F800001F0000
F800001F0000
F800001F0000
F800001F0000
F800001F0000
F800001F0000
F800001F0000
F800001F0000
F800001F0000
F800001F0000
F800001F0000
F800001F0000
F800001F0000
F800001F0000
F800001F0000
F800001F0000
F800001F0000
F800001F0000
F800001F0000
F800001F0000
F800001F0000
F800001F0000
F800001F0000
F800001F0000
F800001F0000
F800001F0000
F800001F0000
F800001F0000
F800001F0000
F800001F0000
F800001F0000
F800001F0000
F800001F0000
F800001F0000
F800001F0000
F800001F0000
F800001F0000
FC00003F0000
7E00007F0000
3F0000FE0000
1FC003FC0000
0FF00FF80000
07FFFFF00000
03FFFFC00000
07FFFF800000
0FFFFE000000
0FF7FF000000
1F003FC00000
3E000FE00000
7C0003F00000
7C0001FE00C0
380000FFFFE0
1000003FFFF0
0000001FFFE0
00000003FF00
ENDCHAR
STARTCHAR 0052
ENCODING 82
SWIDTH 348 0
DWIDTH 46 0
BBX 32 86 7 0
BITMAP
FFFFF000
FFFFFE00
FFFFFF80
FFFFFFC0
F8001FF0
F80003F8
F80001FC
F800007E
F800003E
F800001F
F800001F
F800001F
F800001F
F800001F
F800001F
F800001F
F800001F
F800001F
F800001F
F800001F
F800001F
F800001F
F800001F
F800001F
F800001F
F800001F
F800001F
F800001F
F800001F
F800001F
F800001F
F800003F
F800007F
F80001FC
F80003F8
F8001FF0
FFFFFFE0
FFFFFF80
FFFFFE00
FFFFFF80
F8001FC0
F80003F0
F80001F8
F800007C
F800003E
F800001F
F800001F
F800001F
F800001F
F800001F
F800001F
F800001F
F800001F
F800001F
F800001F
F800001F
F800001F
F800001F
F800001F
F800001F
F800001F
F800001F
F800001F
F800001F
F800001F
F800001F
F800001F
F800001F
F800001F
F800001F
F800001F
F800001F
F800001F
F800001F
F800001F
F800001F
F800001F
F800001F
F800001F
F800001F
F800001F
F800001F
F800001F
F800001F
F800001F
F800001F
ENDCHAR
STARTCHAR 0053
ENCODING 83
SWIDTH 348 0
DWIDTH 46 0
BBX 32 86 7 0
BITMAP
000FF000
007FFE00
01FFFF80
03FFFFC0
07F81FE0
0FE003F8
1F8001FC
3F0000FE
7E00007E
FC00003F
F8000010
F8000000
F8000000
F8000000
F8000000
F8000000
F8000000
F8000000
F8000000
F8000000
F8000000
F8000000
F8000000
F8000000
F8000000
F8000000
F8000000
F8000000
F8000000
F8000000
FC000000
FC000000
7F000000
3F800000
1FC00000
0FF80000
07FFF000
01FFFE00
007FFF80
000FFFC0
00001FE0
000003F8
000001FC
000000FE
0000003E
0000001F
0000001F
0000001F
0000001F
0000001F
0000001F
0000001F
0000001F
0000001F
0000001F
0000001F
0000001F
0000001F
0000001F
0000001F
0000001F
0000001F
0000001F
0000001F
0000001F
0000001F
0000001F
0000001F
0000001F
0000001F
0000001F
0000001F
0000001F
0000001F
0000001F
0800001F
7C00001F
7E00003F
7F0000FE
3F8001FC
1FC003F8
07F81FF0
03FFFFC0
01FFFF80
007FFE00
000FF000
ENDCHAR
STARTCHAR 0054
ENCODING 84
SWIDTH 348 0
DWIDTH 46 0
BBX 32 86 7 0
BITMAP
000FF000
007FFC00
00FFFF00
03FFFFC0
07FFFFE0
0FFBE7F0
1FC3E1F8
3F83E0FC
7E03E07E
FC03E03F
0803E010
0003E000
0003E000
0003E000
0003E000
0003E000
0003E000
0003E000
0003E000
0003E000
0003E000
0003E000
0003E000
0003E000
0003E000
0003E000
0003E000
0003E000
0003E000
0003E000
0003E000
0003E000
0003E000
0003E000
0003E000
0003E000
0003E000
0003E000
0003E000
0003E000
0003E000
0003E000
0003E000
0003E000
0003E000
0003E000
0003E000
0003E000
0003E000
0003E000
0003E000
0003E000
0003E000
0003E000
0003E000
0003E000
0003E000
0003E000
0003E000
0003E000
0003E000
0003E000
0003E000
0003E000
0003E000
0003E000
0003E000
0003E000
0003E000
0003E000
0003E000
0003E000
0003E000
0003E000
0003E000
0003E000
0003E000
0003E000
0003E000
0003E000
0003E000
0003E000
0003E000
0003E000
0003E000
0003E000
ENDCHAR
STARTCHAR 0055
ENCODING 85
SWIDTH 348 0
DWIDTH 46 0
BBX 32 86 7 0
BITMAP
F800001F
F800001F
F800001F
F800001F
F800001F
F800001F
F800001F
F800001F
F800001F
F800001F
F800001F
F800001F
F800001F
F800001F
F800001F
F800001F
F800001F
F800001F
F800001F
F800001F
F800001F
F800001F
F800001F
F800001F
F800001F
F800001F
F800001F
F800001F
F800001F
F800001F
F800001F
F800001F
F800001F
F800001F
F800001F
F800001F
F800001F
F800001F
F800001F
F800001F
F800001F
F800001F
F800001F
F800001F
F800001F
F800001F
F800001F
F800001F
F800001F
F800001F
F800001F
F800001F
F800001F
F800001F
F800001F
F800001F
F800001F
F800001F
F800001F
F800001F
F800001F
F800001F
F800001F
F800001F
F800001F
F800001F
F800001F
F800001F
F800001F
F800001F
F800001F
F800001F
F800001F
F800001F
F800001F
F800001F
FC00001F
7C00003F
7F00007E
3F8001FC
1FC003F8
07F81FF0
03FFFFC0
01FFFF80
007FFE00
000FF000
ENDCHAR
STARTCHAR 0056
ENCODING 86
SWIDTH 348 0
DWIDTH 46 0
BBX 32 86 7 0
BITMAP
F000000F
F000000F
7800001E
7800001E
7800001E
7800001E
7800001E
7800001E
7C00003C
3C00003C
3C00003C
3C00003C
3C00003C
3C00003C
3C00007C
1E000078
1E000078
1E000078
1E000078
1E000078
1E000078
0F0000F0
0F0000F0
0F0000F0
0F0000F0
0F0000F0
0F0000F0
0F8001E0
078001E0
078001E0
078001E0
078001E0
078001E0
078003E0
03C003C0
03C003C0
03C003C0
03C003C0
03C003C0
03C003C0
01E00780
01E00780
01E00780
01E00780
01E00780
01E00780
01F00F00
00F00F00
00F00F00
00F00F00
00F00F00
00F00F00
00F01F00
00781E00
00781E00
00781E00
00781E00
00781E00
00783E00
003C3C00
003C3C00
003C3C00
003C3C00
003C3C00
003C3C00
003E7800
001E7800
001E7800
001E7800
001E7800
001E7800
001EF800
000FF000
000FF000
000FF000
000FF000
000FF000
000FF000
0007E000
0007E000
0007E000
0007E000
0007E000
0007E000
0007C000
0003C000
ENDCHAR
STARTCHAR 0057
ENCODING 87
SWIDTH 553 0
DWIDTH 73 0
BBX 59 86 7 0
BITMAP
F800001F000003E0
F800001F000003E0
F800001F000003E0
F800001F000003E0
F800001F000003E0
F800001F000003E0
F800001F000003E0
F800001F000003E0
F800001F000003E0
F800001F000003E0
F800001F000003E0
F800001F000003E0
F800001F000003E0
F800001F000003E0
F800001F000003E0
F800001F000003E0
F800001F000003E0
F800001F000003E0
F800001F000003E0
F800001F000003E0
F800001F000003E0
F800001F000003E0
F800001F000003E0
F800001F000003E0
F800001F000003E0
F800001F000003E0
F800001F000003E0
F800001F000003E0
F800001F000003E0
F800001F000003E0
F800001F000003E0
F800001F000003E0
F800001F000003E0
F800001F000003E0
F800001F000003E0
F800001F000003E0
F800001F000003E0
F800001F000003E0
F800001F000003E0
F800001F000003E0
F800001F000003E0
F800001F000003E0
F800001F000003E0
F800001F000003E0
F800001F000003E0
F800001F000003E0
F800001F000003E0
F800001F000003E0
F800001F000003E0
F800001F000003E0
F800001F000003E0
F800001F000003E0
F800001F000003E0
F800001F000003E0
F800001F000003E0
F800001F000003E0
F800001F000003E0
F800001F000003E0
F800001F000003E0
F800001F000003E0
F800001F000003E0
F800001F000003E0
F800001F000003E0
F800001F000003E0
F800001F000003E0
F800001F000003E0
F800001F000003E0
F800001F000003E0
F800001F000003E0
F800001F000003E0
F800001F000003E0
F800001F000003E0
F800001F000003E0
F800001F000003E0
F800001F000003E0
F800001F000003E0
FC00001F800003E0
7C00003F800007E0
7F00007FE0000FC0
3F8001FBF0003F80
1FC003F1F8007F00
0FF81FE0FF03FE00
03FFFFC07FFFF800
01FFFF001FFFF000
007FFE0007FFC000
000FF00001FE0000
ENDCHAR
STARTCHAR 0058
ENCODING 88
SWIDTH 348 0
DWIDTH 46 0
BBX 32 86 7 -1
BITMAP
F000001F
7800001E
7800001E
7800003E
3C00003C
3C00003C
3C00003C
3E000078
1E000078
1E000078
1F0000F8
0F0000F0
0F0000F0
0F8001F0
078001E0
078001E0
07C003E0
03C003C0
03C003C0
03C007C0
01E00780
01E00780
01E00780
00F00F00
00F00F00
00F00F00
00F81E00
00781E00
00781E00
007C3E00
003C3C00
003C3C00
003E7C00
001E7800
001E7800
001FF800
000FF000
000FF000
000FF000
0007E000
0007E000
0007E000
0003C000
0003C000
0003C000
0007E000
0007E000
0007E000
000FF000
000FF000
000FF000
001FF800
001E7800
001E7800
003E7800
003C3C00
003C3C00
003C3C00
00781E00
00781E00
00781E00
00F01F00
00F00F00
00F00F00
01F00F80
01E00780
01E00780
03E007C0
03C003C0
03C003C0
07C003C0
078001E0
078001E0
0F8001E0
0F0000F0
0F0000F0
0F0000F0
1E000078
1E000078
1E000078
3E00007C
3C00003C
3C00003C
7C00003E
7800001E
7800001E
ENDCHAR
STARTCHAR 0059
ENCODING 89
SWIDTH 348 0
DWIDTH 46 0
BBX 32 86 7 0
BITMAP
F800001F
F800001F
F800001F
F800001F
F800001F
F800001F
F800001F
F800001F
F800001F
F800001F
F800001F
F800001F
F800001F
F800001F
F800001F
F800001F
F800001F
F800001F
F800001F
F800001F
F800001F
F800001F
F800001F
F800001F
F800001F
F800001F
F800001F
F800001F
F800001F
F800001F
F800001F
FC00003F
7E00007F
3F0000FE
3FC003FC
0FF00FF8
07FFFFF0
03FFFFE0
00FFFF80
003FFE00
0007F000
0003E000
0003E000
0003E000
0003E000
0003E000
0003E000
0003E000
0003E000
0003E000
0003E000
0003E000
0003E000
0003E000
0003E000
0003E000
0003E000
0003E000
0003E000
0003E000
0003E000
0003E000
0003E000
0003E000
0003E000
0003E000
0003E000
0003E000
0003E000
0003E000
0003E000
0003E000
0003E000
0003E000
0003E000
0003E000
0003E000
0003E000
0003E000
0003E000
0003E000
0003E000
0003E000
0003E000
0003E000
0003E000
ENDCHAR
STARTCHAR 005A
ENCODING 90
SWIDTH 348 0
DWIDTH 46 0
BBX 32 86 7 0
BITMAP
000FF000
007FFC00
00FFFF00
03FFFFC0
07F81FE0
0FE003F0
1F8001F8
3F0000FC
7E00007E
FC00003F
0800001E
0000001E
0000003E
0000003C
0000003C
00000078
00000078
000000F8
000000F0
000000F0
000001E0
000001E0
000003E0
000003C0
000003C0
00000780
00000780
00000F80
00000F00
00000F00
00001E00
00001E00
00003E00
00003C00
00003C00
00007800
00007800
0000F800
0000F000
0000F000
0001F000
0001E000
0003E000
0003C000
0003C000
0007C000
00078000
000F8000
000F0000
000F0000
001F0000
001E0000
003E0000
003C0000
003C0000
007C0000
00780000
00F80000
00F00000
00F00000
01F00000
01E00000
03E00000
03C00000
03C00000
07C00000
07800000
0F800000
0F000000
0F000000
1F000000
1E000000
3E000000
3C000000
3C000000
7C000000
7C00003E
7E00007E
3F0000FC
1F8001F8
0FC007F0
03F81FE0
01FFFFC0
00FFFF00
003FFE00
0007F000
ENDCHAR
STARTCHAR 005B
ENCODING 91
SWIDTH 212 0
DWIDTH 28 0
BBX 14 112 7 -13
BITMAP
FFFC
FFFC
FFFC
FFFC
F800
F800
F800
F800
F800
F800
F800
F800
F800
F800
F800
F800
F800
F800
F800
F800
F800
F800
F800
F800
F800
F800
F800
F800
F800
F800
F800
F800
F800
F800
F800
F800
F800
F800
F800
F800
F800
F800
F800
F800
F800
F800
F800
F800
F800
F800
F800
F800
F800
F800
F800
F800
F800
F800
F800
F800
F800
F800
F800
F800
F800
F800
F800
F800
F800
F800
F800
F800
F800
F800
F800
F800
F800
F800
F800
F800
F800
F800
F800
F800
F800
F800
F800
F800
F800
F800
F800
F800
F800
F800
F800
F800
F800
F800
F800
F800
F800
F800
F800
F800
F800
F800
F800
F800
FFFC
FFFC
FFFC
FFFC
ENDCHAR
STARTCHAR 005C
ENCODING 92
SWIDTH 348 0
DWIDTH 46 0
BBX 31 86 7 -1
BITMAP
F0000000
78000000
78000000
78000000
3C000000
3C000000
3C000000
3E000000
1E000000
1E000000
1F000000
0F000000
0F000000
0F800000
07800000
07800000
07C00000
03C00000
03C00000
03C00000
01E00000
01E00000
01E00000
00F00000
00F00000
00F00000
00F80000
00780000
00780000
007C0000
003C0000
003C0000
003E0000
001E0000
001E0000
001E0000
000F0000
000F0000
000F0000
00078000
00078000
00078000
0007C000
0003C000
0003C000
0003E000
0001E000
0001E000
0001F000
0000F000
0000F000
0000F800
00007800
00007800
00007800
00003C00
00003C00
00003C00
00001E00
00001E00
00001E00
00001F00
00000F00
00000F00
00000F80
00000780
00000780
000007C0
000003C0
000003C0
000003E0
000001E0
000001E0
000001E0
000000F0
000000F0
000000F0
00000078
00000078
00000078
0000007C
0000003C
0000003C
0000003E
0000001E
0000001E
ENDCHAR
STARTCHAR 005D
ENCODING 93
SWIDTH 212 0
DWIDTH 28 0
BBX 14 112 7 -13
BITMAP
FFFC
FFFC
FFFC
FFFC
007C
007C
007C
007C
007C
007C
007C
007C
007C
007C
007C
007C
007C
007C
007C
007C
007C
007C
007C
007C
007C
007C
007C
007C
007C
007C
007C
007C
007C
007C
007C
007C
007C
007C
007C
007C
007C
007C
007C
007C
007C
007C
007C
007C
007C
007C
007C
007C
007C
007C
007C
007C
007C
007C
007C
007C
007C
007C
007C
007C
007C
007C
007C
007C
007C
007C
007C
007C
007C
007C
007C
007C
007C
007C
007C
007C
007C
007C
007C
007C
007C
007C
007C
007C
007C
007C
007C
007C
007C
007C
007C
007C
007C
007C
007C
007C
007C
007C
007C
007C
007C
007C
007C
007C
FFFC
FFFC
FFFC
FFFC
ENDCHAR
STARTCHAR 005E
ENCODING 94
SWIDTH 280 0
DWIDTH 37 0
BBX 22 19 7 67
BITMAP
007C00
00FC00
00FE00
01FE00
01FF00
03EF00
03EF80
07C780
07C7C0
0F83C0
0F83E0
1F01E0
1F01F0
3E00F0
3E00F8
7C0078
7C007C
F8003C
00003C
ENDCHAR
STARTCHAR 005F
ENCODING 95
SWIDTH 477 0
DWIDTH 63 0
BBX 49 4 7 -26
BITMAP
FFFFFFFFFFFF80
FFFFFFFFFFFF80
FFFFFFFFFFFF80
FFFFFFFFFFFF80
ENDCHAR
STARTCHAR 0060
ENCODING 96
SWIDTH 234 0
DWIDTH 31 0
BBX 17 18 7 67
BITMAP
F80000
7C0000
3C0000
3E0000
1F0000
0F8000
0F8000
07C000
03E000
03E000
01F000
00F800
007800
007C00
003E00
001E00
001F00
000F80
ENDCHAR
STARTCHAR 0061
ENCODING 97
SWIDTH 348 0
DWIDTH 46 0
BBX 32 59 7 0
BITMAP
000FF000
007FFE00
00FFFF80
03FFFFC0
07F81FE0
0FE003F8
1F8001FC
3F00007E
7E00003E
FC00001F
0800001F
0000001F
0000001F
0000001F
0000001F
0000001F
0000001F
0000001F
0000001F
0000001F
0000001F
0000001F
0000001F
000FF01F
007FFE1F
01FFFF9F
03FFFFDF
0FFFFFFF
1FE007FF
3FC001FF
7F0000FF
FE00007F
FC00003F
F800001F
F800001F
F800001F
F800001F
F800001F
F800001F
F800001F
F800001F
F800001F
F800001F
F800001F
F800001F
F800001F
F800001F
F800001F
F800001F
FC00003F
FE00007F
7F0000FF
3FC001FF
1FE007FF
0FFFFFFF
03FFFFDF
01FFFF9F
007FFE1F
000FF01F
ENDCHAR
STARTCHAR 0062
ENCODING 98
SWIDTH 348 0
DWIDTH 46 0
BBX 32 86 7 0
BITMAP
F8000000
F8000000
F8000000
F8000000
F8000000
F8000000
F8000000
F8000000
F8000000
F8000000
F8000000
F8000000
F8000000
F8000000
F8000000
F8000000
F8000000
F8000000
F8000000
F8000000
F8000000
F8000000
F8000000
F8000000
F8000000
F8000000
F8000000
F80FF000
F87FFE00
F9FFFF80
FBFFFFC0
FFFFFFF0
FFF00FF8
FFC003FC
FF8000FE
FE00007E
FC00003F
F800001F
F800001F
F800001F
F800001F
F800001F
F800001F
F800001F
F800001F
F800001F
F800001F
F800001F
F800001F
F800001F
F800001F
F800001F
F800001F
F800001F
F800001F
F800001F
F800001F
F800001F
F800001F
F800001F
F800001F
F800001F
F800001F
F800001F
F800001F
F800001F
F800001F
F800001F
F800001F
F800001F
F800001F
F800001F
F800001F
F800001F
F800001F
F800001F
FC00003F
FE00007F
FF0000FE
FFC001FC
FFE007F8
FFFFFFF0
FBFFFFE0
F9FFFF80
F87FFE00
F80FF000
ENDCHAR
STARTCHAR 0063
ENCODING 99
SWIDTH 348 0
DWIDTH 46 0
BBX 32 59 7 0
BITMAP
000FF000
007FFC00
01FFFF00
03FFFFC0
07F81FE0
0FE003F0
1F8001F8
3F0000FC
7E00007E
FC00003F
F8000010
F8000000
F8000000
F8000000
F8000000
F8000000
F8000000
F8000000
F8000000
F8000000
F8000000
F8000000
F8000000
F8000000
F8000000
F8000000
F8000000
F8000000
F8000000
F8000000
F8000000
F8000000
F8000000
F8000000
F8000000
F8000000
F8000000
F8000000
F8000000
F8000000
F8000000
F8000000
F8000000
F8000000
F8000000
F8000000
F8000000
F8000000
F8000000
FC00003E
FE00003E
7F0000FC
3F8001F8
1FE003F0
0FF81FE0
03FFFFC0
01FFFF00
007FFE00
000FF000
ENDCHAR
STARTCHAR 0064
ENCODING 100
SWIDTH 348 0
DWIDTH 46 0
BBX 32 86 7 0
BITMAP
0000001F
0000001F
0000001F
0000001F
0000001F
0000001F
0000001F
0000001F
0000001F
0000001F
0000001F
0000001F
0000001F
0000001F
0000001F
0000001F
0000001F
0000001F
0000001F
0000001F
0000001F
0000001F
0000001F
0000001F
0000001F
0000001F
0000001F
000FF01F
007FFE1F
01FFFF9F
03FFFFDF
07FFFFFF
0FF00FFF
1FC003FF
3F8000FF
7E00007F
FC00003F
F800001F
F800001F
F800001F
F800001F
F800001F
F800001F
F800001F
F800001F
F800001F
F800001F
F800001F
F800001F
F800001F
F800001F
F800001F
F800001F
F800001F
F800001F
F800001F
F800001F
F800001F
F800001F
F800001F
F800001F
F800001F
F800001F
F800001F
F800001F
F800001F
F800001F
F800001F
F800001F
F800001F
F800001F
F800001F
F800001F
F800001F
F800001F
F800001F
FC00003F
7E00007F
7F0000FF
3FC003FF
1FF00FFF
0FFFFFFF
03FFFFDF
01FFFF9F
007FFE1F
000FF01F
ENDCHAR
STARTCHAR 0065
ENCODING 101
SWIDTH 348 0
DWIDTH 46 0
BBX 32 59 7 0
BITMAP
000FF000
007FFE00
00FFFF80
03FFFFC0
07F81FE0
0FE003F8
1F8001FC
3F00007E
7E00003E
FC00001F
F800001F
F800001F
F800001F
F800001F
F800001F
F800001F
F800001F
F800001F
F800001F
F800001F
F800001F
F800001F
F800001F
F800001F
F800001F
F800001F
FC00001F
FE00003F
FF0000FE
FF8001FC
FFE003F8
FFF81FF0
FBFFFFE0
F9FFFF80
F87FFE00
F80FF000
F8000000
F8000000
F8000000
F8000000
F8000000
F8000000
F8000000
F8000000
F8000000
F8000000
F8000000
F8000000
F8000000
FC00001E
7E00003F
7F00007E
3F8001FC
1FE003F8
0FF80FF0
03FFFFC0
01FFFF80
007FFE00
000FF000
ENDCHAR
STARTCHAR 0066
ENCODING 102
SWIDTH 265 0
DWIDTH 35 0
BBX 32 86 7 0
BITMAP
000FF000
007FFC00
01FFFF00
03FFFFC0
07F81FE0
0FE003F0
1F8001F8
3F0000FC
7E00007E
FC00003F
F8000010
F8000000
F8000000
F8000000
F8000000
F8000000
F8000000
F8000000
F8000000
F8000000
F8000000
F8000000
F8000000
F8000000
F8000000
F8000000
F8000000
FFFFFE00
FFFFFE00
FFFFFE00
FFFFFE00
F8000000
F8000000
F8000000
F8000000
F8000000
F8000000
F8000000
F8000000
F8000000
F8000000
F8000000
F8000000
F8000000
F8000000
F8000000
F8000000
F8000000
F8000000
F8000000
F8000000
F8000000
F8000000
F8000000
F8000000
F8000000
F8000000
F8000000
F8000000
F8000000
F8000000
F8000000
F8000000
F8000000
F8000000
F8000000
F8000000
F8000000
F8000000
F8000000
F8000000
F8000000
F8000000
F8000000
F8000000
F8000000
F8000000
F8000000
F8000000
F8000000
F8000000
F8000000
F8000000
F8000000
F8000000
F8000000
ENDCHAR
STARTCHAR 0067
ENCODING 103
SWIDTH 348 0
DWIDTH 46 0
BBX 32 86 7 -27
BITMAP
000FF01F
007FFE1F
01FFFF9F
03FFFFDF
07FFFFFF
0FF00FFF
1FC003FF
3F8000FF
7E00007F
FC00003F
F800001F
F800001F
F800001F
F800001F
F800001F
F800001F
F800001F
F800001F
F800001F
F800001F
F800001F
F800001F
F800001F
F800001F
F800001F
F800001F
F800001F
F800001F
F800001F
F800001F
F800001F
F800001F
F800001F
F800001F
F800001F
F800001F
F800001F
F800001F
F800001F
F800001F
F800001F
F800001F
F800001F
F800001F
F800001F
F800001F
F800001F
F800001F
F800001F
FC00003F
FE00007F
7F0000FF
3FC001FF
1FE007FF
0FFFFFFF
03FFFFDF
01FFFF9F
007FFE1F
000FF01F
0000001F
0000001F
0000001F
0000001F
0000001F
0000001F
0000001F
0000001F
0000001F
0000001F
0000001F
0000001F
0000001F
0000001F
0000001F
0000001F
0000001F
0000001F
0000003F
0000007E
000001FC
000003F8
00001FF0
0000FFC0
0000FF80
0000FE00
0000F000
ENDCHAR
STARTCHAR 0068
ENCODING 104
SWIDTH 348 0
DWIDTH 46 0
BBX 32 86 7 0
BITMAP
F8000000
F8000000
F8000000
F8000000
F8000000
F8000000
F8000000
F8000000
F8000000
F8000000
F8000000
F8000000
F8000000
F8000000
F8000000
F8000000
F8000000
F8000000
F8000000
F8000000
F8000000
F8000000
F8000000
F8000000
F8000000
F8000000
F8000000
F807F000
F83FFE00
F8FFFF80
F9FFFFC0
FBF81FF0
FFC003F8
FF8001FC
FF00007E
FE00003E
FC00001F
F800001F
F800001F
F800001F
F800001F
F800001F
F800001F
F800001F
F800001F
F800001F
F800001F
F800001F
F800001F
F800001F
F800001F
F800001F
F800001F
F800001F
F800001F
F800001F
F800001F
F800001F
F800001F
F800001F
F800001F
F800001F
F800001F
F800001F
F800001F
F800001F
F800001F
F800001F
F800001F
F800001F
F800001F
F800001F
F800001F
F800001F
F800001F
F800001F
F800001F
F800001F
F800001F
F800001F
F800001F
F800001F
F800001F
F800001F
F800001F
F800001F
ENDCHAR
STARTCHAR 0069
ENCODING 105
SWIDTH 143 0
DWIDTH 19 0
BBX 5 77 7 0
BITMAP
F8
F8
F8
F8
F8
F8
F8
F8
00
00
00
00
00
00
00
00
00
00
F8
F8
F8
F8
F8
F8
F8
F8
F8
F8
F8
F8
F8
F8
F8
F8
F8
F8
F8
F8
F8
F8
F8
F8
F8
F8
F8
F8
F8
F8
F8
F8
F8
F8
F8
F8
F8
F8
F8
F8
F8
F8
F8
F8
F8
F8
F8
F8
F8
F8
F8
F8
F8
F8
F8
F8
F8
F8
F8
ENDCHAR
STARTCHAR 006A
ENCODING 106
SWIDTH 151 0
DWIDTH 20 0
BBX 16 104 -4 -27
BITMAP
001F
001F
001F
001F
001F
001F
001F
001F
0000
0000
0000
0000
0000
0000
0000
0000
0000
0000
001F
001F
001F
001F
001F
001F
001F
001F
001F
001F
001F
001F
001F
001F
001F
001F
001F
001F
001F
001F
001F
001F
001F
001F
001F
001F
001F
001F
001F
001F
001F
001F
001F
001F
001F
001F
001F
001F
001F
001F
001F
001F
001F
001F
001F
001F
001F
001F
001F
001F
001F
001F
001F
001F
001F
001F
001F
001F
001F
001F
001F
001F
001F
001F
001F
001F
001F
001F
001F
001F
001F
001F
001F
001F
001F
001F
001F
003F
007E
01FC
03F8
1FF0
FFC0
FF80
FE00
F000
ENDCHAR
STARTCHAR 006B
ENCODING 107
SWIDTH 348 0
DWIDTH 46 0
BBX 32 86 7 0
BITMAP
F8000000
F8000000
F8000000
F8000000
F8000000
F8000000
F8000000
F8000000
F8000000
F8000000
F8000000
F8000000
F8000000
F8000000
F8000000
F8000000
F8000000
F8000000
F8000000
F8000000
F8000000
F8000000
F8000000
F8000000
F8000000
F8000000
F8000000
F800001F
F800001F
F800001F
F800001F
F800001F
F800001F
F800001F
F800001F
F800001F
F800001F
F800001F
F800001F
F800001F
F800003F
F800003F
F80000FE
F80001F8
F80003F0
F8001FE0
F80FFF80
F87FFF00
F9FFFF80
FBFFFFC0
FFF81FF0
FFC003F8
FF8001FC
FF00007E
FC00003F
FC00001F
F800001F
F800001F
F800001F
F800001F
F800001F
F800001F
F800001F
F800001F
F800001F
F800001F
F800001F
F800001F
F800001F
F800001F
F800001F
F800001F
F800001F
F800001F
F800001F
F800001F
F800001F
F800001F
F800001F
F800001F
F800001F
F800001F
F800001F
F800001F
F800001F
F800001F
ENDCHAR
STARTCHAR 006C
ENCODING 108
SWIDTH 143 0
DWIDTH 19 0
BBX 5 86 7 0
BITMAP
F8
F8
F8
F8
F8
F8
F8
F8
F8
F8
F8
F8
F8
F8
F8
F8
F8
F8
F8
F8
F8
F8
F8
F8
F8
F8
F8
F8
F8
F8
F8
F8
F8
F8
F8
F8
F8
F8
F8
F8
F8
F8
F8
F8
F8
F8
F8
F8
F8
F8
F8
F8
F8
F8
F8
F8
F8
F8
F8
F8
F8
F8
F8
F8
F8
F8
F8
F8
F8
F8
F8
F8
F8
F8
F8
F8
F8
F8
F8
F8
F8
F8
F8
F8
F8
F8
ENDCHAR
STARTCHAR 006D
ENCODING 109
SWIDTH 553 0
DWIDTH 73 0
BBX 59 59 7 0
BITMAP
F807F00000FE0000
F83FFE0007FFC000
F8FFFF801FFFF000
F9FFFFC03FFFF800
FBF81FE0FF03FE00
FFC003F1F8007F00
FF8001FBF0003F80
FF00007FE0000FC0
FE00003FC00007C0
FC00001F800003E0
F800001F000003E0
F800001F000003E0
F800001F000003E0
F800001F000003E0
F800001F000003E0
F800001F000003E0
F800001F000003E0
F800001F000003E0
F800001F000003E0
F800001F000003E0
F800001F000003E0
F800001F000003E0
F800001F000003E0
F800001F000003E0
F800001F000003E0
F800001F000003E0
F800001F000003E0
F800001F000003E0
F800001F000003E0
F800001F000003E0
F800001F000003E0
F800001F000003E0
F800001F000003E0
F800001F000003E0
F800001F000003E0
F800001F000003E0
F800001F000003E0
F800001F000003E0
F800001F000003E0
F800001F000003E0
F800001F000003E0
F800001F000003E0
F800001F000003E0
F800001F000003E0
F800001F000003E0
F800001F000003E0
F800001F000003E0
F800001F000003E0
F800001F000003E0
F800001F000003E0
F800001F000003E0
F800001F000003E0
F800001F000003E0
F800001F000003E0
F800001F000003E0
F800001F000003E0
F800001F000003E0
F800001F000003E0
F800001F000003E0
ENDCHAR
STARTCHAR 006E
ENCODING 110
SWIDTH 348 0
DWIDTH 46 0
BBX 32 59 7 0
BITMAP
F807F000
F83FFE00
F8FFFF80
F9FFFFC0
FBF81FF0
FFC003F8
FF8001FC
FF00007E
FE00003E
FC00001F
F800001F
F800001F
F800001F
F800001F
F800001F
F800001F
F800001F
F800001F
F800001F
F800001F
F800001F
F800001F
F800001F
F800001F
F800001F
F800001F
F800001F
F800001F
F800001F
F800001F
F800001F
F800001F
F800001F
F800001F
F800001F
F800001F
F800001F
F800001F
F800001F
F800001F
F800001F
F800001F
F800001F
F800001F
F800001F
F800001F
F800001F
F800001F
F800001F
F800001F
F800001F
F800001F
F800001F
F800001F
F800001F
F800001F
F800001F
F800001F
F800001F
ENDCHAR
STARTCHAR 006F
ENCODING 111
SWIDTH 348 0
DWIDTH 46 0
BBX 32 59 7 0
BITMAP
000FF000
007FFE00
00FFFF80
03FFFFC0
07F81FE0
0FE003F8
1F8001FC
3F00007E
7E00003E
FC00001F
F800001F
F800001F
F800001F
F800001F
F800001F
F800001F
F800001F
F800001F
F800001F
F800001F
F800001F
F800001F
F800001F
F800001F
F800001F
F800001F
F800001F
F800001F
F800001F
F800001F
F800001F
F800001F
F800001F
F800001F
F800001F
F800001F
F800001F
F800001F
F800001F
F800001F
F800001F
F800001F
F800001F
F800001F
F800001F
F800001F
F800001F
F800001F
F800001F
FC00001F
7E00003F
7F00007E
3F8001FC
1FC003F8
0FF81FF0
03FFFFC0
01FFFF80
007FFE00
000FF000
ENDCHAR
STARTCHAR 0070
ENCODING 112
SWIDTH 348 0
DWIDTH 46 0
BBX 32 86 7 -27
BITMAP
F80FF000
F87FFE00
F9FFFF80
FBFFFFC0
FFFFFFF0
FFF00FF8
FFC003FC
FF8000FE
FE00007E
FC00003F
F800001F
F800001F
F800001F
F800001F
F800001F
F800001F
F800001F
F800001F
F800001F
F800001F
F800001F
F800001F
F800001F
F800001F
F800001F
F800001F
F800001F
F800001F
F800001F
F800001F
F800001F
F800001F
F800001F
F800001F
F800001F
F800001F
F800001F
F800001F
F800001F
F800001F
F800001F
F800001F
F800001F
F800001F
F800001F
F800001F
F800001F
F800001F
F800001F
FC00003F
FE00007F
FF0000FE
FFC001FC
FFE007F8
FFFFFFF0
FBFFFFE0
F9FFFF80
F87FFE00
F80FF000
F8000000
F8000000
F8000000
F8000000
F8000000
F8000000
F8000000
F8000000
F8000000
F8000000
F8000000
F8000000
F8000000
F8000000
F8000000
F8000000
F8000000
F8000000
F8000000
F8000000
F8000000
F8000000
F8000000
F8000000
F8000000
F8000000
F8000000
ENDCHAR
STARTCHAR 0071
ENCODING 113
SWIDTH 348 0
DWIDTH 46 0
BBX 32 86 7 -27
BITMAP
000FF01F
007FFE1F
01FFFF9F
03FFFFDF
07FFFFFF
0FF00FFF
1FC003FF
3F8000FF
7E00007F
FC00003F
F800001F
F800001F
F800001F
F800001F
F800001F
F800001F
F800001F
F800001F
F800001F
F800001F
F800001F
F800001F
F800001F
F800001F
F800001F
F800001F
F800001F
F800001F
F800001F
F800001F
F800001F
F800001F
F800001F
F800001F
F800001F
F800001F
F800001F
F800001F
F800001F
F800001F
F800001F
F800001F
F800001F
F800001F
F800001F
F800001F
F800001F
F800001F
F800001F
FC00003F
FE00007F
7F0000FF
3FC001FF
1FE007FF
0FFFFFFF
03FFFFDF
01FFFF9F
007FFE1F
000FF01F
0000001F
0000001F
0000001F
0000001F
0000001F
0000001F
0000001F
0000001F
0000001F
0000001F
0000001F
0000001F
0000001F
0000001F
0000001F
0000001F
0000001F
0000001F
0000001F
0000001F
0000001F
0000001F
0000001F
0000001F
0000001F
0000001F
0000001F
ENDCHAR
STARTCHAR 0072
ENCODING 114
SWIDTH 310 0
DWIDTH 41 0
BBX 32 59 7 0
BITMAP
F807F000
F83FFE00
F8FFFF00
F9FFFFC0
FBF81FE0
FFE003F0
FF8001F8
FF0000FC
FE00007E
FC00003F
F8000010
F8000000
F8000000
F8000000
F8000000
F8000000
F8000000
F8000000
F8000000
F8000000
F8000000
F8000000
F8000000
F8000000
F8000000
F8000000
F8000000
F8000000
F8000000
F8000000
F8000000
F8000000
F8000000
F8000000
F8000000
F8000000
F8000000
F8000000
F8000000
F8000000
F8000000
F8000000
F8000000
F8000000
F8000000
F8000000
F8000000
F8000000
F8000000
F8000000
F8000000
F8000000
F8000000
F8000000
F8000000
F8000000
F8000000
F8000000
F8000000
ENDCHAR
STARTCHAR 0073
ENCODING 115
SWIDTH 348 0
DWIDTH 46 0
BBX 32 59 7 0
BITMAP
000FF000
007FFE00
00FFFF80
03FFFFC0
07F81FE0
0FE003F8
1F8001FC
3F0000FE
7E00007E
FC00003F
F8000018
F8000000
F8000000
F8000000
F8000000
F8000000
F8000000
F8000000
F8000000
F8000000
F8000000
F8000000
FC000000
7E000000
3F800000
1FC00000
0FF80000
07FFF000
01FFFE00
007FFF80
000FFFC0
00001FE0
000003F8
000001FC
000000FC
0000003E
0000003F
0000001F
0000001F
0000001F
0000001F
0000001F
0000001F
0000001F
0000001F
0000001F
0000001F
0000001F
0000001F
7800003F
7C00003F
7F0000FE
3F8001FC
1FC003F8
07F81FF0
03FFFFC0
01FFFF80
007FFE00
000FF000
ENDCHAR
STARTCHAR 0074
ENCODING 116
SWIDTH 257 0
DWIDTH 34 0
BBX 23 77 7 0
BITMAP
F80000
F80000
F80000
F80000
F80000
F80000
F80000
F80000
F80000
F80000
F80000
F80000
F80000
F80000
F80000
F80000
F80000
F80000
F80000
FFFFFE
FFFFFE
FFFFFE
FFFFFE
F80000
F80000
F80000
F80000
F80000
F80000
F80000
F80000
F80000
F80000
F80000
F80000
F80000
F80000
F80000
F80000
F80000
F80000
F80000
F80000
F80000
F80000
F80000
F80000
F80000
F80000
F80000
F80000
F80000
F80000
F80000
F80000
F80000
F80000
F80000
F80000
F80000
F80000
F80000
F80000
F80000
F80000
F80000
F80000
FC0000
7E0000
7F0000
3F8000
1FC000
0FF800
03FF00
01FF00
007F00
000F00
ENDCHAR
STARTCHAR 0075
ENCODING 117
SWIDTH 348 0
DWIDTH 46 0
BBX 32 59 7 0
BITMAP
F800001F
F800001F
F800001F
F800001F
F800001F
F800001F
F800001F
F800001F
F800001F
F800001F
F800001F
F800001F
F800001F
F800001F
F800001F
F800001F
F800001F
F800001F
F800001F
F800001F
F800001F
F800001F
F800001F
F800001F
F800001F
F800001F
F800001F
F800001F
F800001F
F800001F
F800001F
F800001F
F800001F
F800001F
F800001F
F800001F
F800001F
F800001F
F800001F
F800001F
F800001F
F800001F
F800001F
F800001F
F800001F
F800001F
F800001F
F800001F
F800001F
FC00003F
7E00007F
7F0000FF
3FC001FF
1FF007FF
0FFFFFFF
03FFFFDF
01FFFF9F
007FFE1F
000FF01F
ENDCHAR
STARTCHAR 0076
ENCODING 118
SWIDTH 303 0
DWIDTH 40 0
BBX 31 59 5 0
BITMAP
F000001E
F000001E
F000003E
F000003C
7800003C
7800003C
7800003C
78000078
7C000078
3C000078
3C000078
3C0000F8
3C0000F0
1E0000F0
1E0000F0
1E0001F0
1E0001E0
0F0001E0
0F0001E0
0F0001E0
0F0003C0
0F8003C0
078003C0
078003C0
078007C0
07800780
03C00780
03C00780
03C00F80
03C00F00
01E00F00
01E00F00
01E00F00
01E01E00
01F01E00
00F01E00
00F01E00
00F03E00
00F03C00
00783C00
00783C00
00787C00
00787800
003C7800
003C7800
003C7800
003CF000
003EF000
001EF000
001EF000
001FF000
001FE000
000FE000
000FE000
000FE000
000FC000
0007C000
0007C000
0007C000
ENDCHAR
STARTCHAR 0077
ENCODING 119
SWIDTH 515 0
DWIDTH 68 0
BBX 59 59 4 0
BITMAP
F800001F000003E0
F800001F000003E0
F800001F000003E0
F800001F000003E0
F800001F000003E0
F800001F000003E0
F800001F000003E0
F800001F000003E0
F800001F000003E0
F800001F000003E0
F800001F000003E0
F800001F000003E0
F800001F000003E0
F800001F000003E0
F800001F000003E0
F800001F000003E0
F800001F000003E0
F800001F000003E0
F800001F000003E0
F800001F000003E0
F800001F000003E0
F800001F000003E0
F800001F000003E0
F800001F000003E0
F800001F000003E0
F800001F000003E0
F800001F000003E0
F800001F000003E0
F800001F000003E0
F800001F000003E0
F800001F000003E0
F800001F000003E0
F800001F000003E0
F800001F000003E0
F800001F000003E0
F800001F000003E0
F800001F000003E0
F800001F000003E0
F800001F000003E0
F800001F000003E0
F800001F000003E0
F800001F000003E0
F800001F000003E0
F800001F000003E0
F800001F000003E0
F800001F000003E0
F800001F000003E0
F800001F000003E0
F800001F000003E0
FC00001F800003E0
7E00003FC00007E0
3F00007FE0000FC0
1F8000FFF0001F80
0FE003F9FC007F00
07F80FF0FF01FE00
03FFFFC03FFFFC00
00FFFF801FFFF000
007FFE0007FFC000
000FF00000FE0000
ENDCHAR
STARTCHAR 0078
ENCODING 120
SWIDTH 318 0
DWIDTH 42 0
BBX 31 59 5 -1
BITMAP
F000001E
F800003C
7800003C
7800007C
3C000078
3C0000F8
3E0000F0
1E0001F0
1F0001E0
0F0003E0
0F8003C0
078007C0
07C00780
03C00780
03E00F80
01E00F00
01E01F00
00F01E00
00F03E00
00F83C00
00787C00
007C7800
003CF800
003EF000
001EF000
001FE000
000FE000
000FE000
0007C000
0007C000
0007C000
000FC000
000FE000
001FE000
001FF000
003EF000
003CF800
003C7800
007C7C00
00783C00
00F83C00
00F01E00
01F01E00
01E01F00
03E00F00
03C00F80
07C00780
078007C0
0F8003C0
0F0003E0
0F0001E0
1F0001F0
1E0000F0
3E0000F0
3C0000F8
7C000078
7800007C
F800003C
F000003E
ENDCHAR
STARTCHAR 0079
ENCODING 121
SWIDTH 348 0
DWIDTH 46 0
BBX 32 86 7 -27
BITMAP
F800001F
F800001F
F800001F
F800001F
F800001F
F800001F
F800001F
F800001F
F800001F
F800001F
F800001F
F800001F
F800001F
F800001F
F800001F
F800001F
F800001F
F800001F
F800001F
F800001F
F800001F
F800001F
F800001F
F800001F
F800001F
F800001F
F800001F
F800001F
F800001F
F800001F
F800001F
F800001F
F800001F
F800001F
F800001F
F800001F
F800001F
F800001F
F800001F
F800001F
F800001F
F800001F
F800001F
F800001F
F800001F
F800001F
F800001F
F800001F
F800001F
FC00003F
7E00007F
7F0000FF
3FC001FF
1FF007FF
0FFFFFFF
03FFFFDF
01FFFF9F
007FFE1F
000FF01F
0000001F
0000001F
0000001F
0000001F
0000001F
0000001F
0000001F
0000001F
0000001F
0000001F
0000001F
0000001F
0000001F
0000001F
0000001F
0000001F
0000001F
0000001F
0000003F
0000007E
000001FC
000003F8
00001FF0
0000FFC0
0000FF80
0000FE00
0000F000
ENDCHAR
STARTCHAR 007A
ENCODING 122
SWIDTH 348 0
DWIDTH 46 0
BBX 32 59 7 0
BITMAP
000FF000
007FFC00
00FFFF00
03FFFFC0
07F81FE0
0FE003F0
1F8001F8
3F0000FC
7E00007E
FC00003F
0800003E
0000003E
0000007C
00000078
000000F8
000001F0
000001E0
000003E0
000007C0
00000780
00000F80
00001F00
00001E00
00003E00
00007C00
00007C00
0000F800
0001F000
0001F000
0003E000
0007C000
0007C000
000F8000
001F0000
001F0000
003E0000
003C0000
007C0000
00F80000
00F00000
01F00000
03E00000
03C00000
07C00000
0F800000
0F800000
1F000000
3E000000
3E000000
7C00003E
7E00007E
3F0000FC
1F8001F8
0FC003F0
03F81FE0
01FFFFC0
00FFFF00
003FFE00
0007F000
ENDCHAR
STARTCHAR 007B
ENCODING 123
SWIDTH 310 0
DWIDTH 41 0
BBX 27 112 7 -13
BITMAP
000001E0
00000FE0
00003FE0
00007FE0
0001FF00
0003F800
0007F000
000FE000
001FC000
001F8000
001F0000
001F0000
001F0000
001F0000
001F0000
001F0000
001F0000
001F0000
001F0000
001F0000
001F0000
001F0000
001F0000
001F0000
001F0000
001F0000
001F0000
001F0000
001F0000
001F0000
001F0000
001F0000
001F0000
001F0000
001F0000
001F0000
001F0000
001F0000
001F0000
001F0000
001F0000
001F0000
001F0000
001F0000
001F0000
001F0000
001F0000
001F0000
001F0000
003F0000
007E0000
01FC0000
03F80000
1FF00000
FFE00000
FF800000
FF800000
FFC00000
1FF00000
03F80000
01FC0000
007E0000
003F0000
001F0000
001F0000
001F0000
001F0000
001F0000
001F0000
001F0000
001F0000
001F0000
001F0000
001F0000
001F0000
001F0000
001F0000
001F0000
001F0000
001F0000
001F0000
001F0000
001F0000
001F0000
001F0000
001F0000
001F0000
001F0000
001F0000
001F0000
001F0000
001F0000
001F0000
001F0000
001F0000
001F0000
001F0000
001F0000
001F0000
001F0000
001F0000
001F0000
001F0000
001F8000
000FE000
0007F000
0003F800
0001FF00
00007FE0
00003FE0
00000FE0
000001E0
ENDCHAR
STARTCHAR 007C
ENCODING 124
SWIDTH 143 0
DWIDTH 19 0
BBX 5 112 7 -13
BITMAP
F8
F8
F8
F8
F8
F8
F8
F8
F8
F8
F8
F8
F8
F8
F8
F8
F8
F8
F8
F8
F8
F8
F8
F8
F8
F8
F8
F8
F8
F8
F8
F8
F8
F8
F8
F8
F8
F8
F8
F8
F8
F8
F8
F8
F8
F8
F8
F8
F8
F8
F8
F8
F8
F8
F8
F8
F8
F8
F8
F8
F8
F8
F8
F8
F8
F8
F8
F8
F8
F8
F8
F8
F8
F8
F8
F8
F8
F8
F8
F8
F8
F8
F8
F8
F8
F8
F8
F8
F8
F8
F8
F8
F8
F8
F8
F8
F8
F8
F8
F8
F8
F8
F8
F8
F8
F8
F8
F8
F8
F8
F8
F8
ENDCHAR
STARTCHAR 007D
ENCODING 125
SWIDTH 310 0
DWIDTH 41 0
BBX 27 112 7 -13
BITMAP
F0000000
FE000000
FF800000
FFC00000
1FF00000
03F80000
01FC0000
007E0000
003F0000
001F0000
001F0000
001F0000
001F0000
001F0000
001F0000
001F0000
001F0000
001F0000
001F0000
001F0000
001F0000
001F0000
001F0000
001F0000
001F0000
001F0000
001F0000
001F0000
001F0000
001F0000
001F0000
001F0000
001F0000
001F0000
001F0000
001F0000
001F0000
001F0000
001F0000
001F0000
001F0000
001F0000
001F0000
001F0000
001F0000
001F0000
001F0000
001F0000
001F0000
001F8000
000FE000
0007F000
0003F800
0001FF00
0000FFE0
00003FE0
00001FE0
00007FE0
0000FF00
0001F800
0007F000
0007E000
000FC000
001F8000
001F0000
001F0000
001F0000
001F0000
001F0000
001F0000
001F0000
001F0000
001F0000
001F0000
001F0000
001F0000
001F0000
001F0000
001F0000
001F0000
001F0000
001F0000
001F0000
001F0000
001F0000
001F0000
001F0000
001F0000
001F0000
001F0000
001F0000
001F0000
001F0000
001F0000
001F0000
001F0000
001F0000
001F0000
001F0000
001F0000
001F0000
001F0000
001F0000
003F0000
007E0000
01FC0000
03F80000
1FF00000
FFE00000
FF800000
FE000000
F0000000
ENDCHAR
STARTCHAR 007E
ENCODING 126
SWIDTH 469 0
DWIDTH 62 0
BBX 48 13 7 37
BITMAP
007F80000000
07FFF0000000
07FFF8000008
0FFFFE00001C
1F80FF00001E
3E001F80003F
3E000FE0007E
7C0003F000FC
F80001FE00F8
300000FFFFF8
1000007FFFF0
0000001FFFE0
00000003FF00
ENDCHAR
STARTCHAR 00A0
ENCODING 160
SWIDTH 1030 0
DWIDTH 136 0
BBX 122 106 7 0
BITMAP
00070000000000700000000000000000
000FC000000000DC0000000000000000
00184000030001040000100000000000
00180000030001040000100000000000
00180000030001040000100000000000
00180000030001040000100000000000
00180707C3F00104821E1F0E00000000
001808C4230001848221103100000000
001F0844230001848221102080000000
00100844230002848221102080000000
00100844230002C48221102080000000
00100844230002448221102180000000
00100844230002648221103F00000000
00100844230002648221102000000000
00100844230002248221102000000000
00100844230002348221102000000000
001008442300011CC621103100000000
00100784230000F83A1E101E00000000
00000000000000080000000000000000
00000000000000040000000000000000
00000000000000880000000000000000
00000000000000300000000000000000
00000000000000000000000000000000
00000000000000000000000000000000
00000000000000000000000000000000
00000000000000000000000000000000
00000000000000000000000000000000
00000000000000000000000000000000
00000000000000000000000000000000
00000000000000000000000000000000
40000010000000000000000000000000
40000010000000000000000000000000
40001010000000000000000000000000
40000010000000000000000000000000
800000100000000232C0000000000000
9F0F11F1E00211E2333003C4407C0000
91101312100212123200046442420000
91101312100212123200046442420000
91101312100212123200046442420000
91081312100212123200046441420000
91071313E00212123200046441420000
91009312000212123200046441420000
91009312000212123200046441420000
91009312000212123200046461420000
900F11F1C001F1E1F20003C3DE420000
00000000000010000000000000000000
00000000000010000000000000000000
00000000000010000000000000000000
00000000000010000000000000000000
00000000000060000000000000000000
00000000000000000000000000000000
00000000000000000000000000000000
00000000000000000000000000000000
00000000000000000000000000000000
00000000000000000000000000000000
00000000000000000000000000000000
00000000000000000000000000000000
00000000000000000000000000000000
00000000000000000000000000000000
00000008000000000000000000000000
00040008000000000000000000000000
00000008000000000000000000000000
00000008000000000000000000000000
FB84F078000F078001C783C003838B80
8CC4C888000C98400626442006444C40
08448888000890400426442004004840
084488880008905FE426442004004840
0844888800089040042644200403C840
0844888800089040042247E004044840
084488880008904004224800040C4840
084488880008904004244800040C4840
084488880008904004244800040C4840
084488F840088F8003C444400247C840
08448000800800000000438001804840
00000000800000000000000000000000
00000000000000000000000000000000
00000000000000000000000000000000
00000000000000000000000000000000
00000000000000000000000000000000
00000000000000000000000000000000
00000000000000000000000000000000
00000000000000000000000000000000
00000000000000000000000000000000
00000000000000000000000000000000
00000000000000000000000000000000
00000000000000000000000000000000
80000000000000000010000000000000
80000000000000000010000000000000
80000000000000000010000000000000
80000000000000000010000000000000
80000000000000000010000000000000
F07878F80109E11000F3E1E1E3EE0000
88848480010B11100113121232310000
88840480010A11100213021032210000
88840480010A11100213021032210000
88CC7C80010A111002130331F2210000
88F88C80010A1110021103E272210000
08810480010A11100209020432210000
08810480010A11100209020432210000
08810480010B11100119022432210000
08708C8000F9E1F000E903C272210000
00007000000800000000000180200000
00000000000800000000000000000000
00000000000800000000000000000000
00000000001800000000000000000000
00000000003000000000000000000000
ENDCHAR
STARTCHAR 00A1
ENCODING 161
SWIDTH 143 0
DWIDTH 19 0
BBX 5 85 7 -13
BITMAP
F8
F8
F8
F8
F8
F8
F8
F8
00
00
00
00
00
00
00
00
00
00
00
00
00
00
F8
F8
F8
F8
F8
F8
F8
F8
F8
F8
F8
F8
F8
F8
F8
F8
F8
F8
F8
F8
F8
F8
F8
F8
F8
F8
F8
F8
F8
F8
F8
F8
F8
F8
F8
F8
F8
F8
F8
F8
F8
F8
F8
F8
F8
F8
F8
F8
F8
F8
F8
F8
F8
F8
F8
F8
F8
F8
F8
F8
F8
F8
F8
ENDCHAR
STARTCHAR 00A2
ENCODING 162
SWIDTH 348 0
DWIDTH 46 0
BBX 32 59 7 0
BITMAP
0003E000
0003E000
0003E000
0003E000
0003E000
001FF800
007FFF00
01FFFF80
03FFFFE0
0FFFFFF0
1FE3E3F8
3FC3E1FC
7F03E07C
7E03E03E
FC03E01C
F803E000
F803E000
F803E000
F803E000
F803E000
F803E000
F803E000
F803E000
F803E000
F803E000
F803E000
F803E000
F803E000
F803E000
F803E000
F803E000
F803E000
F803E000
F803E000
F803E000
F803E000
F803E000
F803E000
F803E000
F803E000
F803E000
F803E000
F803E000
F803E000
F803E018
FC03E03F
7F03E07E
3F83E0FC
1FE3E3F8
0FFBEFF0
07FFFFE0
01FFFFC0
00FFFF00
001FFC00
0003E000
0003E000
0003E000
0003E000
0003E000
ENDCHAR
STARTCHAR 00A3
ENCODING 163
SWIDTH 348 0
DWIDTH 46 0
BBX 32 86 7 0
BITMAP
000FF000
007FFC00
01FFFF00
03FFFFC0
07F81FE0
0FC007F0
1F8001F8
3E0000FC
7C00007E
F800003F
F8000010
F8000000
F8000000
F8000000
F8000000
F8000000
F8000000
F8000000
F8000000
F8000000
F8000000
F8000000
F8000000
F8000000
F8000000
F8000000
F8000000
F8000000
F8000000
F8000000
F8000000
F8000000
FFFFFE00
FFFFFE00
FFFFFE00
FFFFFE00
F8000000
F8000000
F8000000
F8000000
F8000000
F8000000
F8000000
F8000000
F8000000
F8000000
FFFFFE00
FFFFFE00
FFFFFE00
FFFFFE00
F8000000
F8000000
F8000000
F8000000
F8000000
F8000000
F8000000
F8000000
F8000000
F8000000
F8000000
F8000000
F8000000
F8000000
F8000000
F8000000
F8000000
F8000000
F8000000
F8000000
F8000000
F8000000
F8000000
F8000000
F8000000
F8000000
F8000000
7C000000
3E000000
1F800000
0FC00000
07F80000
0FFFFFFF
1FFFFFFF
3FFFFFFF
7FFFFFFF
ENDCHAR
STARTCHAR 00A4
ENCODING 164
SWIDTH 446 0
DWIDTH 59 0
BBX 45 44 7 23
BITMAP
000000000040
3000000000E0
7800000001F0
FC001FE003F0
7E00FFFC07E0
3F03FFFF0FC0
1F87FFFFDF80
0FCFFFFFFF00
07FFE01FFE00
03FF8007F800
01FE0001F800
00FC0000FC00
01F800007E00
01F000003E00
01F000003E00
01F000003E00
01F000003E00
01F000003E00
01F000003E00
01F000003E00
01F000003E00
01F000003E00
01F000003E00
01F000003E00
01F000003E00
01F000003E00
01F000003E00
01F000003E00
01F000003E00
01F000003E00
01F000003E00
01F000003E00
01F000003E00
01F800003E00
00FC00007C00
01FE0000FE00
03FF0003FF00
07DF8007FF80
0F8FF03FCFC0
1F07FFFF87E0
7E01FFFE03F0
FC00FFF801F8
78001FE000F0
300000000060
ENDCHAR
STARTCHAR 00A5
ENCODING 165
SWIDTH 348 0
DWIDTH 46 0
BBX 32 86 7 0
BITMAP
F800001F
F800001F
F800001F
F800001F
F800001F
F800001F
F800001F
F800001F
F800001F
F800001F
F800001F
F800001F
F800001F
F800001F
F800001F
F800001F
F800001F
F800001F
F800001F
F800001F
F800001F
F800001F
F800001F
F800001F
F800001F
F800001F
F800001F
F800001F
F800001F
F800001F
F800001F
FC00003F
7E00007F
7F8001FE
3FC003FC
1FF81FF8
07FFFFF0
03FFFFE0
01FFFF80
007FFF00
000FF800
0003E000
0003E000
0003E000
0003E000
0003E000
0003E000
0003E000
0003E000
0003E000
0003E000
0003E000
0003E000
0003E000
0003E000
FFFFFFFF
FFFFFFFF
FFFFFFFF
FFFFFFFF
0003E000
0003E000
0003E000
0003E000
0003E000
0003E000
0003E000
0003E000
0003E000
0003E000
FFFFFFFF
FFFFFFFF
FFFFFFFF
FFFFFFFF
0003E000
0003E000
0003E000
0003E000
0003E000
0003E000
0003E000
0003E000
0003E000
0003E000
0003E000
0003E000
0003E000
ENDCHAR
STARTCHAR 00A6
ENCODING 166
SWIDTH 143 0
DWIDTH 19 0
BBX 5 94 7 -1
BITMAP
F8
F8
F8
F8
F8
F8
F8
F8
F8
F8
F8
F8
F8
F8
F8
F8
F8
F8
F8
F8
F8
F8
F8
F8
F8
F8
F8
F8
F8
F8
F8
F8
F8
F8
F8
F8
F8
F8
F8
F8
F8
F8
F8
00
00
00
00
00
00
00
00
F8
F8
F8
F8
F8
F8
F8
F8
F8
F8
F8
F8
F8
F8
F8
F8
F8
F8
F8
F8
F8
F8
F8
F8
F8
F8
F8
F8
F8
F8
F8
F8
F8
F8
F8
F8
F8
F8
F8
F8
F8
F8
F8
ENDCHAR
STARTCHAR 00A7
ENCODING 167
SWIDTH 348 0
DWIDTH 46 0
BBX 32 86 7 -12
BITMAP
000FF000
007FFE00
01FFFF80
03FFFFC0
0FF81FF0
1FE003F8
3F8001FC
7F00007E
FE00003F
FC00001E
F8000000
F8000000
F8000000
F8000000
F8000000
F8000000
F8000000
F8000000
F8000000
F8000000
F8000000
FC000000
FE000000
7F000000
3F800000
1FE00000
0FF80000
07FFF000
01FFFE00
01FFFF80
03FFFFE0
07F81FF0
1FC003F8
3F8001FC
7F0000FE
7E00007F
FC00003F
F800001F
F800001F
F800001F
F800001F
F800001F
F800001F
F800001F
F800001F
F800001F
F800001F
F800001F
F800001F
FC00003F
7E00003E
3F0000FC
1F8001F8
0FC003F0
07F81FE0
03FFFF80
01FFFF00
007FFFC0
000FFFE0
00001FF8
000003FC
000001FE
0000007F
0000003F
0000001F
0000001F
0000001F
0000001F
0000001F
0000001F
0000001F
0000001F
0000001F
0000001F
0000001F
0800001F
FC00001F
7E00003E
3F00007C
1F8001FC
0FE003F8
07F81FE0
03FFFFC0
00FFFF80
007FFE00
000FF000
ENDCHAR
STARTCHAR 00A8
ENCODING 168
SWIDTH 242 0
DWIDTH 32 0
BBX 18 9 7 72
BITMAP
F807C0
F807C0
F807C0
F807C0
F807C0
F807C0
F807C0
F807C0
F807C0
ENDCHAR
STARTCHAR 00A9
ENCODING 169
SWIDTH 356 0
DWIDTH 47 0
BBX 33 56 7 28
BITMAP
0380007000
0F80007C00
3F80007E00
7F80007F00
FC00001F80
F000000780
E003E00380
E00FF80380
E01FFE0380
E03FFF0380
E07C1F0380
E0F00F8380
E0E0060380
E0E0000380
E0E0000380
E0E0000380
E0E0000380
E0E0000380
E0E0000380
E0E0000380
E0E0000380
E0E0000380
E0E0000380
E0E0000380
E0E0000380
E0E0000380
E0E0000380
E0E0000380
E0E0000380
E0E0000380
E0E0000380
E0E0000380
E0E0000380
E0E0000380
E0E0000380
E0E0000380
E0E0000380
E0E0000380
E0E0000380
E0E0000380
E0E0000380
E0E0000380
E0E0000380
E0E0070380
E0F00F8380
E07C1F8380
E03FFF0380
E01FFE0380
E00FF80380
E003E00380
F000000780
FC00000F80
7F80007F00
3F80007E00
1F80007C00
0380007000
ENDCHAR
STARTCHAR 00AA
ENCODING 170
SWIDTH 348 0
DWIDTH 46 0
BBX 32 45 7 41
BITMAP
000FF000
007FFE00
01FFFF80
03FFFFE0
0FF81FF0
1FC003F8
3F8001FC
7E00007E
FC00003F
3800001F
0000001F
0000001F
0000001F
0000001F
0000001F
0000001F
000FF01F
007FFE1F
01FFFF9F
07FFFFDF
0FF81FFF
1FE003FF
3F8001FF
7F00007F
FE00003F
FC00001F
F800001F
F800001F
F800001F
F800001F
F800001F
F800001F
F800001F
F800001F
F800001F
FC00003F
FE00007F
7F0000FF
3F8001FF
1FE007FF
0FFE7FFF
03FFFFDF
01FFFF9F
007FFE1F
000FF01F
ENDCHAR
STARTCHAR 00AB
ENCODING 171
SWIDTH 356 0
DWIDTH 47 0
BBX 33 31 7 23
BITMAP
0001000000
0003000180
0007000380
000F000780
001F000F80
007E001F00
00FC007E00
01FC00FE00
03F801FC00
07F003F800
1FE007F000
3FC01FE000
7F803FE000
FF807FC000
FF007F8000
FE007F0000
FF007F8000
FF807FC000
7F803FC000
3FC01FE000
1FE00FF000
07F003F800
03F001FC00
01F800FC00
00FC007E00
007E003F00
003F000F80
000F000780
0007000380
0003000180
0001000080
ENDCHAR
STARTCHAR 00AC
ENCODING 172
SWIDTH 431 0
DWIDTH 57 0
BBX 43 16 7 25
BITMAP
FFFFFFFFE000
FFFFFFFFF000
FFFFFFFFF800
FFFFFFFFFC00
000000007E00
000000003E00
000000001F00
000000001F80
000000000F80
000000000FC0
0000000007C0
0000000007C0
0000000003E0
0000000003E0
0000000003E0
0000000003E0
ENDCHAR
STARTCHAR 00AD
ENCODING 173
SWIDTH 416 0
DWIDTH 55 0
BBX 41 5 7 36
BITMAP
FFFFFFFFFF80
FFFFFFFFFF80
FFFFFFFFFF80
FFFFFFFFFF80
FFFFFFFFFF80
ENDCHAR
STARTCHAR 00AE
ENCODING 174
SWIDTH 356 0
DWIDTH 47 0
BBX 33 56 7 28
BITMAP
038000E000
0F8000FC00
3F8000FE00
7F8000FF00
FC00001F80
F000000780
E0FFE00380
E0FFF80380
E0FFFE0380
E0FFFF0380
E0E01F0380
E0E0078380
E0E0038380
E0E0038380
E0E0038380
E0E0038380
E0E0038380
E0E0038380
E0E0038380
E0E0038380
E0E0038380
E0E0038380
E0E0078380
E0E01F0380
E0FFFE0380
E0FFFC0380
E0FFFC0380
E0FFFF0380
E0E01F8380
E0E0078380
E0E0038380
E0E0038380
E0E0038380
E0E0038380
E0E0038380
E0E0038380
E0E0038380
E0E0038380
E0E0038380
E0E0038380
E0E0038380
E0E0038380
E0E0038380
E0E0038380
E0E0038380
E0E0038380
E0E0038380
E0E0038380
E0E0038380
E000000380
F000000780
FC00001F80
7F8000FF00
3F8000FE00
1F8000FC00
038000F000
ENDCHAR
STARTCHAR 00B0
ENCODING 176
SWIDTH 280 0
DWIDTH 37 0
BBX 23 33 7 57
BITMAP
00FE00
03FF80
07FFC0
07FFE0
0F83E0
0F01F0
1F01F0
1E00F0
3E00F8
3E0078
3C007C
7C007C
FC003E
F8003E
F8003E
F8003E
F8003E
F8003E
F8003E
F8003E
7C007E
7C007C
7C007C
3E00F8
3E00F8
1E00F0
1F01F0
1F01E0
0F83E0
07FFC0
07FFC0
03FF80
00FE00
ENDCHAR
STARTCHAR 00B1
ENCODING 177
SWIDTH 416 0
DWIDTH 55 0
BBX 41 51 7 8
BITMAP
00003E000000
00003E000000
00003E000000
00003E000000
00003E000000
00003E000000
00003E000000
00003E000000
00003E000000
00003E000000
00003E000000
00003E000000
00003E000000
00003E000000
00003E000000
00003E000000
00003E000000
00003E000000
FFFFFFFFFF80
FFFFFFFFFF80
FFFFFFFFFF80
FFFFFFFFFF80
00003E000000
00003E000000
00003E000000
00003E000000
00003E000000
00003E000000
00003E000000
00003E000000
00003E000000
00003E000000
00003E000000
00003E000000
00003E000000
00003E000000
00003E000000
00003E000000
00003E000000
00003E000000
000000000000
000000000000
000000000000
000000000000
000000000000
000000000000
000000000000
FFFFFFFFFF80
FFFFFFFFFF80
FFFFFFFFFF80
FFFFFFFFFF80
ENDCHAR
STARTCHAR 00B2
ENCODING 178
SWIDTH 272 0
DWIDTH 36 0
BBX 22 60 7 26
BITMAP
00FC00
03FF80
0FFFC0
1FFFE0
3F03F0
7C00F8
F0007C
E0001C
E0001C
E0001C
00001C
00001C
00001C
00001C
00001C
00001C
00001C
00001C
00001C
00001C
00001C
00001C
00003C
0000F8
0003F0
00FFE0
03FFC0
0FFF80
1FFC00
3F0000
7C0000
F80000
F00000
E00000
E00000
E00000
E00000
E00000
E00000
E00000
E00000
E00000
E00000
E00000
E00000
E00000
E00000
E00000
E00000
E00000
E00000
E00000
F00000
F8003C
7C00F8
3F03F8
1FFFE0
0FFFC0
03FF80
00FC00
ENDCHAR
STARTCHAR 00B3
ENCODING 179
SWIDTH 272 0
DWIDTH 36 0
BBX 22 60 7 26
BITMAP
00FC00
03FF80
0FFFC0
1FFFE0
3F03F0
7C00F8
F0007C
E0001C
E0001C
E0001C
00001C
00001C
00001C
00001C
00001C
00001C
00001C
00001C
00001C
00001C
00001C
00001C
00003C
000078
0001F0
000FE0
000FC0
000FC0
000FE0
0001F0
000078
00003C
00001C
00001C
00001C
00001C
00001C
00001C
00001C
00001C
00001C
00001C
00001C
00001C
00001C
00001C
00001C
00001C
00001C
00001C
E0001C
E0001C
E0001C
F0007C
7C00F8
3F03F8
1FFFE0
0FFFC0
03FF80
00FC00
ENDCHAR
STARTCHAR 00B4
ENCODING 180
SWIDTH 234 0
DWIDTH 31 0
BBX 17 18 7 69
BITMAP
000F80
001F00
001E00
003E00
007C00
00F800
00F800
01F000
03E000
03E000
07C000
0F8000
0F8000
1F0000
3E0000
3C0000
7C0000
F80000
ENDCHAR
STARTCHAR 00B5
ENCODING 181
SWIDTH 348 0
DWIDTH 46 0
BBX 32 76 7 -17
BITMAP
F800001F
F800001F
F800001F
F800001F
F800001F
F800001F
F800001F
F800001F
F800001F
F800001F
F800001F
F800001F
F800001F
F800001F
F800001F
F800001F
F800001F
F800001F
F800001F
F800001F
F800001F
F800001F
F800001F
F800001F
F800001F
F800001F
F800001F
F800001F
F800001F
F800001F
F800001F
F800001F
F800001F
F800001F
F800001F
F800001F
F800001F
F800001F
F800001F
F800001F
F800001F
F800001F
F800001F
F800001F
F800001F
F800001F
F800001F
F800001F
F800001F
FC00003F
FE00007F
FF0000FE
FFC001FC
FFF007F8
FFFFFFE0
FBFFFFC0
F9FFFF00
F87FFC00
F80FF000
F800F800
F800F800
F8007C00
F8007E00
F8003F00
F8001FC0
F8000FF0
F80007FE
F80001FE
F800007E
F800001E
F8000000
F8000000
F8000000
F8000000
F8000000
F8000000
ENDCHAR
STARTCHAR 00B6
ENCODING 182
SWIDTH 363 0
DWIDTH 48 0
BBX 34 92 7 -8
BITMAP
000FFFFFC0
007FFFFFC0
01FFFFFFC0
07FFFFFFC0
0FFFFF87C0
1FFFFF87C0
3FFFFF87C0
7FFFFF87C0
FFFFFF87C0
FFFFFF87C0
FFFFFF87C0
FFFFFF87C0
FFFFFF87C0
FFFFFF87C0
FFFFFF87C0
FFFFFF87C0
FFFFFF87C0
FFFFFF87C0
FFFFFF87C0
FFFFFF87C0
FFFFFF87C0
FFFFFF87C0
FFFFFF87C0
FFFFFF87C0
FFFFFF87C0
FFFFFF87C0
FFFFFF87C0
FFFFFF87C0
FFFFFF87C0
FFFFFF87C0
FFFFFF87C0
FFFFFF87C0
7FFFFF87C0
3FFFFF87C0
1FFFFF87C0
0FFFFF87C0
07FFFF87C0
03FFFF87C0
01FFFF87C0
007FFF87C0
000FFF87C0
00000F87C0
00000F87C0
00000F87C0
00000F87C0
00000F87C0
00000F87C0
00000F87C0
00000F87C0
00000F87C0
00000F87C0
00000F87C0
00000F87C0
00000F87C0
00000F87C0
00000F87C0
00000F87C0
00000F87C0
00000F87C0
00000F87C0
00000F87C0
00000F87C0
00000F87C0
00000F87C0
00000F87C0
00000F87C0
00000F87C0
00000F87C0
00000F87C0
00000F87C0
00000F87C0
00000F87C0
00000F87C0
00000F87C0
00000F87C0
00000F87C0
00000F87C0
00000F87C0
00000F87C0
00000F87C0
00000F87C0
00000F87C0
00000F87C0
00000F87C0
00000F87C0
00000F87C0
00000F87C0
00000F87C0
00000F87C0
00000F87C0
00000F87C0
00000F87C0
ENDCHAR
STARTCHAR 00B7
ENCODING 183
SWIDTH 143 0
DWIDTH 19 0
BBX 5 9 7 36
BITMAP
F8
F8
F8
F8
F8
F8
F8
F8
F8
ENDCHAR
STARTCHAR 00B8
ENCODING 184
SWIDTH 227 0
DWIDTH 30 0
BBX 16 28 7 -24
BITMAP
F800
F800
F800
F800
F800
FE00
FF80
FFC0
1FF0
03F8
01FC
00FE
007F
003F
001F
001F
001F
001F
003F
007F
00FE
01FC
03F8
1FF0
FFC0
FF80
FE00
F000
ENDCHAR
STARTCHAR 00B9
ENCODING 185
SWIDTH 272 0
DWIDTH 36 0
BBX 22 60 7 26
BITMAP
003800
003800
003800
003800
003800
003800
003800
003800
003800
003800
003800
003800
003800
003800
003800
003800
003800
003800
003800
003800
003800
003800
003800
003800
003800
003800
003800
003800
003800
003800
003800
003800
003800
003800
003800
003800
003800
003800
003800
003800
003800
003800
003800
003800
003800
003800
003800
003800
003800
003800
003800
003800
003800
F0383C
7C3878
3E38F8
1FFFF0
0FFFC0
03FF80
00FC00
ENDCHAR
STARTCHAR 00BA
ENCODING 186
SWIDTH 280 0
DWIDTH 37 0
BBX 23 25 7 65
BITMAP
007E00
01FF80
03FFC0
07FFE0
0FC3E0
1F81F0
3F00F8
7E007C
7C003E
FC003E
F8001E
F8003E
F8003E
F8003E
F8003E
FC003E
7C007E
3E00FC
3F00F8
1F81F0
0FC3E0
07FFC0
03FF80
01FF00
007C00
ENDCHAR
STARTCHAR 00BB
ENCODING 187
SWIDTH 356 0
DWIDTH 47 0
BBX 33 30 7 23
BITMAP
8000400000
C000600000
E000700000
F000780000
F8007E0000
7E003F0000
3F001F8000
1F800FC000
1FC007E000
0FE007F800
07F803FC00
03FC01FE00
01FE00FF00
00FF007F80
00FF003F80
007F003F80
00FF003F80
00FF007F80
01FE00FF00
03FC01FE00
07F803FC00
07F003F800
0FC007F000
1F800FC000
3F001F8000
7E001F0000
7C003E0000
78003C0000
6000380000
4000200000
ENDCHAR
STARTCHAR 00BC
ENCODING 188
SWIDTH 659 0
DWIDTH 87 0
BBX 72 86 7 1
BITMAP
003800000001F00000
003800000001E00000
003800000001E00000
003800000003E00000
003800000003C00000
003800000003C00000
003800000007C00000
003800000007800000
003800000007800000
003800000007800000
00380000000F000000
00380000000F000000
00380000000F000000
00380000001E000000
00380000001E000000
00380000001E000000
00380000003E000000
00380000003C000000
00380000003C000000
00380000007C000000
003800000078000000
003800000078000000
0038000000F8000000
0038000000F0000000
0038000000F0000000
0038000001F0000000
0038000001E0001E00
0038000001E0001E00
0038000001E0003E00
0038000003C0003C00
0038000003C0003C00
0038000003C0003C00
0038000007C0007800
003800000780007800
003800000780007800
003800000F80007800
003800000F0000F000
003800000F0000F000
003800001F0000F000
003800001E0001F000
003800001E0001E000
003800003E0001E000
003800003C0001E1C0
003800003C0003E1C0
003800007C0003C1C0
00380000780003C1C0
00380000780003C1C0
00380000780007C1C0
00380000F0000781C0
00380000F0000781C0
00380000F0000781C0
00380001F0000F81C0
00380001E0000F01C0
F0383C01E0000F01C0
7C387803E0000F01C0
3E38F803C0001F01C0
1FFFF003C0001E01C0
0FFFC007C0001E01C0
03FF800780001E01C0
00FC000780003C01C0
0000000F80003C01C0
0000000F00001C01C0
0000000F00001C01C0
0000000F00001C01C0
0000001E00001C01C0
0000001E00001C01C0
0000001E00001E01C6
0000003C00001F81CF
0000003C00000FE1DE
0000003C000007FFFC
0000007C000001FFF8
00000078000000FFF0
000000780000003FC0
000000F800000001C0
000000F000000001C0
000000F000000001C0
000001F000000001C0
000001E000000001C0
000001E000000001C0
000003E000000001C0
000003C000000001C0
000003C000000001C0
000003C000000001C0
0000078000000001C0
0000078000000001C0
0000078000000001C0
ENDCHAR
STARTCHAR 00BD
ENCODING 189
SWIDTH 666 0
DWIDTH 88 0
BBX 74 86 7 1
BITMAP
003800000001F0000000
003800000001E0000000
003800000001E0000000
003800000003E0000000
003800000003C0000000
003800000003C0000000
003800000007C0000000
00380000000780000000
00380000000780000000
00380000000780000000
00380000000F00000000
00380000000F00000000
00380000000F00000000
00380000001E00000000
00380000001E00000000
00380000001E00000000
00380000003E00000000
00380000003C00000000
00380000003C00000000
00380000007C00000000
00380000007800000000
00380000007800000000
0038000000F800000000
0038000000F000000000
0038000000F000000000
0038000001F000000000
0038000001E00007E000
0038000001E0003FF800
0038000001E0007FFC00
0038000003C000FFFF00
0038000003C001F83F00
0038000003C003E00F80
0038000007C0078003C0
003800000780070001C0
003800000780070001C0
003800000F80070001C0
003800000F00000001C0
003800000F00000001C0
003800001F00000001C0
003800001E00000001C0
003800001E00000001C0
003800003E00000001C0
003800003C00000001C0
003800003C00000001C0
003800007C00000001C0
003800007800000001C0
003800007800000001C0
003800007800000003C0
00380000F00000000FC0
00380000F00000003F80
00380000F0000007FF00
00380001F000001FFE00
00380001E000007FF800
F0383C01E00000FFE000
7C387803E00001F80000
3E38F803C00001E00000
1FFFF003C00003C00000
0FFFC007C00007800000
03FF8007800007000000
00FC0007800007000000
0000000F800007000000
0000000F000007000000
0000000F000007000000
0000000F000007000000
0000001E000007000000
0000001E000007000000
0000001E000007000000
0000003C000007000000
0000003C000007000000
0000003C000007000000
0000007C000007000000
00000078000007000000
00000078000007000000
000000F8000007000000
000000F0000007000000
000000F0000007000000
000001F0000007000000
000001E0000007000000
000001E0000007800000
000003E0000007C003C0
000003C0000003E00780
000003C0000001F81F80
000003C0000000FFFF00
000007800000007FFC00
000007800000003FF800
0000078000000007E000
ENDCHAR
STARTCHAR 00BE
ENCODING 190
SWIDTH 666 0
DWIDTH 88 0
BBX 74 86 7 -1
BITMAP
00FC0000000078000000
03FF8000000078000000
0FFFC0000000F8000000
1FFFE0000000F0000000
3F03F0000000F0000000
7C00F8000000F0000000
F0007C000001E0000000
E0001C000001E0000000
E0001C000001E0000000
E0001C000003C0000000
00001C000003C0000000
00001C000003C0000000
00001C000007C0000000
00001C00000780000000
00001C00000780000000
00001C00000F80000000
00001C00000F00000000
00001C00000F00000000
00001C00001F00000000
00001C00001E00000000
00001C00001E00000000
00001C00003E00000000
00003C00003C00000000
0000F800003C00000000
0003F000003C00000000
001FC000007800000000
001F8000007800078000
001F8000007800078000
001FE00000F8000F0000
0003F00000F0000F0000
0000F80000F0000F0000
00003C0001F0001F0000
00001C0001E0001E0000
00001C0001E0001E0000
00001C0003E0001E0000
00001C0003C0003C0000
00001C0003C0003C0000
00001C0007C0003C0000
00001C000780007C0000
00001C00078000780000
00001C000F8000780000
00001C000F0000F80000
00001C000F0000F07000
00001C000F0000F07000
00001C001E0000F07000
00001C001E0001F07000
00001C001E0001E07000
00001C003E0001E07000
00001C003C0003E07000
00001C003C0003C07000
E0001C007C0003C07000
E0001C00780003C07000
E0001C00780007C07000
F0007C00F80007807000
7C00F800F00007807000
3F03F800F0000F807000
1FFFE001F0000F007000
0FFFC001E0000F007000
03FF8001E0000F007000
00FC0001E0001F007000
00000003C0001E007000
00000003C0000E007000
00000003C0000E007000
0000000780000E007000
0000000780000E007000
0000000780000E007000
0000000F80000F007180
0000000F00000FC073C0
0000000F000007F07780
0000001F000001FFFF00
0000001E000000FFFE00
0000001E0000003FF800
0000003E0000000FF000
0000003C000000007000
0000003C000000007000
0000007C000000007000
00000078000000007000
00000078000000007000
00000078000000007000
000000F0000000007000
000000F0000000007000
000000F0000000007000
000001F0000000007000
000001E0000000007000
000001E0000000007000
000003E0000000007000
ENDCHAR
STARTCHAR 00BF
ENCODING 191
SWIDTH 348 0
DWIDTH 46 0
BBX 31 85 7 -13
BITMAP
000F8000
000F8000
000F8000
000F8000
000F8000
000F8000
000F8000
000F8000
00000000
00000000
00000000
00000000
00000000
00000000
00000000
00000000
00000000
00000000
00000000
00000000
00000000
00000000
000F8000
000F8000
000F8000
000F8000
000F8000
000F8000
000F8000
000F8000
000F8000
000F8000
000F8000
000F8000
000F8000
000F8000
000F8000
000F8000
000F8000
000F8000
000F8000
000F8000
000F8000
000F8000
000F8000
003F8000
00FF8000
03FF8000
07FF8000
0FF80000
1FC00000
3F800000
7F000000
FE000000
FC000000
F8000000
F8000000
F8000000
F8000000
F8000000
F8000000
F8000000
F8000000
F8000000
F8000000
F8000000
F8000000
F8000000
F8000000
F8000000
F8000000
F8000000
F8000000
F8000000
F8000000
FC00003C
FE00003E
7F00007C
3F8001F8
1FC003F0
0FF81FE0
03FFFFC0
01FFFF80
007FFE00
000FF000
ENDCHAR
STARTCHAR 00C0
ENCODING 192
SWIDTH 348 0
DWIDTH 46 0
BBX 32 105 7 0
BITMAP
01F00000
00F80000
007C0000
003E0000
001F0000
000F8000
0007C000
0007E000
0003F000
0001F800
0000FC00
00007E00
00003E00
00001F00
00000000
00000000
00000000
00000000
00000000
000FF000
007FFE00
01FFFF80
03FFFFC0
07F81FE0
0FE003F8
1F8001FC
3F00007E
7E00003E
FC00001F
F800001F
F800001F
F800001F
F800001F
F800001F
F800001F
F800001F
F800001F
F800001F
F800001F
F800001F
F800001F
F800001F
F800001F
F800001F
F800001F
F800001F
F800001F
F800001F
F800001F
F800001F
F800001F
F800001F
F800001F
F800001F
F800001F
F800001F
FFFFFFFF
FFFFFFFF
FFFFFFFF
FFFFFFFF
F800001F
F800001F
F800001F
F800001F
F800001F
F800001F
F800001F
F800001F
F800001F
F800001F
F800001F
F800001F
F800001F
F800001F
F800001F
F800001F
F800001F
F800001F
F800001F
F800001F
F800001F
F800001F
F800001F
F800001F
F800001F
F800001F
F800001F
F800001F
F800001F
F800001F
F800001F
F800001F
F800001F
F800001F
F800001F
F800001F
F800001F
F800001F
F800001F
F800001F
F800001F
F800001F
F800001F
F800001F
F800001F
ENDCHAR
STARTCHAR 00C1
ENCODING 193
SWIDTH 348 0
DWIDTH 46 0
BBX 32 105 7 0
BITMAP
00001F80
00001F00
00003E00
00007C00
0000F800
0001F000
0003E000
0007C000
000FC000
001F8000
003F0000
007E0000
00FC0000
00F80000
00000000
00000000
00000000
00000000
00000000
000FF000
007FFE00
01FFFF80
03FFFFC0
07F81FE0
0FE003F8
1F8001FC
3F00007E
7E00003E
FC00001F
F800001F
F800001F
F800001F
F800001F
F800001F
F800001F
F800001F
F800001F
F800001F
F800001F
F800001F
F800001F
F800001F
F800001F
F800001F
F800001F
F800001F
F800001F
F800001F
F800001F
F800001F
F800001F
F800001F
F800001F
F800001F
F800001F
F800001F
FFFFFFFF
FFFFFFFF
FFFFFFFF
FFFFFFFF
F800001F
F800001F
F800001F
F800001F
F800001F
F800001F
F800001F
F800001F
F800001F
F800001F
F800001F
F800001F
F800001F
F800001F
F800001F
F800001F
F800001F
F800001F
F800001F
F800001F
F800001F
F800001F
F800001F
F800001F
F800001F
F800001F
F800001F
F800001F
F800001F
F800001F
F800001F
F800001F
F800001F
F800001F
F800001F
F800001F
F800001F
F800001F
F800001F
F800001F
F800001F
F800001F
F800001F
F800001F
F800001F
ENDCHAR
STARTCHAR 00C2
ENCODING 194
SWIDTH 348 0
DWIDTH 46 0
BBX 32 105 7 0
BITMAP
0003E000
0007E000
000FF000
000FF800
001FF800
003E7C00
003C3C00
007C3E00
00F81F00
00F00F00
01F00F80
03E007C0
03C003C0
07C003E0
00000000
00000000
00000000
00000000
00000000
000FF000
007FFE00
01FFFF80
03FFFFC0
07F81FE0
0FC003F8
1F8001FC
3E00007E
7C00003E
F800001F
F800001F
F800001F
F800001F
F800001F
F800001F
F800001F
F800001F
F800001F
F800001F
F800001F
F800001F
F800001F
F800001F
F800001F
F800001F
F800001F
F800001F
F800001F
F800001F
F800001F
F800001F
F800001F
F800001F
F800001F
F800001F
F800001F
F800001F
FFFFFFFF
FFFFFFFF
FFFFFFFF
FFFFFFFF
F800001F
F800001F
F800001F
F800001F
F800001F
F800001F
F800001F
F800001F
F800001F
F800001F
F800001F
F800001F
F800001F
F800001F
F800001F
F800001F
F800001F
F800001F
F800001F
F800001F
F800001F
F800001F
F800001F
F800001F
F800001F
F800001F
F800001F
F800001F
F800001F
F800001F
F800001F
F800001F
F800001F
F800001F
F800001F
F800001F
F800001F
F800001F
F800001F
F800001F
F800001F
F800001F
F800001F
F800001F
F800001F
ENDCHAR
STARTCHAR 00C3
ENCODING 195
SWIDTH 348 0
DWIDTH 46 0
BBX 32 101 7 0
BITMAP
00FC0000
07FF8038
1FFFE1FC
3FFFFFFE
7F87FFF8
1E00FFE0
08001F00
00000000
00000000
00000000
00000000
00000000
00000000
00000000
00000000
000FF000
007FFE00
01FFFF80
03FFFFC0
07F81FE0
0FE003F8
1F8001FC
3F00007E
7E00003E
FC00001F
F800001F
F800001F
F800001F
F800001F
F800001F
F800001F
F800001F
F800001F
F800001F
F800001F
F800001F
F800001F
F800001F
F800001F
F800001F
F800001F
F800001F
F800001F
F800001F
F800001F
F800001F
F800001F
F800001F
F800001F
F800001F
F800001F
F800001F
FFFFFFFF
FFFFFFFF
FFFFFFFF
FFFFFFFF
F800001F
F800001F
F800001F
F800001F
F800001F
F800001F
F800001F
F800001F
F800001F
F800001F
F800001F
F800001F
F800001F
F800001F
F800001F
F800001F
F800001F
F800001F
F800001F
F800001F
F800001F
F800001F
F800001F
F800001F
F800001F
F800001F
F800001F
F800001F
F800001F
F800001F
F800001F
F800001F
F800001F
F800001F
F800001F
F800001F
F800001F
F800001F
F800001F
F800001F
F800001F
F800001F
F800001F
F800001F
F800001F
ENDCHAR
STARTCHAR 00C4
ENCODING 196
SWIDTH 348 0
DWIDTH 46 0
BBX 32 101 7 0
BITMAP
01F00F80
01F00F80
01F00F80
01F00F80
01F00F80
01F00F80
01F00F80
01F00F80
00000000
00000000
00000000
00000000
00000000
00000000
00000000
000FF000
007FFE00
01FFFF80
03FFFFC0
07F81FE0
0FE003F8
1F8001FC
3F00007E
7E00003E
FC00001F
F800001F
F800001F
F800001F
F800001F
F800001F
F800001F
F800001F
F800001F
F800001F
F800001F
F800001F
F800001F
F800001F
F800001F
F800001F
F800001F
F800001F
F800001F
F800001F
F800001F
F800001F
F800001F
F800001F
F800001F
F800001F
F800001F
F800001F
FFFFFFFF
FFFFFFFF
FFFFFFFF
FFFFFFFF
F800001F
F800001F
F800001F
F800001F
F800001F
F800001F
F800001F
F800001F
F800001F
F800001F
F800001F
F800001F
F800001F
F800001F
F800001F
F800001F
F800001F
F800001F
F800001F
F800001F
F800001F
F800001F
F800001F
F800001F
F800001F
F800001F
F800001F
F800001F
F800001F
F800001F
F800001F
F800001F
F800001F
F800001F
F800001F
F800001F
F800001F
F800001F
F800001F
F800001F
F800001F
F800001F
F800001F
F800001F
F800001F
ENDCHAR
STARTCHAR 00C5
ENCODING 197
SWIDTH 348 0
DWIDTH 46 0
BBX 32 105 7 0
BITMAP
0007C000
001FF000
003FF800
007FFC00
00FC7E00
01F01F00
03F00F80
07E00FC0
0FC007E0
0F8003E0
0F8003E0
0F8003E0
0F8003E0
0F8003E0
0F8003E0
0FC007E0
0FE00FE0
07E00FC0
03F01F80
01FFFF00
00FFFE00
01FFFF80
03FFFFC0
07FFFFE0
0FF81FF8
1FC003FC
3F8001FE
7F00007E
FC00003F
F800001F
F800001F
F800001F
F800001F
F800001F
F800001F
F800001F
F800001F
F800001F
F800001F
F800001F
F800001F
F800001F
F800001F
F800001F
F800001F
F800001F
F800001F
F800001F
F800001F
F800001F
F800001F
F800001F
F800001F
F800001F
F800001F
F800001F
FFFFFFFF
FFFFFFFF
FFFFFFFF
FFFFFFFF
F800001F
F800001F
F800001F
F800001F
F800001F
F800001F
F800001F
F800001F
F800001F
F800001F
F800001F
F800001F
F800001F
F800001F
F800001F
F800001F
F800001F
F800001F
F800001F
F800001F
F800001F
F800001F
F800001F
F800001F
F800001F
F800001F
F800001F
F800001F
F800001F
F800001F
F800001F
F800001F
F800001F
F800001F
F800001F
F800001F
F800001F
F800001F
F800001F
F800001F
F800001F
F800001F
F800001F
F800001F
F800001F
ENDCHAR
STARTCHAR 00C6
ENCODING 198
SWIDTH 553 0
DWIDTH 73 0
BBX 59 86 7 0
BITMAP
000FF00001FE0000
007FFE000FFF8000
01FFFF803FFFE000
03FFFFC0FFFFF800
07F81FF1FF03FC00
0FC003FBFC007E00
1F8001FFF0003F00
3F00007FE0001F80
7E00003FC0000FC0
FC00001F800007E0
F800001F00000200
F800001F00000000
F800001F00000000
F800001F00000000
F800001F00000000
F800001F00000000
F800001F00000000
F800001F00000000
F800001F00000000
F800001F00000000
F800001F00000000
F800001F00000000
F800001F00000000
F800001F00000000
F800001F00000000
F800001F00000000
F800001F00000000
F800001F00000000
F800001F00000000
F800001F00000000
F800001F00000000
F800001F00000000
F800001F00000000
F800001F00000000
F800001F00000000
F800001F00000000
FFFFFFFFFFFFC000
FFFFFFFFFFFFC000
FFFFFFFFFFFFC000
FFFFFFFFFFFFC000
F800001F00000000
F800001F00000000
F800001F00000000
F800001F00000000
F800001F00000000
F800001F00000000
F800001F00000000
F800001F00000000
F800001F00000000
F800001F00000000
F800001F00000000
F800001F00000000
F800001F00000000
F800001F00000000
F800001F00000000
F800001F00000000
F800001F00000000
F800001F00000000
F800001F00000000
F800001F00000000
F800001F00000000
F800001F00000000
F800001F00000000
F800001F00000000
F800001F00000000
F800001F00000000
F800001F00000000
F800001F00000000
F800001F00000000
F800001F00000000
F800001F00000000
F800001F00000000
F800001F00000000
F800001F00000000
F800001F00000000
F800001F00000000
F800001F800007C0
F800000FC00007C0
F800000FE0000F80
F8000007F0003F00
F8000003FC007E00
F8000001FF03FC00
F80000007FFFF800
F80000003FFFE000
F80000000FFFC000
F800000001FE0000
ENDCHAR
STARTCHAR 00C7
ENCODING 199
SWIDTH 348 0
DWIDTH 46 0
BBX 32 110 7 -24
BITMAP
000FF000
007FFC00
01FFFF00
03FFFFC0
07F81FE0
0FE003F0
1F8001F8
3F0000FC
7E00007E
FC00003F
F8000010
F8000000
F8000000
F8000000
F8000000
F8000000
F8000000
F8000000
F8000000
F8000000
F8000000
F8000000
F8000000
F8000000
F8000000
F8000000
F8000000
F8000000
F8000000
F8000000
F8000000
F8000000
F8000000
F8000000
F8000000
F8000000
F8000000
F8000000
F8000000
F8000000
F8000000
F8000000
F8000000
F8000000
F8000000
F8000000
F8000000
F8000000
F8000000
F8000000
F8000000
F8000000
F8000000
F8000000
F8000000
F8000000
F8000000
F8000000
F8000000
F8000000
F8000000
F8000000
F8000000
F8000000
F8000000
F8000000
F8000000
F8000000
F8000000
F8000000
F8000000
F8000000
F8000000
F8000000
F8000000
F8000000
FC00003E
7E00003E
7F0000FC
3F8001F8
1FC003F0
07F81FE0
03FFFFC0
00FFFF80
003FFE00
001FF000
001F0000
001FC000
001FF000
001FF800
0001FE00
00007F00
00003F80
00001FC0
00000FE0
000007E0
000003E0
000003E0
000003E0
000003E0
000007E0
00000FE0
00001FC0
00003F80
00007F00
0001FE00
001FFC00
001FF000
001FC000
001E0000
ENDCHAR
STARTCHAR 00C8
ENCODING 200
SWIDTH 348 0
DWIDTH 46 0
BBX 32 105 7 0
BITMAP
01F00000
00F80000
007C0000
003E0000
001F0000
000F8000
0007C000
0007E000
0003F000
0001F800
0000FC00
00007E00
00003E00
00001F00
00000000
00000000
00000000
00000000
00000000
000FF000
007FFC00
01FFFF00
03FFFFC0
07F81FE0
0FE003F0
1F8001F8
3F0000FC
7E00007E
FC00003F
F8000010
F8000000
F8000000
F8000000
F8000000
F8000000
F8000000
F8000000
F8000000
F8000000
F8000000
F8000000
F8000000
F8000000
F8000000
F8000000
F8000000
F8000000
F8000000
F8000000
F8000000
F8000000
F8000000
F8000000
F8000000
F8000000
F8000000
FFFFFE00
FFFFFE00
FFFFFE00
FFFFFE00
F8000000
F8000000
F8000000
F8000000
F8000000
F8000000
F8000000
F8000000
F8000000
F8000000
F8000000
F8000000
F8000000
F8000000
F8000000
F8000000
F8000000
F8000000
F8000000
F8000000
F8000000
F8000000
F8000000
F8000000
F8000000
F8000000
F8000000
F8000000
F8000000
F8000000
F8000000
F8000000
F8000000
F8000000
F8000000
FC00003E
7E00007E
7F0000FC
3F8001F8
1FC003F0
0FF81FE0
03FFFFC0
01FFFF00
007FFE00
000FF000
ENDCHAR
STARTCHAR 00C9
ENCODING 201
SWIDTH 348 0
DWIDTH 46 0
BBX 32 105 7 0
BITMAP
00001F80
00001F00
00003E00
00007C00
0000F800
0001F000
0003E000
0007C000
000FC000
001F8000
003F0000
007E0000
00FC0000
00F80000
00000000
00000000
00000000
00000000
00000000
000FF000
007FFC00
01FFFF00
03FFFFC0
07F81FE0
0FE003F0
1F8001F8
3F0000FC
7E00007E
FC00003F
F8000010
F8000000
F8000000
F8000000
F8000000
F8000000
F8000000
F8000000
F8000000
F8000000
F8000000
F8000000
F8000000
F8000000
F8000000
F8000000
F8000000
F8000000
F8000000
F8000000
F8000000
F8000000
F8000000
F8000000
F8000000
F8000000
F8000000
FFFFFE00
FFFFFE00
FFFFFE00
FFFFFE00
F8000000
F8000000
F8000000
F8000000
F8000000
F8000000
F8000000
F8000000
F8000000
F8000000
F8000000
F8000000
F8000000
F8000000
F8000000
F8000000
F8000000
F8000000
F8000000
F8000000
F8000000
F8000000
F8000000
F8000000
F8000000
F8000000
F8000000
F8000000
F8000000
F8000000
F8000000
F8000000
F8000000
F8000000
F8000000
FC00003E
7E00007E
7F0000FC
3F8001F8
1FC003F0
0FF81FE0
03FFFFC0
01FFFF00
007FFE00
000FF000
ENDCHAR
STARTCHAR 00CA
ENCODING 202
SWIDTH 348 0
DWIDTH 46 0
BBX 32 105 7 0
BITMAP
0003E000
0007E000
000FF000
000FF800
001F7800
003E7C00
003E3C00
007C1E00
00F81F00
00F80F00
01F00780
03E007C0
03C003C0
07C001E0
00000000
00000000
00000000
00000000
00000000
000FF000
007FFC00
01FFFF00
03FFFFC0
07F81FE0
0FC007F0
1F8001F8
3E0000FC
7C00007E
F800003F
F8000010
F8000000
F8000000
F8000000
F8000000
F8000000
F8000000
F8000000
F8000000
F8000000
F8000000
F8000000
F8000000
F8000000
F8000000
F8000000
F8000000
F8000000
F8000000
F8000000
F8000000
F8000000
F8000000
F8000000
F8000000
F8000000
F8000000
FFFFFE00
FFFFFE00
FFFFFE00
FFFFFE00
F8000000
F8000000
F8000000
F8000000
F8000000
F8000000
F8000000
F8000000
F8000000
F8000000
F8000000
F8000000
F8000000
F8000000
F8000000
F8000000
F8000000
F8000000
F8000000
F8000000
F8000000
F8000000
F8000000
F8000000
F8000000
F8000000
F8000000
F8000000
F8000000
F8000000
F8000000
F8000000
F8000000
F8000000
F8000000
F800003E
7C00007E
7E0000FC
3F8001F8
1FC007F0
0FF81FE0
03FFFFC0
01FFFF00
007FFE00
000FF000
ENDCHAR
STARTCHAR 00CB
ENCODING 203
SWIDTH 348 0
DWIDTH 46 0
BBX 32 101 7 0
BITMAP
01F00F80
01F00F80
01F00F80
01F00F80
01F00F80
01F00F80
01F00F80
01F00F80
00000000
00000000
00000000
00000000
00000000
00000000
00000000
000FF000
007FFC00
01FFFF00
03FFFFC0
07F81FE0
0FE003F0
1F8001F8
3F0000FC
7E00007E
FC00003F
F8000010
F8000000
F8000000
F8000000
F8000000
F8000000
F8000000
F8000000
F8000000
F8000000
F8000000
F8000000
F8000000
F8000000
F8000000
F8000000
F8000000
F8000000
F8000000
F8000000
F8000000
F8000000
F8000000
F8000000
F8000000
F8000000
F8000000
FFFFFE00
FFFFFE00
FFFFFE00
FFFFFE00
F8000000
F8000000
F8000000
F8000000
F8000000
F8000000
F8000000
F8000000
F8000000
F8000000
F8000000
F8000000
F8000000
F8000000
F8000000
F8000000
F8000000
F8000000
F8000000
F8000000
F8000000
F8000000
F8000000
F8000000
F8000000
F8000000
F8000000
F8000000
F8000000
F8000000
F8000000
F8000000
F8000000
F8000000
F8000000
FC00003E
7E00007E
7F0000FC
3F8001F8
1FC003F0
0FF81FE0
03FFFFC0
01FFFF00
007FFE00
000FF000
ENDCHAR
STARTCHAR 00CC
ENCODING 204
SWIDTH 234 0
DWIDTH 31 0
BBX 17 105 7 0
BITMAP
F80000
7C0000
3E0000
1F0000
1F8000
0FC000
07E000
03F000
01F800
00F800
007C00
003E00
001F00
000F80
000000
000000
000000
000000
000000
03E000
03E000
03E000
03E000
03E000
03E000
03E000
03E000
03E000
03E000
03E000
03E000
03E000
03E000
03E000
03E000
03E000
03E000
03E000
03E000
03E000
03E000
03E000
03E000
03E000
03E000
03E000
03E000
03E000
03E000
03E000
03E000
03E000
03E000
03E000
03E000
03E000
03E000
03E000
03E000
03E000
03E000
03E000
03E000
03E000
03E000
03E000
03E000
03E000
03E000
03E000
03E000
03E000
03E000
03E000
03E000
03E000
03E000
03E000
03E000
03E000
03E000
03E000
03E000
03E000
03E000
03E000
03E000
03E000
03E000
03E000
03E000
03E000
03E000
03E000
03E000
03E000
03E000
03E000
03E000
03E000
03E000
03E000
03E000
03E000
03E000
ENDCHAR
STARTCHAR 00CD
ENCODING 205
SWIDTH 234 0
DWIDTH 31 0
BBX 18 105 7 0
BITMAP
000FC0
001F80
003F00
007E00
00FC00
00F800
01F000
03E000
07C000
0F8000
1F0000
3E0000
7E0000
FC0000
000000
000000
000000
000000
000000
03E000
03E000
03E000
03E000
03E000
03E000
03E000
03E000
03E000
03E000
03E000
03E000
03E000
03E000
03E000
03E000
03E000
03E000
03E000
03E000
03E000
03E000
03E000
03E000
03E000
03E000
03E000
03E000
03E000
03E000
03E000
03E000
03E000
03E000
03E000
03E000
03E000
03E000
03E000
03E000
03E000
03E000
03E000
03E000
03E000
03E000
03E000
03E000
03E000
03E000
03E000
03E000
03E000
03E000
03E000
03E000
03E000
03E000
03E000
03E000
03E000
03E000
03E000
03E000
03E000
03E000
03E000
03E000
03E000
03E000
03E000
03E000
03E000
03E000
03E000
03E000
03E000
03E000
03E000
03E000
03E000
03E000
03E000
03E000
03E000
03E000
ENDCHAR
STARTCHAR 00CE
ENCODING 206
SWIDTH 280 0
DWIDTH 37 0
BBX 22 105 7 0
BITMAP
007C00
00FE00
01FF00
01FF00
03EF80
07CFC0
07C7C0
0F83E0
1F03E0
1E01F0
3E00F8
7C0078
78007C
F8003C
000000
000000
000000
000000
000000
007C00
007C00
007C00
007C00
007C00
007C00
007C00
007C00
007C00
007C00
007C00
007C00
007C00
007C00
007C00
007C00
007C00
007C00
007C00
007C00
007C00
007C00
007C00
007C00
007C00
007C00
007C00
007C00
007C00
007C00
007C00
007C00
007C00
007C00
007C00
007C00
007C00
007C00
007C00
007C00
007C00
007C00
007C00
007C00
007C00
007C00
007C00
007C00
007C00
007C00
007C00
007C00
007C00
007C00
007C00
007C00
007C00
007C00
007C00
007C00
007C00
007C00
007C00
007C00
007C00
007C00
007C00
007C00
007C00
007C00
007C00
007C00
007C00
007C00
007C00
007C00
007C00
007C00
007C00
007C00
007C00
007C00
007C00
007C00
007C00
007C00
ENDCHAR
STARTCHAR 00CF
ENCODING 207
SWIDTH 242 0
DWIDTH 32 0
BBX 18 101 7 0
BITMAP
F807C0
F807C0
F807C0
F807C0
F807C0
F807C0
F807C0
F807C0
000000
000000
000000
000000
000000
000000
000000
01F000
01F000
01F000
01F000
01F000
01F000
01F000
01F000
01F000
01F000
01F000
01F000
01F000
01F000
01F000
01F000
01F000
01F000
01F000
01F000
01F000
01F000
01F000
01F000
01F000
01F000
01F000
01F000
01F000
01F000
01F000
01F000
01F000
01F000
01F000
01F000
01F000
01F000
01F000
01F000
01F000
01F000
01F000
01F000
01F000
01F000
01F000
01F000
01F000
01F000
01F000
01F000
01F000
01F000
01F000
01F000
01F000
01F000
01F000
01F000
01F000
01F000
01F000
01F000
01F000
01F000
01F000
01F000
01F000
01F000
01F000
01F000
01F000
01F000
01F000
01F000
01F000
01F000
01F000
01F000
01F000
01F000
01F000
01F000
01F000
01F000
ENDCHAR
STARTCHAR 00D0
ENCODING 208
SWIDTH 378 0
DWIDTH 50 0
BBX 36 86 7 0
BITMAP
07FFFF0000
07FFFFE000
07FFFFF800
07FFFFFC00
07C000FF00
07C0003F80
07C0001FC0
07C00007E0
07C00003E0
07C00001F0
07C00001F0
07C00001F0
07C00001F0
07C00001F0
07C00001F0
07C00001F0
07C00001F0
07C00001F0
07C00001F0
07C00001F0
07C00001F0
07C00001F0
07C00001F0
07C00001F0
07C00001F0
07C00001F0
07C00001F0
07C00001F0
07C00001F0
07C00001F0
07C00001F0
07C00001F0
07C00001F0
07C00001F0
07C00001F0
07C00001F0
FFFFFE01F0
FFFFFE01F0
FFFFFE01F0
FFFFFE01F0
07C00001F0
07C00001F0
07C00001F0
07C00001F0
07C00001F0
07C00001F0
07C00001F0
07C00001F0
07C00001F0
07C00001F0
07C00001F0
07C00001F0
07C00001F0
07C00001F0
07C00001F0
07C00001F0
07C00001F0
07C00001F0
07C00001F0
07C00001F0
07C00001F0
07C00001F0
07C00001F0
07C00001F0
07C00001F0
07C00001F0
07C00001F0
07C00001F0
07C00001F0
07C00001F0
07C00001F0
07C00001F0
07C00001F0
07C00001F0
07C00001F0
07C00001F0
07C00001F0
07C00003F0
07C00007E0
07C0001FC0
07C0003F80
07C000FF00
07FFFFFE00
07FFFFF800
07FFFFE000
07FFFF0000
ENDCHAR
STARTCHAR 00D1
ENCODING 209
SWIDTH 348 0
DWIDTH 46 0
BBX 32 101 7 0
BITMAP
00FC0000
07FF8038
1FFFE1FC
3FFFFFFE
7F87FFF8
1E00FFE0
08001F00
00000000
00000000
00000000
00000000
00000000
00000000
00000000
00000000
000FF000
007FFE00
01FFFF80
03FFFFC0
07F81FE0
0FC003F8
1F8001FC
3F00007E
7C00003E
F800001F
F800001F
F800001F
F800001F
F800001F
F800001F
F800001F
F800001F
F800001F
F800001F
F800001F
F800001F
F800001F
F800001F
F800001F
F800001F
F800001F
F800001F
F800001F
F800001F
F800001F
F800001F
F800001F
F800001F
F800001F
F800001F
F800001F
F800001F
F800001F
F800001F
F800001F
F800001F
F800001F
F800001F
F800001F
F800001F
F800001F
F800001F
F800001F
F800001F
F800001F
F800001F
F800001F
F800001F
F800001F
F800001F
F800001F
F800001F
F800001F
F800001F
F800001F
F800001F
F800001F
F800001F
F800001F
F800001F
F800001F
F800001F
F800001F
F800001F
F800001F
F800001F
F800001F
F800001F
F800001F
F800001F
F800001F
F800001F
F800001F
F800001F
F800001F
F800001F
F800001F
F800001F
F800001F
F800001F
F800001F
ENDCHAR
STARTCHAR 00D2
ENCODING 210
SWIDTH 348 0
DWIDTH 46 0
BBX 32 105 7 0
BITMAP
01F00000
00F80000
007C0000
003E0000
001F0000
000F8000
0007C000
0007E000
0003F000
0001F800
0000FC00
00007E00
00003E00
00001F00
00000000
00000000
00000000
00000000
00000000
000FF000
007FFE00
01FFFF80
03FFFFC0
07F81FE0
0FC003F8
1F8001FC
3F00007E
7C00003E
FC00001F
F800001F
F800001F
F800001F
F800001F
F800001F
F800001F
F800001F
F800001F
F800001F
F800001F
F800001F
F800001F
F800001F
F800001F
F800001F
F800001F
F800001F
F800001F
F800001F
F800001F
F800001F
F800001F
F800001F
F800001F
F800001F
F800001F
F800001F
F800001F
F800001F
F800001F
F800001F
F800001F
F800001F
F800001F
F800001F
F800001F
F800001F
F800001F
F800001F
F800001F
F800001F
F800001F
F800001F
F800001F
F800001F
F800001F
F800001F
F800001F
F800001F
F800001F
F800001F
F800001F
F800001F
F800001F
F800001F
F800001F
F800001F
F800001F
F800001F
F800001F
F800001F
F800001F
F800001F
F800001F
F800001F
F800001F
FC00001F
7E00003F
7F00007E
3F8001FC
1FC003F8
07F81FF0
03FFFFC0
01FFFF80
007FFE00
000FF000
ENDCHAR
STARTCHAR 00D3
ENCODING 211
SWIDTH 348 0
DWIDTH 46 0
BBX 32 105 7 0
BITMAP
00001F80
00001F00
00003E00
00007C00
0000F800
0001F000
0003E000
0007C000
000FC000
001F8000
003F0000
007E0000
00FC0000
00F80000
00000000
00000000
00000000
00000000
00000000
000FF000
007FFE00
01FFFF80
03FFFFC0
07F81FE0
0FC003F8
1F8001FC
3F00007E
7C00003E
FC00001F
F800001F
F800001F
F800001F
F800001F
F800001F
F800001F
F800001F
F800001F
F800001F
F800001F
F800001F
F800001F
F800001F
F800001F
F800001F
F800001F
F800001F
F800001F
F800001F
F800001F
F800001F
F800001F
F800001F
F800001F
F800001F
F800001F
F800001F
F800001F
F800001F
F800001F
F800001F
F800001F
F800001F
F800001F
F800001F
F800001F
F800001F
F800001F
F800001F
F800001F
F800001F
F800001F
F800001F
F800001F
F800001F
F800001F
F800001F
F800001F
F800001F
F800001F
F800001F
F800001F
F800001F
F800001F
F800001F
F800001F
F800001F
F800001F
F800001F
F800001F
F800001F
F800001F
F800001F
F800001F
F800001F
F800001F
FC00001F
7E00003F
7F00007E
3F8001FC
1FC003F8
07F81FF0
03FFFFC0
01FFFF80
007FFE00
000FF000
ENDCHAR
STARTCHAR 00D4
ENCODING 212
SWIDTH 348 0
DWIDTH 46 0
BBX 32 105 7 0
BITMAP
0003E000
0007E000
000FF000
000FF800
001FF800
003E7C00
003C3C00
007C3E00
00F81F00
00F00F00
01F00F80
03E007C0
03C003C0
07C003E0
00000000
00000000
00000000
00000000
00000000
000FF000
007FFE00
01FFFF80
03FFFFC0
07F81FE0
0FC003F8
1F8001FC
3E00007E
7C00003E
F800001F
F800001F
F800001F
F800001F
F800001F
F800001F
F800001F
F800001F
F800001F
F800001F
F800001F
F800001F
F800001F
F800001F
F800001F
F800001F
F800001F
F800001F
F800001F
F800001F
F800001F
F800001F
F800001F
F800001F
F800001F
F800001F
F800001F
F800001F
F800001F
F800001F
F800001F
F800001F
F800001F
F800001F
F800001F
F800001F
F800001F
F800001F
F800001F
F800001F
F800001F
F800001F
F800001F
F800001F
F800001F
F800001F
F800001F
F800001F
F800001F
F800001F
F800001F
F800001F
F800001F
F800001F
F800001F
F800001F
F800001F
F800001F
F800001F
F800001F
F800001F
F800001F
F800001F
F800001F
F800001F
F800001F
F800001F
F800001F
7C00003F
7E00007E
3F8001FC
1FC003F8
07F81FF0
03FFFFC0
01FFFF80
007FFE00
000FF000
ENDCHAR
STARTCHAR 00D5
ENCODING 213
SWIDTH 348 0
DWIDTH 46 0
BBX 32 101 7 0
BITMAP
00FC0000
07FF8038
1FFFE1FC
3FFFFFFE
7F87FFF8
1E00FFE0
08001F00
00000000
00000000
00000000
00000000
00000000
00000000
00000000
00000000
000FF000
007FFE00
01FFFF80
03FFFFC0
07F81FE0
0FC003F8
1F8001FC
3F00007E
7C00003E
FC00001F
F800001F
F800001F
F800001F
F800001F
F800001F
F800001F
F800001F
F800001F
F800001F
F800001F
F800001F
F800001F
F800001F
F800001F
F800001F
F800001F
F800001F
F800001F
F800001F
F800001F
F800001F
F800001F
F800001F
F800001F
F800001F
F800001F
F800001F
F800001F
F800001F
F800001F
F800001F
F800001F
F800001F
F800001F
F800001F
F800001F
F800001F
F800001F
F800001F
F800001F
F800001F
F800001F
F800001F
F800001F
F800001F
F800001F
F800001F
F800001F
F800001F
F800001F
F800001F
F800001F
F800001F
F800001F
F800001F
F800001F
F800001F
F800001F
F800001F
F800001F
F800001F
F800001F
F800001F
F800001F
F800001F
F800001F
FC00001F
7E00003F
7F00007E
3F8001FC
1FC003F8
07F81FF0
03FFFFC0
01FFFF80
007FFE00
000FF000
ENDCHAR
STARTCHAR 00D6
ENCODING 214
SWIDTH 348 0
DWIDTH 46 0
BBX 32 101 7 0
BITMAP
01F00F80
01F00F80
01F00F80
01F00F80
01F00F80
01F00F80
01F00F80
01F00F80
00000000
00000000
00000000
00000000
00000000
00000000
00000000
000FF000
007FFE00
01FFFF80
03FFFFC0
07F81FE0
0FC003F8
1F8001FC
3F00007E
7C00003E
FC00001F
F800001F
F800001F
F800001F
F800001F
F800001F
F800001F
F800001F
F800001F
F800001F
F800001F
F800001F
F800001F
F800001F
F800001F
F800001F
F800001F
F800001F
F800001F
F800001F
F800001F
F800001F
F800001F
F800001F
F800001F
F800001F
F800001F
F800001F
F800001F
F800001F
F800001F
F800001F
F800001F
F800001F
F800001F
F800001F
F800001F
F800001F
F800001F
F800001F
F800001F
F800001F
F800001F
F800001F
F800001F
F800001F
F800001F
F800001F
F800001F
F800001F
F800001F
F800001F
F800001F
F800001F
F800001F
F800001F
F800001F
F800001F
F800001F
F800001F
F800001F
F800001F
F800001F
F800001F
F800001F
F800001F
F800001F
FC00001F
7E00003F
7F00007E
3F8001FC
1FC003F8
07F81FF0
03FFFFC0
01FFFF80
007FFE00
000FF000
ENDCHAR
STARTCHAR 00D7
ENCODING 215
SWIDTH 348 0
DWIDTH 46 0
BBX 32 31 7 24
BITMAP
00000010
00000038
3000003E
7800007F
FC0000FE
7E0001FC
3F0003F8
1F8007F0
07C007E0
03E00FC0
01F01F80
00F83F00
007C7E00
003E7C00
001FF800
000FF000
0007E000
0007E000
000FF000
000F7800
001E3C00
003C1E00
00700F00
00E00780
00C003C0
018001E0
030000F0
06000078
0C00003C
1800001E
10000006
ENDCHAR
STARTCHAR 00D8
ENCODING 216
SWIDTH 348 0
DWIDTH 46 0
BBX 32 95 7 -5
BITMAP
0000001E
0000001E
0000001E
0000003C
000FF03C
007FFC3C
00FFFF38
03FFFFF8
07F81FF8
0FC007F8
1F8001F8
3E0000FC
7C0000FE
F80000FF
F80001FF
F80001FF
F80001FF
F80001FF
F80003DF
F80003DF
F80003DF
F80007DF
F800079F
F800079F
F800079F
F8000F9F
F8000F1F
F8000F1F
F8001F1F
F8001E1F
F8001E1F
F8001E1F
F8003E1F
F8003C1F
F8003C1F
F8003C1F
F800781F
F800781F
F800781F
F800F81F
F800F01F
F800F01F
F800F01F
F801E01F
F801E01F
F801E01F
F803E01F
F803C01F
F803C01F
F803C01F
F807C01F
F807801F
F807801F
F807801F
F80F001F
F80F001F
F80F001F
F81F001F
F81E001F
F81E001F
F81E001F
F83C001F
F83C001F
F83C001F
F87C001F
F878001F
F878001F
F878001F
F8F8001F
F8F0001F
F8F0001F
F9F0001F
F9E0001F
F9E0001F
F9E0001F
FBE0001F
FBC0001F
FBC0001F
FBC0001F
FF80001F
FF80001F
7F80003F
3F80007E
1F8001FC
0FE003F8
0FF81FF0
1FFFFFE0
1EFFFF80
1E7FFE00
3E0FF000
3C000000
3C000000
3C000000
7C000000
78000000
ENDCHAR
STARTCHAR 00D9
ENCODING 217
SWIDTH 348 0
DWIDTH 46 0
BBX 32 105 7 0
BITMAP
01F00000
00F80000
007C0000
003E0000
001F0000
000F8000
0007C000
0007E000
0003F000
0001F800
0000FC00
00007E00
00003E00
00001F00
00000000
00000000
00000000
00000000
00000000
F800001F
F800001F
F800001F
F800001F
F800001F
F800001F
F800001F
F800001F
F800001F
F800001F
F800001F
F800001F
F800001F
F800001F
F800001F
F800001F
F800001F
F800001F
F800001F
F800001F
F800001F
F800001F
F800001F
F800001F
F800001F
F800001F
F800001F
F800001F
F800001F
F800001F
F800001F
F800001F
F800001F
F800001F
F800001F
F800001F
F800001F
F800001F
F800001F
F800001F
F800001F
F800001F
F800001F
F800001F
F800001F
F800001F
F800001F
F800001F
F800001F
F800001F
F800001F
F800001F
F800001F
F800001F
F800001F
F800001F
F800001F
F800001F
F800001F
F800001F
F800001F
F800001F
F800001F
F800001F
F800001F
F800001F
F800001F
F800001F
F800001F
F800001F
F800001F
F800001F
F800001F
F800001F
F800001F
F800001F
FC00001F
7C00003F
7F00007E
3F8001FC
1FC003F8
07F81FF0
03FFFFC0
01FFFF80
007FFE00
000FF000
ENDCHAR
STARTCHAR 00DA
ENCODING 218
SWIDTH 348 0
DWIDTH 46 0
BBX 32 105 7 0
BITMAP
00001F80
00001F00
00003E00
00007C00
0000F800
0001F000
0003E000
0007C000
000FC000
001F8000
003F0000
007E0000
00FC0000
00F80000
00000000
00000000
00000000
00000000
00000000
F800001F
F800001F
F800001F
F800001F
F800001F
F800001F
F800001F
F800001F
F800001F
F800001F
F800001F
F800001F
F800001F
F800001F
F800001F
F800001F
F800001F
F800001F
F800001F
F800001F
F800001F
F800001F
F800001F
F800001F
F800001F
F800001F
F800001F
F800001F
F800001F
F800001F
F800001F
F800001F
F800001F
F800001F
F800001F
F800001F
F800001F
F800001F
F800001F
F800001F
F800001F
F800001F
F800001F
F800001F
F800001F
F800001F
F800001F
F800001F
F800001F
F800001F
F800001F
F800001F
F800001F
F800001F
F800001F
F800001F
F800001F
F800001F
F800001F
F800001F
F800001F
F800001F
F800001F
F800001F
F800001F
F800001F
F800001F
F800001F
F800001F
F800001F
F800001F
F800001F
F800001F
F800001F
F800001F
F800001F
FC00001F
7C00003F
7F00007E
3F8001FC
1FC003F8
07F81FF0
03FFFFC0
01FFFF80
007FFE00
000FF000
ENDCHAR
STARTCHAR 00DB
ENCODING 219
SWIDTH 348 0
DWIDTH 46 0
BBX 32 105 7 0
BITMAP
0003E000
0007E000
000FF000
000FF800
001FF800
003E7C00
003C3C00
007C3E00
00F81F00
00F00F00
01F00F80
03E007C0
03C003C0
07C003E0
00000000
00000000
00000000
00000000
00000000
F800001F
F800001F
F800001F
F800001F
F800001F
F800001F
F800001F
F800001F
F800001F
F800001F
F800001F
F800001F
F800001F
F800001F
F800001F
F800001F
F800001F
F800001F
F800001F
F800001F
F800001F
F800001F
F800001F
F800001F
F800001F
F800001F
F800001F
F800001F
F800001F
F800001F
F800001F
F800001F
F800001F
F800001F
F800001F
F800001F
F800001F
F800001F
F800001F
F800001F
F800001F
F800001F
F800001F
F800001F
F800001F
F800001F
F800001F
F800001F
F800001F
F800001F
F800001F
F800001F
F800001F
F800001F
F800001F
F800001F
F800001F
F800001F
F800001F
F800001F
F800001F
F800001F
F800001F
F800001F
F800001F
F800001F
F800001F
F800001F
F800001F
F800001F
F800001F
F800001F
F800001F
F800001F
F800001F
F800001F
F800001F
7C00003F
7E00007E
3F8001FC
1FC003F8
07F81FF0
03FFFFC0
01FFFF80
007FFE00
000FF000
ENDCHAR
STARTCHAR 00DC
ENCODING 220
SWIDTH 348 0
DWIDTH 46 0
BBX 32 101 7 0
BITMAP
01F00F80
01F00F80
01F00F80
01F00F80
01F00F80
01F00F80
01F00F80
01F00F80
00000000
00000000
00000000
00000000
00000000
00000000
00000000
F800001F
F800001F
F800001F
F800001F
F800001F
F800001F
F800001F
F800001F
F800001F
F800001F
F800001F
F800001F
F800001F
F800001F
F800001F
F800001F
F800001F
F800001F
F800001F
F800001F
F800001F
F800001F
F800001F
F800001F
F800001F
F800001F
F800001F
F800001F
F800001F
F800001F
F800001F
F800001F
F800001F
F800001F
F800001F
F800001F
F800001F
F800001F
F800001F
F800001F
F800001F
F800001F
F800001F
F800001F
F800001F
F800001F
F800001F
F800001F
F800001F
F800001F
F800001F
F800001F
F800001F
F800001F
F800001F
F800001F
F800001F
F800001F
F800001F
F800001F
F800001F
F800001F
F800001F
F800001F
F800001F
F800001F
F800001F
F800001F
F800001F
F800001F
F800001F
F800001F
F800001F
F800001F
F800001F
F800001F
FC00001F
7C00003F
7F00007E
3F8001FC
1FC003F8
07F81FF0
03FFFFC0
01FFFF80
007FFE00
000FF000
ENDCHAR
STARTCHAR 00DD
ENCODING 221
SWIDTH 348 0
DWIDTH 46 0
BBX 32 105 7 0
BITMAP
00001F80
00001F00
00003E00
00007C00
0000F800
0001F000
0003E000
0007C000
000FC000
001F8000
003F0000
007E0000
00FC0000
00F80000
00000000
00000000
00000000
00000000
00000000
F800001F
F800001F
F800001F
F800001F
F800001F
F800001F
F800001F
F800001F
F800001F
F800001F
F800001F
F800001F
F800001F
F800001F
F800001F
F800001F
F800001F
F800001F
F800001F
F800001F
F800001F
F800001F
F800001F
F800001F
F800001F
F800001F
F800001F
F800001F
F800001F
F800001F
F800001F
FC00003F
7E00007F
3F0000FE
3FC003FC
0FF00FF8
07FFFFF0
03FFFFE0
00FFFF80
003FFE00
0007F000
0003E000
0003E000
0003E000
0003E000
0003E000
0003E000
0003E000
0003E000
0003E000
0003E000
0003E000
0003E000
0003E000
0003E000
0003E000
0003E000
0003E000
0003E000
0003E000
0003E000
0003E000
0003E000
0003E000
0003E000
0003E000
0003E000
0003E000
0003E000
0003E000
0003E000
0003E000
0003E000
0003E000
0003E000
0003E000
0003E000
0003E000
0003E000
0003E000
0003E000
0003E000
0003E000
0003E000
0003E000
0003E000
ENDCHAR
STARTCHAR 00DE
ENCODING 222
SWIDTH 348 0
DWIDTH 46 0
BBX 32 86 7 0
BITMAP
F8000000
F8000000
F8000000
F8000000
F8000000
F8000000
F8000000
F8000000
F8000000
F8000000
F8000000
F8000000
F8000000
F8000000
F8000000
F8000000
F8000000
F8000000
F8000000
F8000000
F8000000
F8000000
FFFFF000
FFFFFE00
FFFFFF80
FFFFFFE0
F8001FF0
F80003F8
F80001FC
F800007E
F800003F
F800001F
F800001F
F800001F
F800001F
F800001F
F800001F
F800001F
F800001F
F800001F
F800001F
F800001F
F800001F
F800001F
F800001F
F800001F
F800001F
F800001F
F800001F
F800001F
F800001F
F800001F
F800001F
F800001F
F800001F
F800001F
F800001F
F800001F
F800003F
F800007E
F80001FC
F80003F8
F8001FF0
FFFFFFC0
FFFFFF80
FFFFFE00
FFFFF000
F8000000
F8000000
F8000000
F8000000
F8000000
F8000000
F8000000
F8000000
F8000000
F8000000
F8000000
F8000000
F8000000
F8000000
F8000000
F8000000
F8000000
F8000000
F8000000
ENDCHAR
STARTCHAR 00DF
ENCODING 223
SWIDTH 371 0
DWIDTH 49 0
BBX 35 95 7 -10
BITMAP
000FF00000
007FFE0000
01FFFF8000
03FFFFE000
0FF81FF000
1FC003F800
3F8001FC00
7F00007E00
FC00003F00
F800001F00
F800001F00
F800001F00
F800001F00
F800001F00
F800001F00
F800001F00
F800001F00
F800001F00
F800001F00
F800001F00
F800001F00
F800001F00
F800001F00
F800001F00
F800001F00
F800001F00
F800003F00
F800007E00
F80001FE00
F80003FC00
F8001FF000
F803FFE000
F80FFFC000
F81FFF0000
F81FF80000
F83F000000
F83E000000
F83E000000
F83E000000
F83E000000
F83F000000
F81FFE0000
F80FFFC000
F807FFF000
F801FFFC00
F80003FE00
F800007F00
F800003F80
F800000FC0
F8000007E0
F8000003E0
F8000003E0
F8000003E0
F8000003E0
F8000003E0
F8000003E0
F8000003E0
F8000003E0
F8000003E0
F8000003E0
F8000003E0
F8000003E0
F8000003E0
F8000003E0
F8000003E0
F8000003E0
F8000003E0
F8000003E0
F8000003E0
F8000003E0
F8000003E0
F8000003E0
F8000003E0
F8000003E0
F8000003E0
F8000003E0
F8000003E0
F8000003E0
F8000003E0
F8000003E0
F8000003E0
F8000003E0
F8000003E0
F8000003E0
F8000003E0
00000003E0
00000007E0
0000000FC0
0000003F80
0000007F00
000003FE00
00001FFC00
00001FF000
00001FC000
00001E0000
ENDCHAR
STARTCHAR 00E0
ENCODING 224
SWIDTH 348 0
DWIDTH 46 0
BBX 32 79 7 0
BITMAP
01F00000
00F80000
007C0000
003E0000
001F0000
000F8000
000FC000
0007E000
0003F000
0001F000
0000F800
00007C00
00003E00
00001F00
00000000
00000000
00000000
00000000
00000000
00000000
000FF000
007FFE00
00FFFF80
03FFFFC0
07F81FE0
0FE003F8
1F8001FC
3F00007E
7E00003E
FC00001F
0800001F
0000001F
0000001F
0000001F
0000001F
0000001F
0000001F
0000001F
0000001F
0000001F
0000001F
0000001F
0000001F
000FF01F
007FFE1F
01FFFF9F
03FFFFDF
0FFFFFFF
1FE007FF
3FC001FF
7F0000FF
FE00007F
FC00003F
F800001F
F800001F
F800001F
F800001F
F800001F
F800001F
F800001F
F800001F
F800001F
F800001F
F800001F
F800001F
F800001F
F800001F
F800001F
F800001F
FC00003F
FE00007F
7F0000FF
3FC001FF
1FE007FF
0FFFFFFF
03FFFFDF
01FFFF9F
007FFE1F
000FF01F
ENDCHAR
STARTCHAR 00E1
ENCODING 225
SWIDTH 348 0
DWIDTH 46 0
BBX 32 79 7 0
BITMAP
00001F80
00001F00
00003E00
00007C00
0000F800
0001F000
0003F000
0007E000
000FC000
001F8000
001F0000
003E0000
007C0000
00F80000
00000000
00000000
00000000
00000000
00000000
00000000
000FF000
007FFE00
00FFFF80
03FFFFC0
07F81FE0
0FE003F8
1F8001FC
3F00007E
7E00003E
FC00001F
0800001F
0000001F
0000001F
0000001F
0000001F
0000001F
0000001F
0000001F
0000001F
0000001F
0000001F
0000001F
0000001F
000FF01F
007FFE1F
01FFFF9F
03FFFFDF
0FFFFFFF
1FE007FF
3FC001FF
7F0000FF
FE00007F
FC00003F
F800001F
F800001F
F800001F
F800001F
F800001F
F800001F
F800001F
F800001F
F800001F
F800001F
F800001F
F800001F
F800001F
F800001F
F800001F
F800001F
FC00003F
FE00007F
7F0000FF
3FC001FF
1FE007FF
0FFFFFFF
03FFFFDF
01FFFF9F
007FFE1F
000FF01F
ENDCHAR
STARTCHAR 00E2
ENCODING 226
SWIDTH 348 0
DWIDTH 46 0
BBX 32 79 7 0
BITMAP
0003E000
0007E000
000FF000
000FF000
001FF800
003E7C00
003E3C00
007C3E00
00781F00
00F80F00
01F00F80
01E00780
03E003C0
07C003E0
00000000
00000000
00000000
00000000
00000000
00000000
000FF000
007FFE00
00FFFF80
03FFFFC0
07F81FE0
0FE003F8
1F8001FC
3F00007E
7E00003E
FC00001F
0800001F
0000001F
0000001F
0000001F
0000001F
0000001F
0000001F
0000001F
0000001F
0000001F
0000001F
0000001F
0000001F
000FF01F
007FFE1F
01FFFF9F
03FFFFDF
0FFFFFFF
1FE007FF
3F8001FF
7F0000FF
FE00007F
FC00003F
F800001F
F800001F
F800001F
F800001F
F800001F
F800001F
F800001F
F800001F
F800001F
F800001F
F800001F
F800001F
F800001F
F800001F
F800001F
F800001F
FC00003F
FE00007F
7F0000FF
3F8001FF
1FE007FF
0FFFFFFF
03FFFFDF
01FFFF9F
007FFE1F
000FF01F
ENDCHAR
STARTCHAR 00E3
ENCODING 227
SWIDTH 348 0
DWIDTH 46 0
BBX 32 75 7 0
BITMAP
00F80000
03FF0030
0FFFC0FC
3FFFFFFE
7F8FFFFC
3E01FFE0
1C007F80
00000000
00000000
00000000
00000000
00000000
00000000
00000000
00000000
00000000
000FF000
007FFE00
00FFFF80
03FFFFC0
07F81FE0
0FE003F8
1F8001FC
3F00007E
7E00003E
FC00001F
0800001F
0000001F
0000001F
0000001F
0000001F
0000001F
0000001F
0000001F
0000001F
0000001F
0000001F
0000001F
0000001F
000FF01F
007FFE1F
01FFFF9F
03FFFFDF
0FFFFFFF
1FE007FF
3FC001FF
7F0000FF
FE00007F
FC00003F
F800001F
F800001F
F800001F
F800001F
F800001F
F800001F
F800001F
F800001F
F800001F
F800001F
F800001F
F800001F
F800001F
F800001F
F800001F
F800001F
FC00003F
FE00007F
7F0000FF
3FC001FF
1FE007FF
0FFFFFFF
03FFFFDF
01FFFF9F
007FFE1F
000FF01F
ENDCHAR
STARTCHAR 00E4
ENCODING 228
SWIDTH 348 0
DWIDTH 46 0
BBX 32 75 7 0
BITMAP
01F00F80
01F00F80
01F00F80
01F00F80
01F00F80
01F00F80
01F00F80
01F00F80
00000000
00000000
00000000
00000000
00000000
00000000
00000000
00000000
000FF000
007FFE00
00FFFF80
03FFFFC0
07F81FE0
0FE003F8
1F8001FC
3F00007E
7E00003E
FC00001F
0800001F
0000001F
0000001F
0000001F
0000001F
0000001F
0000001F
0000001F
0000001F
0000001F
0000001F
0000001F
0000001F
000FF01F
007FFE1F
01FFFF9F
03FFFFDF
0FFFFFFF
1FE007FF
3FC001FF
7F0000FF
FE00007F
FC00003F
F800001F
F800001F
F800001F
F800001F
F800001F
F800001F
F800001F
F800001F
F800001F
F800001F
F800001F
F800001F
F800001F
F800001F
F800001F
F800001F
FC00003F
FE00007F
7F0000FF
3FC001FF
1FE007FF
0FFFFFFF
03FFFFDF
01FFFF9F
007FFE1F
000FF01F
ENDCHAR
STARTCHAR 00E5
ENCODING 229
SWIDTH 348 0
DWIDTH 46 0
BBX 32 78 7 0
BITMAP
0007F000
003FFC00
007FFE00
00FFFF80
01F81FC0
03F00FE0
07E007E0
07C003E0
07C003E0
07C003E0
03E007E0
01F00FC0
00FC3F00
007FFE00
003FFC00
000FF000
00000000
00000000
00000000
000FF000
007FFE00
00FFFF80
03FFFFC0
07F81FE0
0FE003F8
1F8001FC
3F00007E
7E00003E
FC00001F
0800001F
0000001F
0000001F
0000001F
0000001F
0000001F
0000001F
0000001F
0000001F
0000001F
0000001F
0000001F
0000001F
000FF01F
007FFE1F
01FFFF9F
03FFFFDF
0FFFFFFF
1FE007FF
3FC001FF
7F0000FF
FE00007F
FC00003F
F800001F
F800001F
F800001F
F800001F
F800001F
F800001F
F800001F
F800001F
F800001F
F800001F
F800001F
F800001F
F800001F
F800001F
F800001F
F800001F
FC00003F
FE00007F
7F0000FF
3FC001FF
1FE007FF
0FFFFFFF
03FFFFDF
01FFFF9F
007FFE1F
000FF01F
ENDCHAR
STARTCHAR 00E6
ENCODING 230
SWIDTH 553 0
DWIDTH 73 0
BBX 59 59 7 0
BITMAP
000FF00000FE0000
007FFC0007FFC000
01FFFF001FFFF000
03FFFFC07FFFF800
07F81FE0FF03FC00
0FE003F1FC007F00
1F8001FBF0003F80
3F0000FFE0000FC0
7E00003FC00007C0
FC00001F800003E0
0800001F000003E0
0000001F000003E0
0000001F000003E0
0000001F000003E0
0000001F000003E0
0000001F000003E0
0000001F000003E0
0000001F000003E0
0000001F000003E0
0000001F000003E0
0000001F000003E0
0000001F000003E0
0000001F000003E0
000FF01F000003E0
007FFE1F000003E0
01FFFF9F000003E0
03FFFFDF800003E0
0FFE7FFFC00007E0
1FE007FFE0000FC0
3F8001FFF0003F80
7F0000FFFC007F00
7E00007FFF03FE00
FC00003F7FFFFC00
F800001F3FFFF000
F800001F0FFFC000
F800001F01FE0000
F800001F00000000
F800001F00000000
F800001F00000000
F800001F00000000
F800001F00000000
F800001F00000000
F800001F00000000
F800001F00000000
F800001F00000000
F800001F00000000
F800001F00000000
F800001F00000000
F800001F00000000
F800001F000003C0
7C00003F800007E0
7F00007FE0000FC0
3F8001FBF0001F80
1FC003F1FC007F00
0FF81FE0FF01FE00
03FFFFC07FFFF800
01FFFF001FFFF000
007FFE0007FFC000
000FF00001FE0000
ENDCHAR
STARTCHAR 00E7
ENCODING 231
SWIDTH 348 0
DWIDTH 46 0
BBX 32 83 7 -24
BITMAP
000FF000
007FFC00
01FFFF00
03FFFFC0
07F81FE0
0FE003F0
1F8001F8
3F0000FC
7E00007E
FC00003F
F8000010
F8000000
F8000000
F8000000
F8000000
F8000000
F8000000
F8000000
F8000000
F8000000
F8000000
F8000000
F8000000
F8000000
F8000000
F8000000
F8000000
F8000000
F8000000
F8000000
F8000000
F8000000
F8000000
F8000000
F8000000
F8000000
F8000000
F8000000
F8000000
F8000000
F8000000
F8000000
F8000000
F8000000
F8000000
F8000000
F8000000
F8000000
F8000000
FC00003E
7E00003E
7F0000FC
3F8001F8
1FE003F0
07F81FE0
03FFFFC0
00FFFF80
003FFE00
001FF000
001F0000
001FC000
001FF000
001FF800
0001FE00
00007F00
00003F80
00001FC0
00000FE0
000007E0
000003E0
000003E0
000003E0
000003E0
000007E0
00000FE0
00001FC0
00003F80
00007F00
0001FE00
001FFC00
001FF000
001FC000
001E0000
ENDCHAR
STARTCHAR 00E8
ENCODING 232
SWIDTH 348 0
DWIDTH 46 0
BBX 32 79 7 0
BITMAP
01F00000
00F80000
007C0000
003E0000
001F0000
000F8000
000FC000
0007E000
0003F000
0001F000
0000F800
00007C00
00003E00
00001F00
00000000
00000000
00000000
00000000
00000000
00000000
000FF000
007FFE00
00FFFF80
03FFFFC0
07F81FE0
0FE003F8
1F8001FC
3F00007E
7E00003E
FC00001F
F800001F
F800001F
F800001F
F800001F
F800001F
F800001F
F800001F
F800001F
F800001F
F800001F
F800001F
F800001F
F800001F
F800001F
F800001F
F800001F
FC00001F
FE00003F
FF0000FE
FF8001FC
FFE003F8
FFF81FF0
FBFFFFE0
F9FFFF80
F87FFE00
F80FF000
F8000000
F8000000
F8000000
F8000000
F8000000
F8000000
F8000000
F8000000
F8000000
F8000000
F8000000
F8000000
F8000000
FC00001E
7E00003F
7F00007E
3F8001FC
1FE003F8
0FF80FF0
03FFFFC0
01FFFF80
007FFE00
000FF000
ENDCHAR
STARTCHAR 00E9
ENCODING 233
SWIDTH 348 0
DWIDTH 46 0
BBX 32 79 7 0
BITMAP
00001F80
00001F00
00003E00
00007C00
0000F800
0001F000
0003F000
0007E000
000FC000
001F8000
001F0000
003E0000
007C0000
00F80000
00000000
00000000
00000000
00000000
00000000
00000000
000FF000
007FFE00
00FFFF80
03FFFFC0
07F81FE0
0FE003F8
1F8001FC
3F00007E
7E00003E
FC00001F
F800001F
F800001F
F800001F
F800001F
F800001F
F800001F
F800001F
F800001F
F800001F
F800001F
F800001F
F800001F
F800001F
F800001F
F800001F
F800001F
FC00001F
FE00003F
FF0000FE
FF8001FC
FFE003F8
FFF81FF0
FBFFFFE0
F9FFFF80
F87FFE00
F80FF000
F8000000
F8000000
F8000000
F8000000
F8000000
F8000000
F8000000
F8000000
F8000000
F8000000
F8000000
F8000000
F8000000
FC00001E
7E00003F
7F00007E
3F8001FC
1FE003F8
0FF80FF0
03FFFFC0
01FFFF80
007FFE00
000FF000
ENDCHAR
STARTCHAR 00EA
ENCODING 234
SWIDTH 348 0
DWIDTH 46 0
BBX 32 79 7 0
BITMAP
0003E000
0007E000
000FF000
000FF000
001FF800
003E7C00
003E3C00
007C3E00
00781F00
00F80F00
01F00F80
01E00780
03E003C0
07C003E0
00000000
00000000
00000000
00000000
00000000
00000000
000FF000
007FFE00
00FFFF80
03FFFFC0
07F81FE0
0FC003F8
1F8001FC
3E00007E
7C00003E
F800001F
F800001F
F800001F
F800001F
F800001F
F800001F
F800001F
F800001F
F800001F
F800001F
F800001F
F800001F
F800001F
F800001F
F800001F
F800001F
F800001F
F800001F
FC00003F
FE0000FE
FF8001FC
FFC003F8
FFF81FF0
FBFFFFE0
F9FFFF80
F87FFE00
F80FF000
F8000000
F8000000
F8000000
F8000000
F8000000
F8000000
F8000000
F8000000
F8000000
F8000000
F8000000
F8000000
F8000000
F800001E
7C00003F
7E00007E
3F8001FC
1FC003F8
0FF81FF0
03FFFFC0
01FFFF80
007FFE00
000FF000
ENDCHAR
STARTCHAR 00EB
ENCODING 235
SWIDTH 348 0
DWIDTH 46 0
BBX 32 75 7 0
BITMAP
01F00F80
01F00F80
01F00F80
01F00F80
01F00F80
01F00F80
01F00F80
01F00F80
00000000
00000000
00000000
00000000
00000000
00000000
00000000
00000000
000FF000
007FFE00
00FFFF80
03FFFFC0
07F81FE0
0FE003F8
1F8001FC
3F00007E
7E00003E
FC00001F
F800001F
F800001F
F800001F
F800001F
F800001F
F800001F
F800001F
F800001F
F800001F
F800001F
F800001F
F800001F
F800001F
F800001F
F800001F
F800001F
FC00001F
FE00003F
FF0000FE
FF8001FC
FFE003F8
FFF81FF0
FBFFFFE0
F9FFFF80
F87FFE00
F80FF000
F8000000
F8000000
F8000000
F8000000
F8000000
F8000000
F8000000
F8000000
F8000000
F8000000
F8000000
F8000000
F8000000
FC00001E
7E00003F
7F00007E
3F8001FC
1FE003F8
0FF80FF0
03FFFFC0
01FFFF80
007FFE00
000FF000
ENDCHAR
STARTCHAR 00EC
ENCODING 236
SWIDTH 234 0
DWIDTH 31 0
BBX 17 79 7 0
BITMAP
F80000
7C0000
3E0000
1F0000
1F8000
0FC000
07E000
03E000
01F000
00F800
007C00
003E00
001F00
001F80
000000
000000
000000
000000
000000
000000
03E000
03E000
03E000
03E000
03E000
03E000
03E000
03E000
03E000
03E000
03E000
03E000
03E000
03E000
03E000
03E000
03E000
03E000
03E000
03E000
03E000
03E000
03E000
03E000
03E000
03E000
03E000
03E000
03E000
03E000
03E000
03E000
03E000
03E000
03E000
03E000
03E000
03E000
03E000
03E000
03E000
03E000
03E000
03E000
03E000
03E000
03E000
03E000
03E000
03E000
03E000
03E000
03E000
03E000
03E000
03E000
03E000
03E000
03E000
ENDCHAR
STARTCHAR 00ED
ENCODING 237
SWIDTH 234 0
DWIDTH 31 0
BBX 18 79 7 0
BITMAP
000FC0
001F80
003F00
007E00
007C00
00F800
01F000
03E000
07C000
0FC000
1F8000
3F0000
7E0000
FC0000
000000
000000
000000
000000
000000
000000
03E000
03E000
03E000
03E000
03E000
03E000
03E000
03E000
03E000
03E000
03E000
03E000
03E000
03E000
03E000
03E000
03E000
03E000
03E000
03E000
03E000
03E000
03E000
03E000
03E000
03E000
03E000
03E000
03E000
03E000
03E000
03E000
03E000
03E000
03E000
03E000
03E000
03E000
03E000
03E000
03E000
03E000
03E000
03E000
03E000
03E000
03E000
03E000
03E000
03E000
03E000
03E000
03E000
03E000
03E000
03E000
03E000
03E000
03E000
ENDCHAR
STARTCHAR 00EE
ENCODING 238
SWIDTH 280 0
DWIDTH 37 0
BBX 22 79 7 0
BITMAP
007C00
00FE00
01FF00
01FF00
03FF80
03EF80
07C7C0
0F87E0
0F03E0
1F01F0
3E00F0
3C00F8
7C007C
F8003C
000000
000000
000000
000000
000000
000000
007C00
007C00
007C00
007C00
007C00
007C00
007C00
007C00
007C00
007C00
007C00
007C00
007C00
007C00
007C00
007C00
007C00
007C00
007C00
007C00
007C00
007C00
007C00
007C00
007C00
007C00
007C00
007C00
007C00
007C00
007C00
007C00
007C00
007C00
007C00
007C00
007C00
007C00
007C00
007C00
007C00
007C00
007C00
007C00
007C00
007C00
007C00
007C00
007C00
007C00
007C00
007C00
007C00
007C00
007C00
007C00
007C00
007C00
007C00
ENDCHAR
STARTCHAR 00EF
ENCODING 239
SWIDTH 242 0
DWIDTH 32 0
BBX 18 75 7 0
BITMAP
F807C0
F807C0
F807C0
F807C0
F807C0
F807C0
F807C0
F807C0
000000
000000
000000
000000
000000
000000
000000
000000
01F000
01F000
01F000
01F000
01F000
01F000
01F000
01F000
01F000
01F000
01F000
01F000
01F000
01F000
01F000
01F000
01F000
01F000
01F000
01F000
01F000
01F000
01F000
01F000
01F000
01F000
01F000
01F000
01F000
01F000
01F000
01F000
01F000
01F000
01F000
01F000
01F000
01F000
01F000
01F000
01F000
01F000
01F000
01F000
01F000
01F000
01F000
01F000
01F000
01F000
01F000
01F000
01F000
01F000
01F000
01F000
01F000
01F000
01F000
ENDCHAR
STARTCHAR 00F0
ENCODING 240
SWIDTH 378 0
DWIDTH 50 0
BBX 36 86 7 0
BITMAP
0000F00000
0000FC0000
0000FF0000
0000FFC000
00001FE010
000007F070
000001F8F0
000000FFF0
0000007FF0
0000003FC0
000000FF80
000003FF00
00000FFF00
00003FFF00
00007F9F00
0001FE1F00
0007F81F00
001FE01F00
007FC01F00
007F001F00
007C001F00
0070001F00
0040001F00
0000001F00
0000001F00
0000001F00
0000001F00
000FF01F00
007FFE1F00
01FFFF9F00
03FFFFDF00
07FFFFFF00
0FF00FFF00
1FC003FF00
3F8001FF00
7E00007F00
FC00003F00
F800001F00
F800001F00
F800001F00
F800001F00
F800001F00
F800001F00
F800001F00
F800001F00
F800001F00
F800001F00
F800001F00
F800001F00
F800001F00
F800001F00
F800001F00
F800001F00
F800001F00
F800001F00
F800001F00
F800001F00
F800001F00
F800001F00
F800001F00
F800001F00
F800001F00
F800001F00
F800001F00
F800001F00
F800001F00
F800001F00
F800001F00
F800001F00
F800001F00
F800001F00
F800001F00
F800001F00
F800001F00
F800001F00
F800001F00
FC00001F00
7C00003E00
7F00007E00
3F8001FC00
1FC003F800
0FF81FF000
03FFFFC000
01FFFF8000
007FFE0000
000FF00000
ENDCHAR
STARTCHAR 00F1
ENCODING 241
SWIDTH 348 0
DWIDTH 46 0
BBX 32 75 7 0
BITMAP
00F80000
03FF0030
0FFFC0FC
3FFFFFFE
7F8FFFFC
3E01FFE0
1C007F80
00000000
00000000
00000000
00000000
00000000
00000000
00000000
00000000
00000000
F807F000
F83FFE00
F8FFFF80
F9FFFFC0
FBF81FF0
FFC003F8
FF8001FC
FF00007E
FE00003E
FC00001F
F800001F
F800001F
F800001F
F800001F
F800001F
F800001F
F800001F
F800001F
F800001F
F800001F
F800001F
F800001F
F800001F
F800001F
F800001F
F800001F
F800001F
F800001F
F800001F
F800001F
F800001F
F800001F
F800001F
F800001F
F800001F
F800001F
F800001F
F800001F
F800001F
F800001F
F800001F
F800001F
F800001F
F800001F
F800001F
F800001F
F800001F
F800001F
F800001F
F800001F
F800001F
F800001F
F800001F
F800001F
F800001F
F800001F
F800001F
F800001F
F800001F
ENDCHAR
STARTCHAR 00F2
ENCODING 242
SWIDTH 348 0
DWIDTH 46 0
BBX 32 79 7 0
BITMAP
01F00000
00F80000
007C0000
003E0000
001F0000
000F8000
000FC000
0007E000
0003F000
0001F000
0000F800
00007C00
00003E00
00001F00
00000000
00000000
00000000
00000000
00000000
00000000
000FF000
007FFE00
00FFFF80
03FFFFC0
07F81FE0
0FE003F8
1F8001FC
3F00007E
7E00003E
FC00001F
F800001F
F800001F
F800001F
F800001F
F800001F
F800001F
F800001F
F800001F
F800001F
F800001F
F800001F
F800001F
F800001F
F800001F
F800001F
F800001F
F800001F
F800001F
F800001F
F800001F
F800001F
F800001F
F800001F
F800001F
F800001F
F800001F
F800001F
F800001F
F800001F
F800001F
F800001F
F800001F
F800001F
F800001F
F800001F
F800001F
F800001F
F800001F
F800001F
FC00001F
7E00003F
7F00007E
3F8001FC
1FC003F8
0FF81FF0
03FFFFC0
01FFFF80
007FFE00
000FF000
ENDCHAR
STARTCHAR 00F3
ENCODING 243
SWIDTH 348 0
DWIDTH 46 0
BBX 32 79 7 0
BITMAP
00001F80
00001F00
00003E00
00007C00
0000F800
0001F000
0003F000
0007E000
000FC000
001F8000
001F0000
003E0000
007C0000
00F80000
00000000
00000000
00000000
00000000
00000000
00000000
000FF000
007FFE00
00FFFF80
03FFFFC0
07F81FE0
0FE003F8
1F8001FC
3F00007E
7E00003E
FC00001F
F800001F
F800001F
F800001F
F800001F
F800001F
F800001F
F800001F
F800001F
F800001F
F800001F
F800001F
F800001F
F800001F
F800001F
F800001F
F800001F
F800001F
F800001F
F800001F
F800001F
F800001F
F800001F
F800001F
F800001F
F800001F
F800001F
F800001F
F800001F
F800001F
F800001F
F800001F
F800001F
F800001F
F800001F
F800001F
F800001F
F800001F
F800001F
F800001F
FC00001F
7E00003F
7F00007E
3F8001FC
1FC003F8
0FF81FF0
03FFFFC0
01FFFF80
007FFE00
000FF000
ENDCHAR
STARTCHAR 00F4
ENCODING 244
SWIDTH 348 0
DWIDTH 46 0
BBX 32 79 7 0
BITMAP
0003E000
0007E000
000FF000
000FF000
001FF800
003E7C00
003E3C00
007C3E00
00781F00
00F80F00
01F00F80
01E00780
03E003C0
07C003E0
00000000
00000000
00000000
00000000
00000000
00000000
000FF000
007FFE00
00FFFF80
03FFFFC0
07F81FE0
0FC003F8
1F8001FC
3E00007E
7C00003E
F800001F
F800001F
F800001F
F800001F
F800001F
F800001F
F800001F
F800001F
F800001F
F800001F
F800001F
F800001F
F800001F
F800001F
F800001F
F800001F
F800001F
F800001F
F800001F
F800001F
F800001F
F800001F
F800001F
F800001F
F800001F
F800001F
F800001F
F800001F
F800001F
F800001F
F800001F
F800001F
F800001F
F800001F
F800001F
F800001F
F800001F
F800001F
F800001F
F800001F
F800001F
7C00003F
7E00007E
3F8001FC
1FC003F8
0FF81FF0
03FFFFC0
01FFFF80
007FFE00
000FF000
ENDCHAR
STARTCHAR 00F5
ENCODING 245
SWIDTH 348 0
DWIDTH 46 0
BBX 32 75 7 0
BITMAP
00F80000
03FF0030
0FFFC0FC
3FFFFFFE
7F8FFFFC
3E01FFE0
1C007F80
00000000
00000000
00000000
00000000
00000000
00000000
00000000
00000000
00000000
000FF000
007FFE00
00FFFF80
03FFFFC0
07F81FE0
0FE003F8
1F8001FC
3F00007E
7E00003E
FC00001F
F800001F
F800001F
F800001F
F800001F
F800001F
F800001F
F800001F
F800001F
F800001F
F800001F
F800001F
F800001F
F800001F
F800001F
F800001F
F800001F
F800001F
F800001F
F800001F
F800001F
F800001F
F800001F
F800001F
F800001F
F800001F
F800001F
F800001F
F800001F
F800001F
F800001F
F800001F
F800001F
F800001F
F800001F
F800001F
F800001F
F800001F
F800001F
F800001F
FC00001F
7E00003F
7F00007E
3F8001FC
1FC003F8
0FF81FF0
03FFFFC0
01FFFF80
007FFE00
000FF000
ENDCHAR
STARTCHAR 00F6
ENCODING 246
SWIDTH 348 0
DWIDTH 46 0
BBX 32 75 7 0
BITMAP
01F00F80
01F00F80
01F00F80
01F00F80
01F00F80
01F00F80
01F00F80
01F00F80
00000000
00000000
00000000
00000000
00000000
00000000
00000000
00000000
000FF000
007FFE00
00FFFF80
03FFFFC0
07F81FE0
0FE003F8
1F8001FC
3F00007E
7E00003E
FC00001F
F800001F
F800001F
F800001F
F800001F
F800001F
F800001F
F800001F
F800001F
F800001F
F800001F
F800001F
F800001F
F800001F
F800001F
F800001F
F800001F
F800001F
F800001F
F800001F
F800001F
F800001F
F800001F
F800001F
F800001F
F800001F
F800001F
F800001F
F800001F
F800001F
F800001F
F800001F
F800001F
F800001F
F800001F
F800001F
F800001F
F800001F
F800001F
F800001F
FC00001F
7E00003F
7F00007E
3F8001FC
1FC003F8
0FF81FF0
03FFFFC0
01FFFF80
007FFE00
000FF000
ENDCHAR
STARTCHAR 00F7
ENCODING 247
SWIDTH 416 0
DWIDTH 55 0
BBX 41 38 7 19
BITMAP
00003E000000
00003E000000
00003E000000
00003E000000
00003E000000
00003E000000
00003E000000
00003E000000
000000000000
000000000000
000000000000
000000000000
000000000000
000000000000
000000000000
000000000000
FFFFFFFFFF80
FFFFFFFFFF80
FFFFFFFFFF80
FFFFFFFFFF80
000000000000
000000000000
000000000000
000000000000
000000000000
000000000000
000000000000
000000000000
000000000000
000000000000
00003E000000
00003E000000
00003E000000
00003E000000
00003E000000
00003E000000
00003E000000
00003E000000
ENDCHAR
STARTCHAR 00F8
ENCODING 248
SWIDTH 348 0
DWIDTH 46 0
BBX 32 68 7 -5
BITMAP
00000078
00000078
000000F8
000000F0
000FE0F0
007FFDF0
01FFFFE0
03FFFFE0
07F81FE0
0FE007F0
1F8003F8
3F0007FC
7E0007FE
FC0007BF
F8000F9F
F8000F9F
F8000F1F
F8001F1F
F8001F1F
F8001E1F
F8003E1F
F8003E1F
F8003C1F
F8003C1F
F8007C1F
F800781F
F800781F
F800F81F
F800F01F
F800F01F
F801F01F
F801E01F
F801E01F
F803C01F
F803C01F
F803C01F
F807801F
F807801F
F807801F
F80F001F
F80F001F
F80F001F
F81E001F
F81E001F
F81E001F
F83C001F
F83C001F
F83C001F
F878001F
F878001F
F878001F
F8F0001F
F8F0001F
FCF0001F
7FE0003F
7FE0007E
3FC001FC
1FE003F8
07F81FF0
07FFFFC0
07FFFF80
07FFFE00
0F8FF000
0F000000
0F000000
1F000000
1E000000
1E000000
ENDCHAR
STARTCHAR 00F9
ENCODING 249
SWIDTH 348 0
DWIDTH 46 0
BBX 32 79 7 0
BITMAP
01F00000
00F80000
007C0000
003E0000
001F0000
000F8000
000FC000
0007E000
0003F000
0001F000
0000F800
00007C00
00003E00
00001F00
00000000
00000000
00000000
00000000
00000000
00000000
F800001F
F800001F
F800001F
F800001F
F800001F
F800001F
F800001F
F800001F
F800001F
F800001F
F800001F
F800001F
F800001F
F800001F
F800001F
F800001F
F800001F
F800001F
F800001F
F800001F
F800001F
F800001F
F800001F
F800001F
F800001F
F800001F
F800001F
F800001F
F800001F
F800001F
F800001F
F800001F
F800001F
F800001F
F800001F
F800001F
F800001F
F800001F
F800001F
F800001F
F800001F
F800001F
F800001F
F800001F
F800001F
F800001F
F800001F
F800001F
F800001F
FC00003F
7E00007F
7F0000FF
3FC001FF
1FF007FF
0FFFFFFF
03FFFFDF
01FFFF9F
007FFE1F
000FF01F
ENDCHAR
STARTCHAR 00FA
ENCODING 250
SWIDTH 348 0
DWIDTH 46 0
BBX 32 79 7 0
BITMAP
00001F80
00001F00
00003E00
00007C00
0000F800
0001F000
0003F000
0007E000
000FC000
001F8000
001F0000
003E0000
007C0000
00F80000
00000000
00000000
00000000
00000000
00000000
00000000
F800001F
F800001F
F800001F
F800001F
F800001F
F800001F
F800001F
F800001F
F800001F
F800001F
F800001F
F800001F
F800001F
F800001F
F800001F
F800001F
F800001F
F800001F
F800001F
F800001F
F800001F
F800001F
F800001F
F800001F
F800001F
F800001F
F800001F
F800001F
F800001F
F800001F
F800001F
F800001F
F800001F
F800001F
F800001F
F800001F
F800001F
F800001F
F800001F
F800001F
F800001F
F800001F
F800001F
F800001F
F800001F
F800001F
F800001F
F800001F
F800001F
FC00003F
7E00007F
7F0000FF
3FC001FF
1FF007FF
0FFFFFFF
03FFFFDF
01FFFF9F
007FFE1F
000FF01F
ENDCHAR
STARTCHAR 00FB
ENCODING 251
SWIDTH 348 0
DWIDTH 46 0
BBX 32 79 7 0
BITMAP
0003E000
0007E000
000FF000
000FF000
001FF800
003E7C00
003E3C00
007C3E00
00781F00
00F80F00
01F00F80
01E00780
03E003C0
07C003E0
00000000
00000000
00000000
00000000
00000000
00000000
F800001F
F800001F
F800001F
F800001F
F800001F
F800001F
F800001F
F800001F
F800001F
F800001F
F800001F
F800001F
F800001F
F800001F
F800001F
F800001F
F800001F
F800001F
F800001F
F800001F
F800001F
F800001F
F800001F
F800001F
F800001F
F800001F
F800001F
F800001F
F800001F
F800001F
F800001F
F800001F
F800001F
F800001F
F800001F
F800001F
F800001F
F800001F
F800001F
F800001F
F800001F
F800001F
F800001F
F800001F
F800001F
F800001F
F800001F
F800001F
F800001F
FC00003F
7E00007F
7F0000FF
3F8003FF
1FE00FFF
0FFFFFFF
03FFFFDF
01FFFF9F
007FFE1F
000FF01F
ENDCHAR
STARTCHAR 00FC
ENCODING 252
SWIDTH 348 0
DWIDTH 46 0
BBX 32 75 7 0
BITMAP
01F00F80
01F00F80
01F00F80
01F00F80
01F00F80
01F00F80
01F00F80
01F00F80
00000000
00000000
00000000
00000000
00000000
00000000
00000000
00000000
F800001F
F800001F
F800001F
F800001F
F800001F
F800001F
F800001F
F800001F
F800001F
F800001F
F800001F
F800001F
F800001F
F800001F
F800001F
F800001F
F800001F
F800001F
F800001F
F800001F
F800001F
F800001F
F800001F
F800001F
F800001F
F800001F
F800001F
F800001F
F800001F
F800001F
F800001F
F800001F
F800001F
F800001F
F800001F
F800001F
F800001F
F800001F
F800001F
F800001F
F800001F
F800001F
F800001F
F800001F
F800001F
F800001F
F800001F
F800001F
F800001F
FC00003F
7E00007F
7F0000FF
3FC001FF
1FF007FF
0FFFFFFF
03FFFFDF
01FFFF9F
007FFE1F
000FF01F
ENDCHAR
STARTCHAR 00FD
ENCODING 253
SWIDTH 348 0
DWIDTH 46 0
BBX 32 106 7 -27
BITMAP
00001F80
00001F00
00003E00
00007C00
0000F800
0001F000
0003F000
0007E000
000FC000
001F8000
001F0000
003E0000
007C0000
00F80000
00000000
00000000
00000000
00000000
00000000
00000000
F800001F
F800001F
F800001F
F800001F
F800001F
F800001F
F800001F
F800001F
F800001F
F800001F
F800001F
F800001F
F800001F
F800001F
F800001F
F800001F
F800001F
F800001F
F800001F
F800001F
F800001F
F800001F
F800001F
F800001F
F800001F
F800001F
F800001F
F800001F
F800001F
F800001F
F800001F
F800001F
F800001F
F800001F
F800001F
F800001F
F800001F
F800001F
F800001F
F800001F
F800001F
F800001F
F800001F
F800001F
F800001F
F800001F
F800001F
F800001F
F800001F
FC00003F
7E00007F
7F0000FF
3FC001FF
1FF007FF
0FFFFFFF
03FFFFDF
01FFFF9F
007FFE1F
000FF01F
0000001F
0000001F
0000001F
0000001F
0000001F
0000001F
0000001F
0000001F
0000001F
0000001F
0000001F
0000001F
0000001F
0000001F
0000001F
0000001F
0000001F
0000001F
0000003F
0000007E
000001FC
000003F8
00001FF0
0000FFC0
0000FF80
0000FE00
0000F000
ENDCHAR
STARTCHAR 00FE
ENCODING 254
SWIDTH 348 0
DWIDTH 46 0
BBX 32 113 7 -27
BITMAP
F8000000
F8000000
F8000000
F8000000
F8000000
F8000000
F8000000
F8000000
F8000000
F8000000
F8000000
F8000000
F8000000
F8000000
F8000000
F8000000
F8000000
F8000000
F8000000
F8000000
F8000000
F8000000
F8000000
F8000000
F8000000
F8000000
F8000000
F80FF000
F87FFE00
F9FFFF80
FBFFFFC0
FFFFFFF0
FFF00FF8
FFC003FC
FF8000FE
FE00007E
FC00003F
F800001F
F800001F
F800001F
F800001F
F800001F
F800001F
F800001F
F800001F
F800001F
F800001F
F800001F
F800001F
F800001F
F800001F
F800001F
F800001F
F800001F
F800001F
F800001F
F800001F
F800001F
F800001F
F800001F
F800001F
F800001F
F800001F
F800001F
F800001F
F800001F
F800001F
F800001F
F800001F
F800001F
F800001F
F800001F
F800001F
F800001F
F800001F
F800001F
FC00003F
FE00007F
FF0000FE
FFC003FC
FFF00FF8
FFFFFFF0
FBFFFFE0
F9FFFF80
F87FFE00
F80FF000
F8000000
F8000000
F8000000
F8000000
F8000000
F8000000
F8000000
F8000000
F8000000
F8000000
F8000000
F8000000
F8000000
F8000000
F8000000
F8000000
F8000000
F8000000
F8000000
F8000000
F8000000
F8000000
F8000000
F8000000
F8000000
F8000000
F8000000
ENDCHAR
STARTCHAR 00FF
ENCODING 255
SWIDTH 348 0
DWIDTH 46 0
BBX 32 102 7 -27
BITMAP
01F00F80
01F00F80
01F00F80
01F00F80
01F00F80
01F00F80
01F00F80
01F00F80
00000000
00000000
00000000
00000000
00000000
00000000
00000000
00000000
F800001F
F800001F
F800001F
F800001F
F800001F
F800001F
F800001F
F800001F
F800001F
F800001F
F800001F
F800001F
F800001F
F800001F
F800001F
F800001F
F800001F
F800001F
F800001F
F800001F
F800001F
F800001F
F800001F
F800001F
F800001F
F800001F
F800001F
F800001F
F800001F
F800001F
F800001F
F800001F
F800001F
F800001F
F800001F
F800001F
F800001F
F800001F
F800001F
F800001F
F800001F
F800001F
F800001F
F800001F
F800001F
F800001F
F800001F
F800001F
F800001F
FC00003F
7E00007F
7F0000FF
3FC001FF
1FF007FF
0FFFFFFF
03FFFFDF
01FFFF9F
007FFE1F
000FF01F
0000001F
0000001F
0000001F
0000001F
0000001F
0000001F
0000001F
0000001F
0000001F
0000001F
0000001F
0000001F
0000001F
0000001F
0000001F
0000001F
0000001F
0000001F
0000003F
0000007E
000001FC
000003F8
00001FF0
0000FFC0
0000FF80
0000FE00
0000F000
ENDCHAR
STARTCHAR 0101
ENCODING 257
SWIDTH 348 0
DWIDTH 46 0
BBX 0 0 0 0
BITMAP
ENDCHAR
STARTCHAR 0152
ENCODING 338
SWIDTH 553 0
DWIDTH 73 0
BBX 59 86 7 0
BITMAP
000FF00001FE0000
007FFE000FFF8000
01FFFF803FFFE000
03FFFFC0FFFFF800
07F81FF1FF03FC00
0FC003FBFC007E00
1F8001FFF0003F00
3F00007FE0001F80
7E00003FC0000FC0
FC00001F800007E0
F800001F00000200
F800001F00000000
F800001F00000000
F800001F00000000
F800001F00000000
F800001F00000000
F800001F00000000
F800001F00000000
F800001F00000000
F800001F00000000
F800001F00000000
F800001F00000000
F800001F00000000
F800001F00000000
F800001F00000000
F800001F00000000
F800001F00000000
F800001F00000000
F800001F00000000
F800001F00000000
F800001F00000000
F800001F00000000
F800001F00000000
F800001F00000000
F800001F00000000
F800001F00000000
F800001FFFFFC000
F800001FFFFFC000
F800001FFFFFC000
F800001FFFFFC000
F800001F00000000
F800001F00000000
F800001F00000000
F800001F00000000
F800001F00000000
F800001F00000000
F800001F00000000
F800001F00000000
F800001F00000000
F800001F00000000
F800001F00000000
F800001F00000000
F800001F00000000
F800001F00000000
F800001F00000000
F800001F00000000
F800001F00000000
F800001F00000000
F800001F00000000
F800001F00000000
F800001F00000000
F800001F00000000
F800001F00000000
F800001F00000000
F800001F00000000
F800001F00000000
F800001F00000000
F800001F00000000
F800001F00000000
F800001F00000000
F800001F00000000
F800001F00000000
F800001F00000000
F800001F00000000
F800001F00000000
F800001F00000000
F800001F800007C0
7C00003FC00007C0
7E00007FE0000F80
3F8001FBF0003F00
1FC003F1FC007E00
0FF81FE0FF03FC00
03FFFF807FFFF800
01FFFF001FFFE000
007FFC000FFFC000
000FF00001FE0000
ENDCHAR
STARTCHAR 0153
ENCODING 339
SWIDTH 553 0
DWIDTH 73 0
BBX 59 59 7 0
BITMAP
000FF00000FE0000
007FFC0007FFC000
01FFFF001FFFF000
03FFFFC03FFFF800
07F81FE0FF03FC00
0FE003F1FC007F00
1F8001FBF0003F80
3F00007FE0000F80
7E00003FC00007C0
FC00001F800003E0
F800001F000003E0
F800001F000003E0
F800001F000003E0
F800001F000003E0
F800001F000003E0
F800001F000003E0
F800001F000003E0
F800001F000003E0
F800001F000003E0
F800001F000003E0
F800001F000003E0
F800001F000003E0
F800001F000003E0
F800001F000003E0
F800001F000003E0
F800001F000003E0
F800001F800003E0
F800001FC00007E0
F800001FE0001FC0
F800001FF0003F80
F800001FFC007F00
F800001FFF03FE00
F800001F7FFFFC00
F800001F3FFFF000
F800001F0FFFC000
F800001F01FE0000
F800001F00000000
F800001F00000000
F800001F00000000
F800001F00000000
F800001F00000000
F800001F00000000
F800001F00000000
F800001F00000000
F800001F00000000
F800001F00000000
F800001F00000000
F800001F00000000
F800001F00000000
FC00001F800003C0
7C00003FC00007E0
7F00007FE0000FC0
3F8001FBF0001F80
1FC003F1FC007F00
0FF81FE0FF01FE00
03FFFFC07FFFFC00
01FFFF801FFFF000
007FFE0007FFC000
000FF00001FE0000
ENDCHAR
STARTCHAR 0160
ENCODING 352
SWIDTH 348 0
DWIDTH 46 0
BBX 32 105 7 0
BITMAP
07C003E0
03E003C0
01E007C0
01F00F80
00F80F00
00781F00
007C3E00
003E7C00
003F7C00
001FF800
000FF800
000FF000
0007E000
0003E000
00000000
00000000
00000000
00000000
00000000
000FF000
007FFE00
01FFFF80
03FFFFC0
07F81FE0
0FC003F8
1F8001FC
3E0000FE
7C00007E
F800003F
F8000010
F8000000
F8000000
F8000000
F8000000
F8000000
F8000000
F8000000
F8000000
F8000000
F8000000
F8000000
F8000000
F8000000
F8000000
F8000000
F8000000
F8000000
F8000000
F8000000
F8000000
F8000000
7C000000
7E000000
3F800000
1FC00000
07F80000
03FFF000
01FFFE00
007FFF80
000FFFE0
00001FF0
000003F8
000001FC
0000007E
0000003F
0000001F
0000001F
0000001F
0000001F
0000001F
0000001F
0000001F
0000001F
0000001F
0000001F
0000001F
0000001F
0000001F
0000001F
0000001F
0000001F
0000001F
0000001F
0000001F
0000001F
0000001F
0000001F
0000001F
0000001F
0000001F
0000001F
0000001F
0000001F
0000001F
0800001F
7C00001F
7E00003F
7F00007E
3F8001FC
1FC003F8
07F81FF0
03FFFFC0
01FFFF80
007FFE00
000FF000
ENDCHAR
STARTCHAR 0161
ENCODING 353
SWIDTH 348 0
DWIDTH 46 0
BBX 32 79 7 0
BITMAP
07C003E0
03E003C0
01E007C0
01F00F80
00F80F00
00781F00
007C3E00
003E3E00
003E7C00
001FF800
000FF800
000FF000
0007E000
0007E000
00000000
00000000
00000000
00000000
00000000
00000000
000FF000
007FFE00
00FFFF80
03FFFFC0
07F81FE0
0FC003F8
1F8001FC
3F0000FE
7C00007E
FC00003F
F8000018
F8000000
F8000000
F8000000
F8000000
F8000000
F8000000
F8000000
F8000000
F8000000
F8000000
F8000000
F8000000
7C000000
7E000000
3F800000
1FC00000
07F80000
03FFF000
01FFFE00
007FFF80
000FFFE0
00001FF0
000003F8
000001FC
0000007E
0000003F
0000001F
0000001F
0000001F
0000001F
0000001F
0000001F
0000001F
0000001F
0000001F
0000001F
0000001F
0000001F
7C00001F
7C00003F
7F00007E
3F8001FC
1FC003F8
07F81FF0
03FFFFC0
01FFFF80
007FFE00
000FF000
ENDCHAR
STARTCHAR 0178
ENCODING 376
SWIDTH 348 0
DWIDTH 46 0
BBX 32 101 7 0
BITMAP
01F00F80
01F00F80
01F00F80
01F00F80
01F00F80
01F00F80
01F00F80
01F00F80
00000000
00000000
00000000
00000000
00000000
00000000
00000000
F800001F
F800001F
F800001F
F800001F
F800001F
F800001F
F800001F
F800001F
F800001F
F800001F
F800001F
F800001F
F800001F
F800001F
F800001F
F800001F
F800001F
F800001F
F800001F
F800001F
F800001F
F800001F
F800001F
F800001F
F800001F
F800001F
F800001F
F800001F
F800001F
F800001F
F800001F
FC00003F
7E00007F
3F0000FE
3FC003FC
0FF00FF8
07FFFFF0
03FFFFE0
00FFFF80
003FFE00
0007F000
0003E000
0003E000
0003E000
0003E000
0003E000
0003E000
0003E000
0003E000
0003E000
0003E000
0003E000
0003E000
0003E000
0003E000
0003E000
0003E000
0003E000
0003E000
0003E000
0003E000
0003E000
0003E000
0003E000
0003E000
0003E000
0003E000
0003E000
0003E000
0003E000
0003E000
0003E000
0003E000
0003E000
0003E000
0003E000
0003E000
0003E000
0003E000
0003E000
0003E000
0003E000
0003E000
0003E000
0003E000
0003E000
ENDCHAR
STARTCHAR 0192
ENCODING 402
SWIDTH 446 0
DWIDTH 59 0
BBX 45 104 7 -18
BITMAP
000000000078
0000000003F8
0000000007F8
000000001FF0
000000003F80
00000000FE00
00000001FC00
00000003F800
00000007E000
0000000FC000
0000000FC000
0000000F8000
0000000F8000
0000001F8000
0000001F0000
0000001F0000
0000001F0000
0000001F0000
0000003E0000
0000003E0000
0000003E0000
0000003E0000
0000003C0000
0000007C0000
0000007C0000
0000007C0000
0000007C0000
000000780000
000000F80000
0000FFFFFE00
0000FFFFFC00
0000FFFFFC00
0000FFFFFC00
000001F80000
000001F00000
000001F00000
000001F00000
000001F00000
000003F00000
000003E00000
000003E00000
000003E00000
000003E00000
000007E00000
000007C00000
000007C00000
000007C00000
000007C00000
00000FC00000
00000F800000
00000F800000
00000F800000
00000F800000
00001F800000
00001F000000
00001F000000
00001F000000
00001F000000
00001F000000
00003E000000
00003E000000
00003E000000
00003E000000
00003E000000
00007C000000
00007C000000
00007C000000
00007C000000
00007C000000
0000F8000000
0000F8000000
0000F8000000
0000F8000000
0000F8000000
0001F0000000
0001F0000000
0001F0000000
0001F0000000
0001F0000000
0003E0000000
0003E0000000
0003E0000000
0003E0000000
0003E0000000
0007C0000000
0007C0000000
0007C0000000
0007C0000000
0007C0000000
000F80000000
000F80000000
000F80000000
000F80000000
001F80000000
003F00000000
007F00000000
00FE00000000
01FC00000000
03F800000000
0FE000000000
7FC000000000
7F8000000000
FE0000000000
F00000000000
ENDCHAR
STARTCHAR 02C6
ENCODING 710
SWIDTH 280 0
DWIDTH 37 0
BBX 22 19 7 67
BITMAP
007C00
00FC00
00FE00
01FE00
01FF00
03EF00
03EF80
07C780
07C7C0
0F83C0
0F83E0
1F01E0
1F01F0
3E00F0
3E00F8
7C0078
7C007C
F8003C
00003C
ENDCHAR
STARTCHAR 02DC
ENCODING 732
SWIDTH 340 0
DWIDTH 45 0
BBX 31 8 7 75
BITMAP
00F80000
07FE0030
1FFFC0F8
3FFFFFFE
FF0FFFFC
7E03FFF0
1800FFC0
00003F00
ENDCHAR
STARTCHAR 03BC
ENCODING 956
SWIDTH 348 0
DWIDTH 46 0
BBX 32 76 7 -17
BITMAP
F800001F
F800001F
F800001F
F800001F
F800001F
F800001F
F800001F
F800001F
F800001F
F800001F
F800001F
F800001F
F800001F
F800001F
F800001F
F800001F
F800001F
F800001F
F800001F
F800001F
F800001F
F800001F
F800001F
F800001F
F800001F
F800001F
F800001F
F800001F
F800001F
F800001F
F800001F
F800001F
F800001F
F800001F
F800001F
F800001F
F800001F
F800001F
F800001F
F800001F
F800001F
F800001F
F800001F
F800001F
F800001F
F800001F
F800001F
F800001F
F800001F
FC00003F
FE00007F
FF0000FE
FFC001FC
FFF007F8
FFFFFFE0
FBFFFFC0
F9FFFF00
F87FFC00
F80FF000
F800F800
F800F800
F8007C00
F8007E00
F8003F00
F8001FC0
F8000FF0
F80007FE
F80001FE
F800007E
F800001E
F8000000
F8000000
F8000000
F8000000
F8000000
F8000000
ENDCHAR
STARTCHAR 2010
ENCODING 8208
SWIDTH 416 0
DWIDTH 55 0
BBX 41 5 7 36
BITMAP
FFFFFFFFFF80
FFFFFFFFFF80
FFFFFFFFFF80
FFFFFFFFFF80
FFFFFFFFFF80
ENDCHAR
STARTCHAR 2013
ENCODING 8211
SWIDTH 477 0
DWIDTH 63 0
BBX 49 5 7 36
BITMAP
FFFFFFFFFFFF80
FFFFFFFFFFFF80
FFFFFFFFFFFF80
FFFFFFFFFFFF80
FFFFFFFFFFFF80
ENDCHAR
STARTCHAR 2014
ENCODING 8212
SWIDTH 553 0
DWIDTH 73 0
BBX 59 5 7 36
BITMAP
FFFFFFFFFFFFFFE0
FFFFFFFFFFFFFFE0
FFFFFFFFFFFFFFE0
FFFFFFFFFFFFFFE0
FFFFFFFFFFFFFFE0
ENDCHAR
STARTCHAR 2018
ENCODING 8216
SWIDTH 174 0
DWIDTH 23 0
BBX 8 18 8 69
BITMAP
F0
F0
F0
F8
78
78
78
7C
3C
3C
3C
3E
1E
1E
1E
1F
0F
0F
ENDCHAR
STARTCHAR 2019
ENCODING 8217
SWIDTH 174 0
DWIDTH 23 0
BBX 8 18 8 67
BITMAP
0F
0F
1F
1E
1E
1E
3E
3C
3C
3C
7C
78
78
78
F8
F0
F0
F0
ENDCHAR
STARTCHAR 201A
ENCODING 8218
SWIDTH 174 0
DWIDTH 23 0
BBX 8 18 8 -10
BITMAP
0F
0F
1F
1E
1E
1E
3E
3C
3C
3C
7C
78
78
78
F8
F0
F0
F0
ENDCHAR
STARTCHAR 201C
ENCODING 8220
SWIDTH 242 0
DWIDTH 32 0
BBX 18 18 7 68
BITMAP
F03C00
783C00
783C00
783E00
781E00
3C1E00
3C1E00
3C1F00
3C0F00
1E0F00
1E0F00
1E0F80
1E0780
0F0780
0F0780
0F07C0
0F03C0
0783C0
ENDCHAR
STARTCHAR 201D
ENCODING 8221
SWIDTH 242 0
DWIDTH 32 0
BBX 18 18 7 68
BITMAP
0783C0
0F83C0
0F07C0
0F0780
0F0780
1E0780
1E0F80
1E0F00
1E0F00
3C0F00
3C1F00
3C1E00
3C1E00
781E00
783E00
783C00
783C00
F03C00
ENDCHAR
STARTCHAR 201E
ENCODING 8222
SWIDTH 272 0
DWIDTH 36 0
BBX 21 18 8 -9
BITMAP
0F0078
0F0078
1E0078
1E00F8
1E00F0
1C00F0
3C00F0
3C01F0
3C01E0
3801E0
7801E0
7803E0
7803C0
7003C0
F003C0
F007C0
F00780
E00780
ENDCHAR
STARTCHAR 2020
ENCODING 8224
SWIDTH 280 0
DWIDTH 37 0
BBX 23 85 7 -9
BITMAP
007C00
007C00
007C00
007C00
007C00
007C00
007C00
007C00
007C00
007C00
007C00
007C00
007C00
FFFFFE
FFFFFE
FFFFFE
FFFFFE
007C00
007C00
007C00
007C00
007C00
007C00
007C00
007C00
007C00
007C00
007C00
007C00
007C00
007C00
007C00
007C00
007C00
007C00
007C00
007C00
007C00
007C00
007C00
007C00
007C00
007C00
007C00
007C00
007C00
007C00
007C00
007C00
007C00
007C00
007C00
007C00
007C00
007C00
007C00
007C00
007C00
007C00
007C00
007C00
007C00
007C00
007C00
007C00
007C00
007C00
007C00
007C00
007C00
007C00
007C00
007C00
007C00
007C00
007C00
007C00
007C00
007C00
007C00
007C00
007C00
007C00
007C00
007C00
ENDCHAR
STARTCHAR 2021
ENCODING 8225
SWIDTH 280 0
DWIDTH 37 0
BBX 23 85 7 -9
BITMAP
007C00
007C00
007C00
007C00
007C00
007C00
007C00
007C00
007C00
007C00
007C00
007C00
007C00
FFFFFE
FFFFFE
FFFFFE
FFFFFE
007C00
007C00
007C00
007C00
007C00
007C00
007C00
007C00
007C00
007C00
007C00
007C00
007C00
007C00
007C00
007C00
007C00
007C00
007C00
007C00
007C00
007C00
007C00
007C00
007C00
007C00
007C00
007C00
007C00
007C00
007C00
007C00
007C00
007C00
007C00
007C00
007C00
007C00
007C00
007C00
007C00
007C00
007C00
007C00
007C00
007C00
007C00
007C00
007C00
007C00
007C00
FFFFFE
FFFFFE
FFFFFE
FFFFFE
007C00
007C00
007C00
007C00
007C00
007C00
007C00
007C00
007C00
007C00
007C00
007C00
007C00
ENDCHAR
STARTCHAR 2022
ENCODING 8226
SWIDTH 181 0
DWIDTH 24 0
BBX 10 14 7 34
BITMAP
FFC0
FFC0
FFC0
FFC0
FFC0
FFC0
FFC0
FFC0
FFC0
FFC0
FFC0
FFC0
FFC0
FFC0
ENDCHAR
STARTCHAR 2026
ENCODING 8230
SWIDTH 439 0
DWIDTH 58 0
BBX 45 9 7 0
BITMAP
F8000F8000F8
F8000F8000F8
F8000F8000F8
F8000F8000F8
F8000F8000F8
F8000F8000F8
F8000F8000F8
F8000F8000F8
F8000F8000F8
ENDCHAR
STARTCHAR 2030
ENCODING 8240
SWIDTH 825 0
DWIDTH 109 0
BBX 95 86 7 1
BITMAP
00FC00000007800000000000
03FF00000007800000000000
07FF8000000F800000000000
0FFFC000000F000000000000
0FC7E000000F000000000000
1F81E000001F000000000000
3F01F000001E000000000000
7E00F800001E000000000000
7C007800003E000000000000
FC007C00003C000000000000
F8003E00003C000000000000
F8003E00007C000000000000
F8003E000078000000000000
F8003E000078000000000000
F8003E000078000000000000
F8003E0000F0000000000000
F8003E0000F0000000000000
F8003E0000F0000000000000
F8003E0001F0000000000000
F8003E0001E0000000000000
F8003E0001E0000000000000
F8003E0003E0000000000000
F8003E0003C0000000000000
F8003E0003C0000000000000
F8003E0007C0000000000000
F8003E000780000000000000
F8003E000780000000000000
F8003E000F80000000000000
F8003E000F00000000000000
F8003E000F00000000000000
F8003E000F00000000000000
F8003E001E00000000000000
F8003E001E00000000000000
F8003E001E00000000000000
F8003E003E00000000000000
F8003E003C00000000000000
FC007E003C00000000000000
7E00FC007C00000000000000
3F00F8007800000000000000
1F81F8007800000000000000
1FC3F000F800000000000000
0FFFE000F00007F00000FE00
07FFC000F0001FFC0003FF80
03FF8001F0003FFE0007FFC0
00FE0001E0007FFF000FFFE0
00000001E0007E3F800FC7F0
00000001E000FC0F801F81F0
00000003C001F807C03F00F8
00000003C003F007E07E00FC
00000003C007E003F0FC007E
000000078007C001F0F8003E
000000078007C001F0F8003E
000000078007C001F0F8003E
0000000F8007C001F0F8003E
0000000F0007C001F0F8003E
0000000F0007C001F0F8003E
0000001F0007C001F0F8003E
0000001E0007C001F0F8003E
0000001E0007C001F0F8003E
0000003E0007C001F0F8003E
0000003C0007C001F0F8003E
0000003C0007C001F0F8003E
0000007C0007C001F0F8003E
000000780007C001F0F8003E
000000780007C001F0F8003E
000000780007C001F0F8003E
000000F00007C001F0F8003E
000000F00007C001F0F8003E
000000F00007C001F0F8003E
000001F00007C001F0F8003E
000001E00007C001F0F8003E
000001E00007C001F0F8003E
000003E00007C001F0F8003E
000003C00007C001F0F8003E
000003C00007C001F0F8003E
000007C00007C001F0F8003E
000007800007C001F0F8003E
000007800007E003F0FC007E
00000F800003F007E07E00FC
00000F000001F807C03F00F8
00000F000000FC0F801F81F0
00000F0000007E1F800FC3F0
00001E0000003FFF0007FFE0
00001E0000003FFE0007FFC0
00001E0000001FFC0003FF80
00003E00000003F000007E00
ENDCHAR
STARTCHAR 2039
ENCODING 8249
SWIDTH 227 0
DWIDTH 30 0
BBX 16 31 7 23
BITMAP
0001
0003
0007
000F
001F
007E
00FC
01FC
03F8
07F0
1FE0
3FC0
7F80
FF80
FF00
FE00
FF00
FF80
7F80
3FC0
1FE0
07F0
03F0
01F8
00FC
007E
003F
000F
0007
0003
0001
ENDCHAR
STARTCHAR 203A
ENCODING 8250
SWIDTH 227 0
DWIDTH 30 0
BBX 16 30 7 23
BITMAP
8000
C000
E000
F000
F800
7E00
3F00
1F80
1FC0
0FE0
07F8
03FC
01FE
00FF
00FF
007F
00FF
00FF
01FE
03FC
07F8
07F0
0FC0
1F80
3F00
7E00
7C00
7800
6000
4000
ENDCHAR
STARTCHAR 2122
ENCODING 8482
SWIDTH 628 0
DWIDTH 83 0
BBX 68 25 8 52
BITMAP
00FE00001FC007F000
07FF8000FFF01FFE00
0FFFE001FFFC7FFF00
3FFFF007FFFEFFFFC0
7EFBF80FF07FF81FE0
F8F8FC1FC01FE007F0
70F87C1F000FC001F0
00F8001F000F8001F0
00F8001F000F8001F0
00F8001F000F8001F0
00F8001F000F8001F0
00F8001F000F8001F0
00F8001F000F8001F0
00F8001F000F8001F0
00F8001F000F8001F0
00F8001F000F8001F0
00F8001F000F8001F0
00F8001F000F8001F0
00F8001F000F8001F0
00F8001F000F8001F0
00F8001F000F8001F0
00F8001F000F8001F0
00F8001F000F8001F0
00F8001F000F8001F0
00F8001F000F8001F0
ENDCHAR
STARTCHAR 2212
ENCODING 8722
SWIDTH 416 0
DWIDTH 55 0
BBX 41 5 7 36
BITMAP
FFFFFFFFFF80
FFFFFFFFFF80
FFFFFFFFFF80
FFFFFFFFFF80
FFFFFFFFFF80
ENDCHAR
STARTCHAR 2219
ENCODING 8729
SWIDTH 143 0
DWIDTH 19 0
BBX 5 9 7 36
BITMAP
F8
F8
F8
F8
F8
F8
F8
F8
F8
ENDCHAR
ENDFONT
